{"glyphs":{"0":{"ha":668,"x_min":50,"x_max":617,"o":"m 617 496 q 603 292 617 385 q 558 131 590 200 q 472 24 526 61 q 333 -14 417 -14 q 177 40 240 -14 q 82 208 114 94 q 50 496 50 321 q 81 783 50 671 q 174 951 111 896 q 333 1006 238 1006 q 491 949 428 1006 q 585 778 554 892 q 617 496 617 665 m 258 496 q 265 311 258 383 q 287 204 271 239 q 333 169 303 169 q 380 204 364 169 q 403 311 396 239 q 410 496 410 383 q 403 677 410 604 q 380 786 396 750 q 333 822 364 822 q 288 786 304 822 q 265 678 271 750 q 258 496 258 606 z "},"1":{"ha":668,"x_min":60,"x_max":524,"o":"m 524 0 l 317 0 l 317 553 q 317 615 317 585 q 319 674 318 644 q 321 731 319 703 q 299 701 311 717 q 271 667 288 685 l 185 575 l 60 697 l 339 992 l 524 992 l 524 0 z "},"2":{"ha":668,"x_min":33,"x_max":596,"o":"m 596 0 l 39 0 l 39 149 l 228 408 q 320 547 289 493 q 363 642 351 601 q 374 721 374 682 q 351 796 374 768 q 285 824 329 824 q 213 802 247 824 q 135 724 179 781 l 33 861 q 119 946 76 914 q 208 992 161 978 q 310 1006 254 1006 q 450 972 389 1006 q 547 877 511 938 q 582 733 582 817 q 567 615 582 672 q 515 493 551 557 q 410 346 478 429 l 286 189 l 286 182 l 596 182 l 596 0 z "},"3":{"ha":668,"x_min":44,"x_max":608,"o":"m 588 751 q 568 655 588 700 q 511 576 549 610 q 418 521 474 542 l 418 517 q 560 438 513 497 q 608 281 608 378 q 569 124 608 190 q 456 22 529 58 q 281 -14 382 -14 q 160 -3 214 -14 q 44 35 107 7 l 44 228 q 149 181 96 196 q 247 165 201 165 q 355 197 321 165 q 389 290 389 229 q 371 366 389 338 q 313 408 353 394 q 210 422 274 422 l 160 422 l 160 596 l 211 596 q 307 611 269 596 q 364 656 344 626 q 383 728 383 686 q 357 802 383 778 q 279 826 331 826 q 228 819 254 826 q 177 798 203 813 q 124 761 151 783 l 44 914 q 172 985 107 964 q 321 1006 238 1006 q 516 941 444 1006 q 588 751 588 876 z "},"4":{"ha":668,"x_min":24,"x_max":651,"o":"m 651 197 l 551 197 l 551 0 l 349 0 l 349 197 l 24 197 l 24 364 l 350 993 l 551 993 l 551 368 l 651 368 l 651 197 m 347 553 q 348 584 347 563 q 349 631 349 606 q 351 677 350 657 q 351 701 351 697 l 346 701 q 327 646 338 671 q 304 599 317 621 l 190 368 l 347 368 l 347 553 z "},"5":{"ha":668,"x_min":68,"x_max":607,"o":"m 367 642 q 492 602 439 642 q 576 492 546 563 q 607 328 607 421 q 572 143 607 219 q 463 26 536 67 q 279 -14 390 -14 q 165 -2 217 -14 q 68 35 113 10 l 68 226 q 166 183 114 200 q 265 165 218 165 q 338 184 308 165 q 381 238 367 203 q 396 321 396 272 q 362 428 396 390 q 260 467 328 467 q 206 460 233 467 q 149 443 178 454 l 81 490 l 110 992 l 557 992 l 557 808 l 285 808 l 272 629 q 326 640 303 638 q 367 642 350 642 z "},"6":{"ha":668,"x_min":49,"x_max":622,"o":"m 49 421 q 60 601 49 514 q 97 761 71 688 q 168 890 122 835 q 281 975 214 944 q 440 1006 347 1006 q 508 1003 475 1006 q 575 993 542 1000 l 575 817 q 519 827 547 824 q 458 831 490 831 q 367 813 407 831 q 301 760 328 796 q 259 670 274 725 q 242 540 244 615 l 247 540 q 286 603 264 578 q 338 641 308 628 q 404 654 368 654 q 522 615 474 654 q 597 504 571 576 q 622 333 622 432 q 590 151 622 229 q 495 29 557 72 q 344 -14 433 -14 q 220 15 275 -14 q 127 101 165 44 q 69 238 89 157 q 49 421 49 318 m 339 165 q 396 206 375 165 q 417 329 417 246 q 398 441 417 403 q 342 479 379 479 q 297 462 315 479 q 268 415 278 444 q 258 351 258 386 q 263 281 258 314 q 278 222 268 247 q 304 181 289 196 q 339 165 319 165 z "},"7":{"ha":668,"x_min":49,"x_max":618,"o":"m 119 0 l 407 808 l 49 808 l 49 992 l 618 992 l 618 849 l 339 0 l 119 0 z "},"8":{"ha":668,"x_min":43,"x_max":624,"o":"m 335 1006 q 479 977 419 1006 q 569 896 539 949 q 600 767 600 843 q 585 669 600 714 q 540 588 571 625 q 461 521 510 551 q 555 441 519 482 q 607 356 590 400 q 624 261 624 313 q 589 113 624 174 q 490 19 554 53 q 333 -14 425 -14 q 175 18 240 -14 q 76 110 110 50 q 43 257 43 171 q 58 358 43 311 q 108 444 74 404 q 194 518 142 485 q 123 593 151 554 q 81 675 94 632 q 68 767 68 718 q 100 896 68 843 q 192 977 132 949 q 335 1006 253 1006 m 240 261 q 263 181 240 211 q 332 151 286 151 q 403 180 379 151 q 428 258 428 208 q 420 306 428 283 q 396 353 413 329 q 346 404 379 378 l 329 417 q 278 369 297 393 q 249 318 258 344 q 240 261 240 292 m 335 840 q 283 816 303 840 q 264 751 264 792 q 272 703 264 725 q 294 663 279 682 q 333 624 310 643 q 377 665 361 646 q 399 706 393 685 q 406 751 406 726 q 385 817 406 793 q 335 840 365 840 z "},"9":{"ha":668,"x_min":44,"x_max":619,"o":"m 619 575 q 607 388 619 476 q 567 226 594 300 q 492 99 539 153 q 381 15 446 44 q 226 -14 315 -14 q 157 -10 192 -14 q 92 0 122 -6 l 92 176 q 147 165 118 169 q 207 161 176 161 q 302 180 263 161 q 369 235 342 199 q 410 326 396 272 q 426 451 424 381 l 419 451 q 381 390 404 415 q 329 351 358 364 q 264 338 300 338 q 144 377 193 338 q 70 489 96 417 q 44 658 44 561 q 77 842 44 764 q 172 963 110 919 q 325 1006 235 1006 q 448 976 393 1006 q 541 892 503 947 q 599 756 579 836 q 619 575 619 676 m 326 826 q 271 787 293 826 q 249 663 249 747 q 268 551 249 589 q 326 513 288 513 q 375 534 357 513 q 401 586 393 556 q 410 643 410 617 q 406 694 410 664 q 395 755 403 725 q 370 806 388 785 q 326 826 353 826 z "},"\u0000":{"ha":0,"x_min":0,"x_max":0,"o":""},"\r":{"ha":247,"x_min":0,"x_max":0,"o":""}," ":{"ha":247,"x_min":0,"x_max":0,"o":""},"!":{"ha":365,"x_min":65,"x_max":300,"o":"m 269 335 l 97 335 l 65 992 l 300 992 l 269 335 m 65 106 q 95 195 65 164 q 183 226 125 226 q 269 195 239 226 q 299 106 299 164 q 267 16 299 47 q 183 -15 236 -15 q 97 16 128 -15 q 65 106 65 47 z "},"\"":{"ha":642,"x_min":60,"x_max":582,"o":"m 278 992 l 251 633 l 86 633 l 60 992 l 278 992 m 582 992 l 556 633 l 390 633 l 364 992 l 582 992 z "},"#":{"ha":732,"x_min":28,"x_max":713,"o":"m 575 578 l 553 417 l 679 417 l 679 272 l 535 272 l 496 0 l 349 0 l 388 272 l 290 272 l 253 0 l 107 0 l 144 272 l 28 272 l 28 417 l 164 417 l 186 578 l 61 578 l 61 725 l 207 725 l 244 992 l 390 992 l 351 725 l 450 725 l 486 992 l 632 992 l 594 725 l 713 725 l 713 578 l 575 578 m 311 417 l 407 417 l 429 578 l 333 578 l 311 417 z "},"$":{"ha":668,"x_min":61,"x_max":608,"o":"m 293 51 q 178 70 238 56 q 68 108 118 85 l 68 289 q 176 232 115 257 q 293 204 238 207 l 293 438 q 165 506 217 469 q 87 593 113 543 q 61 710 61 643 q 91 833 61 782 q 173 915 121 885 q 293 956 225 946 l 293 1054 l 386 1054 l 386 957 q 489 938 436 953 q 590 894 542 922 l 546 743 q 467 778 508 765 q 386 796 425 792 l 386 578 q 512 515 463 549 q 585 434 561 481 q 608 321 608 388 q 551 149 608 219 q 386 57 493 78 l 386 -81 l 293 -81 l 293 51 m 386 217 q 435 252 421 228 q 450 307 450 276 q 442 344 450 328 q 421 373 435 360 q 386 397 407 386 l 386 217 m 293 794 q 252 777 267 789 q 231 747 238 765 q 225 706 225 729 q 232 671 225 686 q 253 642 239 656 q 293 617 268 629 l 293 794 z "},"%":{"ha":1115,"x_min":38,"x_max":1076,"o":"m 244 1006 q 397 922 340 1006 q 453 696 453 839 q 399 465 453 547 q 244 383 344 383 q 93 467 149 383 q 38 696 38 551 q 92 925 38 844 q 244 1006 146 1006 m 246 865 q 206 823 219 865 q 193 694 193 781 q 206 564 193 606 q 246 522 219 522 q 285 563 272 522 q 297 694 297 604 q 285 824 297 782 q 246 865 272 865 m 828 992 l 435 0 l 283 0 l 678 992 l 828 992 m 868 610 q 1020 527 964 610 q 1076 300 1076 444 q 1022 69 1076 151 q 868 -12 967 -12 q 716 72 771 -12 q 661 300 661 157 q 715 531 661 451 q 868 610 769 610 m 868 471 q 831 428 843 471 q 818 299 818 385 q 831 169 818 211 q 869 128 843 128 q 909 174 899 128 q 919 299 919 219 q 908 424 919 378 q 868 471 897 471 z "},"&":{"ha":844,"x_min":33,"x_max":850,"o":"m 361 1004 q 492 976 439 1004 q 573 897 546 949 q 600 774 600 846 q 562 635 600 697 q 456 522 524 574 l 558 379 q 582 449 572 410 q 599 539 592 489 l 811 539 q 770 367 800 454 q 694 204 740 281 l 850 0 l 594 0 l 549 67 q 477 24 514 42 q 397 -4 440 6 q 300 -14 353 -14 q 153 22 213 -14 q 63 121 93 57 q 33 269 33 185 q 51 379 33 329 q 106 471 69 429 q 197 544 142 513 q 152 617 171 582 q 124 690 133 651 q 115 775 115 729 q 146 895 115 843 q 232 976 176 947 q 361 1004 288 1004 m 294 419 q 263 382 275 403 q 246 337 251 361 q 240 282 240 313 q 265 200 240 235 q 333 165 289 165 q 391 178 367 165 q 439 215 415 190 l 294 419 m 360 856 q 321 836 336 856 q 306 775 306 817 q 318 712 306 746 q 354 646 331 678 q 400 708 385 672 q 415 782 415 744 q 401 838 415 819 q 360 856 386 856 z "},"'":{"ha":338,"x_min":60,"x_max":278,"o":"m 278 992 l 251 633 l 86 633 l 60 992 l 278 992 z "},"(":{"ha":442,"x_min":61,"x_max":432,"o":"m 61 392 q 85 633 61 521 q 152 842 110 746 q 249 1015 194 938 l 432 1015 q 299 726 343 881 q 254 393 254 572 q 275 175 254 279 q 335 -26 296 71 q 432 -219 375 -124 l 249 -219 q 150 -46 192 -139 q 85 157 108 47 q 61 392 61 267 z "},")":{"ha":442,"x_min":11,"x_max":382,"o":"m 382 392 q 358 157 382 267 q 292 -47 335 47 q 193 -219 250 -140 l 11 -219 q 108 -26 68 -124 q 167 175 147 71 q 188 393 188 279 q 168 620 188 513 q 110 826 149 728 q 11 1015 71 925 l 193 1015 q 291 842 249 938 q 358 633 333 746 q 382 392 382 521 z "},"*":{"ha":638,"x_min":24,"x_max":613,"o":"m 411 1058 l 386 857 l 569 926 l 613 751 l 426 729 l 565 576 l 415 469 l 318 651 l 221 469 l 71 576 l 210 729 l 24 750 l 67 926 l 250 857 l 225 1058 l 411 1058 z "},"+":{"ha":674,"x_min":46,"x_max":628,"o":"m 421 571 l 628 571 l 628 408 l 421 408 l 421 157 l 254 157 l 254 408 l 46 408 l 46 572 l 254 572 l 254 826 l 421 826 l 421 571 z "},",":{"ha":365,"x_min":44,"x_max":303,"o":"m 303 178 q 278 40 293 106 q 247 -82 264 -25 q 210 -190 231 -139 l 44 -190 q 67 -67 56 -136 q 86 72 78 3 q 97 193 94 142 l 296 193 l 303 178 z "},"-":{"ha":436,"x_min":39,"x_max":397,"o":"m 39 278 l 39 468 l 397 468 l 397 278 l 39 278 z "},".":{"ha":365,"x_min":67,"x_max":300,"o":"m 67 106 q 97 195 67 164 q 185 226 128 226 q 270 195 240 226 q 300 106 300 164 q 269 16 300 47 q 185 -15 239 -15 q 99 16 131 -15 q 67 106 67 47 z "},"/":{"ha":575,"x_min":8,"x_max":568,"o":"m 568 1003 l 186 -11 l 8 -11 l 392 1003 l 568 1003 z "},":":{"ha":374,"x_min":71,"x_max":303,"o":"m 71 106 q 101 195 71 164 q 189 226 132 226 q 274 195 244 226 q 303 106 303 164 q 272 16 303 47 q 189 -15 242 -15 q 102 16 133 -15 q 71 106 71 47 m 71 650 q 101 742 71 710 q 189 774 132 774 q 274 742 244 774 q 303 651 303 710 q 272 562 303 593 q 189 531 242 531 q 102 562 133 531 q 71 650 71 593 z "},";":{"ha":374,"x_min":43,"x_max":303,"o":"m 303 178 q 278 40 293 106 q 247 -82 264 -25 q 210 -190 231 -139 l 43 -190 q 60 -99 53 -149 q 76 3 68 -50 q 89 105 83 56 q 97 193 94 154 l 296 193 l 303 178 m 71 650 q 101 742 71 710 q 189 774 131 774 q 274 742 244 774 q 303 651 303 710 q 272 562 303 593 q 189 531 242 531 q 102 562 133 531 q 71 650 71 593 z "},"<":{"ha":674,"x_min":40,"x_max":628,"o":"m 628 161 l 40 447 l 40 553 l 628 838 l 628 656 l 276 500 l 628 342 l 628 161 z "},"=":{"ha":674,"x_min":46,"x_max":628,"o":"m 46 561 l 46 724 l 628 724 l 628 561 l 46 561 m 46 254 l 46 418 l 628 418 l 628 254 l 46 254 z "},">":{"ha":674,"x_min":46,"x_max":633,"o":"m 46 342 l 397 500 l 46 656 l 46 838 l 633 553 l 633 447 l 46 161 l 46 342 z "},"?":{"ha":533,"x_min":4,"x_max":513,"o":"m 146 390 q 155 471 146 436 q 184 535 164 506 q 236 597 204 565 q 283 649 265 626 q 308 694 300 671 q 315 744 315 717 q 294 806 315 785 q 232 826 274 826 q 155 809 194 826 q 69 758 115 792 l 4 917 q 126 983 64 961 q 250 1006 188 1006 q 446 940 379 1006 q 513 763 513 875 q 498 659 513 703 q 456 578 483 615 q 386 501 428 540 q 338 449 353 469 q 318 410 322 428 q 314 368 314 393 l 314 335 l 146 335 l 146 390 m 114 106 q 144 195 114 164 q 232 226 175 226 q 317 195 288 226 q 346 106 346 164 q 316 16 346 47 q 232 -15 286 -15 q 146 16 178 -15 q 114 106 114 47 z "},"@":{"ha":1032,"x_min":51,"x_max":981,"o":"m 981 510 q 965 367 981 432 q 921 256 950 303 q 853 184 892 210 q 769 158 815 158 q 678 185 714 158 q 629 260 643 211 l 619 260 q 560 183 594 208 q 485 158 526 158 q 341 229 392 158 q 290 428 290 300 q 322 597 290 525 q 412 710 354 669 q 550 750 469 750 q 642 740 592 750 q 732 711 692 729 l 721 425 q 719 385 719 406 q 718 344 718 364 q 729 296 718 313 q 761 279 740 279 q 801 302 785 279 q 828 376 818 325 q 838 513 838 426 q 803 704 838 621 q 701 835 768 788 q 535 882 633 883 q 388 847 451 882 q 283 749 325 813 q 218 601 240 686 q 196 417 196 517 q 233 204 196 294 q 343 65 269 114 q 525 15 417 15 q 659 33 589 15 q 793 78 729 50 l 793 -53 q 669 -94 735 -81 q 528 -107 603 -107 q 269 -45 376 -107 q 107 133 163 17 q 51 411 51 249 q 87 656 51 547 q 186 843 122 765 q 338 962 250 921 q 535 1003 426 1003 q 718 967 636 1003 q 859 867 800 932 q 949 710 918 801 q 981 510 981 619 m 443 426 q 460 315 443 350 q 504 279 476 279 q 553 326 536 279 q 575 494 569 374 l 581 624 q 563 628 571 626 q 547 629 556 629 q 492 606 515 629 q 456 536 468 582 q 443 426 443 490 z "},"A":{"ha":761,"x_min":0,"x_max":761,"o":"m 536 0 l 490 218 l 272 218 l 228 0 l 0 0 l 240 992 l 517 992 l 761 0 l 536 0 m 410 644 q 399 713 404 679 q 390 776 394 746 q 382 832 386 806 q 375 777 379 807 q 365 715 371 747 q 353 647 360 682 l 304 400 l 458 400 l 410 644 z "},"B":{"ha":751,"x_min":86,"x_max":693,"o":"m 358 992 q 598 931 519 992 q 676 746 676 871 q 660 644 676 689 q 615 568 644 599 q 544 526 585 538 l 544 519 q 630 474 597 506 q 678 397 663 443 q 693 289 693 351 q 656 135 693 200 q 551 35 619 71 q 389 0 483 0 l 86 0 l 86 992 l 358 992 m 358 597 q 436 627 410 597 q 463 715 463 657 q 436 793 463 767 q 356 819 410 819 l 297 819 l 297 597 l 358 597 m 297 431 l 297 176 l 372 176 q 451 208 425 176 q 478 306 478 240 q 465 374 478 347 q 427 416 451 401 q 367 431 403 431 l 297 431 z "},"C":{"ha":686,"x_min":57,"x_max":653,"o":"m 436 824 q 367 800 397 824 q 317 732 338 776 q 287 627 297 688 q 276 493 276 567 q 297 315 276 388 q 354 206 317 243 q 447 169 392 169 q 536 186 493 169 q 622 226 579 203 l 622 38 q 525 -1 576 13 q 414 -14 474 -14 q 220 45 300 -14 q 99 217 140 104 q 57 494 57 331 q 82 700 57 607 q 153 862 107 793 q 266 968 199 931 q 419 1006 333 1006 q 540 990 482 1006 q 653 940 597 975 l 594 767 q 519 808 557 793 q 436 824 481 824 z "},"D":{"ha":794,"x_min":86,"x_max":738,"o":"m 738 515 q 690 235 738 350 q 551 60 642 119 q 329 0 460 0 l 86 0 l 86 992 l 344 992 q 558 937 471 992 q 691 776 644 882 q 738 515 738 669 m 519 506 q 499 679 519 613 q 440 777 479 746 q 342 808 400 808 l 297 808 l 297 185 l 328 185 q 473 263 426 185 q 519 506 519 342 z "},"E":{"ha":603,"x_min":86,"x_max":546,"o":"m 546 0 l 86 0 l 86 992 l 546 992 l 546 813 l 297 813 l 297 604 l 528 604 l 528 424 l 297 424 l 297 182 l 546 182 l 546 0 z "},"F":{"ha":589,"x_min":86,"x_max":543,"o":"m 297 0 l 86 0 l 86 992 l 543 992 l 543 813 l 297 813 l 297 568 l 526 568 l 526 389 l 297 389 l 297 0 z "},"G":{"ha":810,"x_min":57,"x_max":740,"o":"m 414 568 l 740 568 l 740 43 q 590 0 667 14 q 433 -14 514 -14 q 227 47 311 -14 q 100 224 143 108 q 57 499 57 339 q 106 769 57 656 q 248 944 154 882 q 474 1006 342 1006 q 613 988 549 1006 q 725 943 676 971 l 665 769 q 577 810 624 797 q 482 824 531 824 q 368 785 414 824 q 299 673 322 747 q 276 493 276 599 q 295 319 276 392 q 351 208 314 246 q 446 169 389 169 q 491 173 469 169 q 532 183 513 176 l 532 390 l 414 390 l 414 568 z "},"H":{"ha":824,"x_min":86,"x_max":738,"o":"m 738 0 l 526 0 l 526 425 l 297 425 l 297 0 l 86 0 l 86 992 l 297 992 l 297 607 l 526 607 l 526 992 l 738 992 l 738 0 z "},"I":{"ha":471,"x_min":38,"x_max":433,"o":"m 433 0 l 38 0 l 38 114 l 131 157 l 131 835 l 38 878 l 38 992 l 433 992 l 433 878 l 342 835 l 342 157 l 433 114 l 433 0 z "},"J":{"ha":383,"x_min":-81,"x_max":299,"o":"m 29 -303 q -28 -299 0 -303 q -81 -287 -56 -296 l -81 -108 q -45 -118 -64 -114 q -4 -122 -26 -122 q 51 -106 31 -122 q 80 -52 71 -90 q 89 53 89 -14 l 89 992 l 299 992 l 299 60 q 267 -158 299 -79 q 176 -269 236 -236 q 29 -303 115 -303 z "},"K":{"ha":736,"x_min":86,"x_max":747,"o":"m 747 0 l 513 0 l 356 388 l 297 340 l 297 0 l 86 0 l 86 992 l 297 992 l 297 547 q 319 607 304 575 q 353 676 333 639 l 521 992 l 747 992 l 507 549 l 747 0 z "},"L":{"ha":578,"x_min":86,"x_max":558,"o":"m 86 0 l 86 992 l 297 992 l 297 182 l 558 182 l 558 0 l 86 0 z "},"M":{"ha":1094,"x_min":86,"x_max":1008,"o":"m 463 0 l 279 701 l 274 701 q 280 616 278 657 q 283 540 282 575 q 283 474 283 504 l 283 0 l 86 0 l 86 992 l 376 992 l 546 351 l 550 351 l 721 992 l 1008 992 l 1008 0 l 807 0 l 807 476 q 808 545 807 510 q 810 619 808 581 q 815 701 813 658 l 810 701 l 624 0 l 463 0 z "},"N":{"ha":886,"x_min":86,"x_max":800,"o":"m 800 0 l 553 0 l 278 657 l 272 657 q 279 561 276 606 q 283 481 282 517 q 283 417 283 446 l 283 0 l 86 0 l 86 992 l 332 992 l 607 350 l 611 350 q 606 441 608 399 q 603 519 604 483 q 601 582 601 554 l 601 992 l 800 992 l 800 0 z "},"O":{"ha":842,"x_min":57,"x_max":785,"o":"m 785 497 q 762 281 785 376 q 694 120 739 186 q 580 20 649 54 q 421 -14 511 -14 q 263 21 332 -14 q 149 122 194 56 q 80 283 103 188 q 57 499 57 378 q 99 778 57 665 q 222 949 140 892 q 421 1007 303 1007 q 624 947 543 1007 q 744 774 704 888 q 785 497 785 660 m 276 497 q 292 317 276 389 q 341 208 308 244 q 421 172 374 172 q 501 208 469 172 q 549 315 533 243 q 565 497 565 386 q 529 744 565 663 q 421 825 493 825 q 341 788 374 825 q 292 678 308 751 q 276 497 276 606 z "},"P":{"ha":700,"x_min":86,"x_max":660,"o":"m 357 992 q 584 912 508 992 q 660 681 660 832 q 640 544 660 606 q 583 436 621 482 q 485 366 544 390 q 347 342 426 342 l 297 342 l 297 0 l 86 0 l 86 992 l 357 992 m 339 813 l 297 813 l 297 521 l 325 521 q 392 537 365 521 q 434 588 419 553 q 449 679 449 622 q 422 780 449 747 q 339 813 394 813 z "},"Q":{"ha":842,"x_min":57,"x_max":785,"o":"m 785 497 q 765 292 785 382 q 706 138 744 201 q 610 36 667 74 l 775 -236 l 536 -236 l 415 -12 q 410 -12 414 -12 q 403 -12 406 -12 q 251 25 317 -12 q 144 131 186 63 q 79 292 101 199 q 57 499 57 385 q 99 778 57 665 q 222 949 140 892 q 421 1007 303 1007 q 621 949 540 1007 q 743 778 701 892 q 785 497 785 665 m 276 497 q 292 317 276 389 q 341 208 308 244 q 421 172 374 172 q 501 208 469 172 q 549 315 533 243 q 565 497 565 386 q 529 744 565 663 q 421 825 493 825 q 341 788 374 825 q 292 678 308 751 q 276 497 276 606 z "},"R":{"ha":732,"x_min":86,"x_max":733,"o":"m 332 992 q 519 960 444 992 q 630 863 593 928 q 667 701 667 799 q 652 593 667 643 q 607 504 638 543 q 529 435 576 465 l 733 0 l 501 0 l 342 381 l 297 381 l 297 0 l 86 0 l 86 992 l 332 992 m 331 814 l 297 814 l 297 547 l 332 547 q 420 583 390 547 q 450 690 450 618 q 437 760 450 733 q 397 801 424 788 q 331 814 371 814 z "},"S":{"ha":618,"x_min":42,"x_max":581,"o":"m 581 296 q 543 135 581 206 q 439 26 506 65 q 279 -14 372 -14 q 198 -9 238 -14 q 120 9 158 -4 q 42 44 82 22 l 42 260 q 158 202 99 222 q 268 182 217 182 q 323 194 301 182 q 355 228 344 207 q 365 274 365 249 q 356 324 365 301 q 320 370 347 346 q 238 426 293 394 q 159 481 194 453 q 99 542 124 508 q 62 619 75 575 q 49 721 49 663 q 83 872 49 808 q 181 971 117 935 q 339 1006 246 1007 q 460 989 400 1006 q 579 939 519 972 l 521 753 q 428 799 472 783 q 347 814 385 814 q 299 803 318 814 q 271 774 281 792 q 261 732 261 756 q 271 679 261 701 q 310 635 281 657 q 396 579 339 613 q 498 502 457 543 q 560 411 539 461 q 581 296 581 361 z "},"T":{"ha":615,"x_min":21,"x_max":593,"o":"m 413 0 l 204 0 l 204 808 l 21 808 l 21 992 l 593 992 l 593 808 l 413 808 l 413 0 z "},"U":{"ha":797,"x_min":81,"x_max":717,"o":"m 717 331 q 680 140 717 217 q 572 24 643 63 q 397 -14 501 -14 q 163 71 244 -14 q 81 326 81 156 l 81 992 l 292 992 l 292 335 q 319 210 292 247 q 399 172 346 172 q 460 188 436 172 q 495 240 483 204 q 507 336 507 276 l 507 992 l 717 992 l 717 331 z "},"V":{"ha":743,"x_min":0,"x_max":743,"o":"m 743 992 l 493 0 l 247 0 l 0 992 l 221 992 l 332 465 q 347 389 339 433 q 361 301 354 344 q 371 226 368 257 q 381 300 375 257 q 396 388 388 343 q 411 464 404 432 l 522 992 l 743 992 z "},"W":{"ha":1099,"x_min":1,"x_max":1097,"o":"m 1097 992 l 906 0 l 664 0 l 583 425 q 573 484 578 454 q 564 546 568 514 q 556 612 560 578 q 549 681 551 646 q 543 622 547 654 q 535 556 539 590 q 526 489 531 522 q 515 426 521 456 l 435 0 l 194 0 l 1 992 l 207 992 l 289 522 q 298 460 293 494 q 308 390 303 426 q 318 316 314 353 q 325 246 322 279 q 335 320 329 282 q 346 395 340 358 q 358 464 351 432 q 368 519 364 496 l 463 992 l 636 992 l 724 521 q 735 460 729 494 q 747 390 742 426 q 756 317 751 353 q 765 246 761 281 q 775 333 769 288 q 788 428 781 379 q 803 522 796 478 l 886 992 l 1097 992 z "},"X":{"ha":688,"x_min":0,"x_max":688,"o":"m 688 0 l 460 0 l 343 311 l 221 0 l 0 0 l 222 500 l 15 992 l 235 992 l 338 696 l 438 992 l 660 992 l 458 506 l 688 0 z "},"Y":{"ha":692,"x_min":0,"x_max":692,"o":"m 347 608 l 474 992 l 692 992 l 451 382 l 451 0 l 240 0 l 240 375 l 0 992 l 219 992 l 347 608 z "},"Z":{"ha":622,"x_min":31,"x_max":593,"o":"m 593 0 l 31 0 l 31 150 l 357 811 l 38 811 l 38 992 l 585 992 l 585 842 l 260 182 l 593 182 l 593 0 z "},"[":{"ha":424,"x_min":65,"x_max":396,"o":"m 396 -231 l 65 -231 l 65 1015 l 396 1015 l 396 860 l 253 860 l 253 -75 l 396 -75 l 396 -231 z "},"\\":{"ha":575,"x_min":7,"x_max":567,"o":"m 185 1003 l 567 -11 l 389 -11 l 7 1003 l 185 1003 z "},"]":{"ha":424,"x_min":29,"x_max":357,"o":"m 29 -75 l 171 -75 l 171 860 l 29 860 l 29 1015 l 357 1015 l 357 -231 l 29 -231 l 29 -75 z "},"^":{"ha":722,"x_min":11,"x_max":711,"o":"m 11 363 l 308 992 l 413 992 l 711 363 l 528 363 l 361 721 l 194 363 l 11 363 z "},"_":{"ha":676,"x_min":-3,"x_max":679,"o":"m 679 -246 l -3 -246 l -3 -96 l 679 -96 l 679 -246 z "},"`":{"ha":450,"x_min":56,"x_max":394,"o":"m 283 1064 q 317 996 296 1036 q 359 919 338 956 q 394 860 381 882 l 394 842 l 249 842 q 205 885 232 858 q 149 944 178 913 q 94 1003 119 975 q 56 1051 69 1032 l 56 1064 l 283 1064 z "},"a":{"ha":664,"x_min":38,"x_max":592,"o":"m 354 778 q 530 709 468 778 q 592 503 592 640 l 592 0 l 444 0 l 413 101 l 408 101 q 358 37 385 63 q 297 -1 331 11 q 217 -14 263 -14 q 113 21 153 -14 q 56 111 74 56 q 38 229 38 167 q 103 410 38 350 q 293 476 169 471 l 390 481 l 390 506 q 372 589 390 561 q 311 617 353 617 q 240 603 279 617 q 151 561 200 590 l 97 711 q 217 760 151 743 q 354 778 282 778 m 343 346 q 265 316 292 343 q 239 238 239 289 q 255 169 239 192 q 301 147 271 147 q 365 183 340 147 q 390 279 390 219 l 390 349 l 343 346 z "},"b":{"ha":710,"x_min":74,"x_max":663,"o":"m 275 803 q 274 747 275 781 q 269 665 272 714 l 276 665 q 349 750 307 724 q 442 776 390 776 q 603 673 544 776 q 663 383 663 569 q 635 172 663 261 q 559 34 608 82 q 438 -14 510 -14 q 350 6 386 -14 q 276 79 314 25 l 265 79 l 236 0 l 74 0 l 74 1056 l 275 1056 l 275 803 m 371 604 q 315 581 336 604 q 285 515 294 558 q 275 407 275 471 l 275 365 q 298 206 275 256 q 372 156 321 156 q 436 212 414 156 q 458 386 458 268 q 437 549 458 494 q 371 604 415 604 z "},"c":{"ha":576,"x_min":47,"x_max":544,"o":"m 343 -14 q 178 28 244 -14 q 80 158 113 71 q 47 378 47 244 q 79 582 47 492 q 177 725 111 672 q 346 778 243 778 q 455 764 407 778 q 544 724 503 750 l 490 563 q 426 594 458 585 q 361 604 394 604 q 302 578 326 604 q 265 503 278 553 q 251 378 251 453 q 265 256 251 306 q 303 183 278 207 q 365 158 328 158 q 447 174 407 158 q 528 219 488 190 l 528 49 q 442 1 489 17 q 343 -14 394 -14 z "},"d":{"ha":710,"x_min":47,"x_max":636,"o":"m 275 -14 q 106 92 165 -14 q 47 383 47 199 q 106 673 47 568 q 268 778 165 778 q 334 766 304 778 q 389 729 364 754 q 435 665 414 704 l 442 665 q 437 747 439 714 q 435 803 435 781 l 435 1056 l 636 1056 l 636 0 l 475 0 l 447 79 l 435 79 q 390 26 413 47 q 340 -4 367 6 q 275 -14 313 -14 m 338 154 q 411 203 388 154 q 435 363 435 253 l 435 406 q 412 556 435 508 q 338 604 389 604 q 273 549 294 604 q 251 385 251 493 q 274 211 251 268 q 338 154 296 154 z "},"e":{"ha":651,"x_min":47,"x_max":610,"o":"m 333 776 q 483 735 421 776 q 578 616 546 693 q 610 429 610 539 l 610 321 l 244 321 q 280 190 246 232 q 383 149 314 149 q 478 162 433 149 q 572 206 522 175 l 572 40 q 471 -1 525 13 q 354 -14 417 -14 q 179 33 247 -14 q 79 167 111 79 q 47 378 47 254 q 79 594 47 506 q 175 730 111 683 q 333 776 239 776 m 338 619 q 272 584 297 619 q 246 464 247 549 l 422 464 q 412 550 422 515 q 383 602 401 585 q 338 619 365 619 z "},"f":{"ha":432,"x_min":11,"x_max":460,"o":"m 421 597 l 297 597 l 297 0 l 97 0 l 97 597 l 11 597 l 11 706 l 97 763 l 97 781 q 118 942 97 879 q 185 1033 139 1004 q 303 1063 231 1063 q 379 1055 344 1063 q 460 1029 414 1047 l 419 879 q 383 890 401 886 q 347 893 365 893 q 309 871 321 893 q 297 796 297 849 l 297 764 l 421 764 l 421 597 z "},"g":{"ha":710,"x_min":47,"x_max":636,"o":"m 275 778 q 366 753 329 778 q 435 667 403 729 l 446 667 l 463 764 l 636 764 l 636 53 q 601 -158 636 -72 q 491 -289 565 -244 q 297 -333 417 -333 q 181 -319 233 -333 q 82 -278 129 -306 l 82 -103 q 191 -148 140 -135 q 292 -161 242 -161 q 396 -129 357 -161 q 435 -19 435 -97 l 435 -8 q 437 46 435 15 q 442 100 439 76 l 435 100 q 365 13 404 40 q 268 -14 326 -14 q 106 90 165 -14 q 47 376 47 193 q 108 672 47 565 q 275 778 168 778 m 336 604 q 290 579 310 604 q 261 503 271 554 q 251 374 251 451 q 274 213 251 265 q 339 160 296 160 q 382 172 364 160 q 412 207 400 183 q 429 267 424 231 q 435 353 435 303 l 435 392 q 424 514 435 467 q 393 583 414 561 q 336 604 372 604 z "},"h":{"ha":714,"x_min":74,"x_max":642,"o":"m 275 840 q 272 753 275 797 q 260 668 268 708 l 271 668 q 310 728 286 704 q 365 765 333 753 q 436 778 397 778 q 547 745 501 778 q 617 651 593 713 q 642 500 642 590 l 642 0 l 440 0 l 440 440 q 424 559 440 521 q 374 597 408 597 q 313 572 333 597 q 283 494 292 547 q 275 358 275 442 l 275 0 l 74 0 l 74 1056 l 275 1056 l 275 840 z "},"i":{"ha":353,"x_min":68,"x_max":285,"o":"m 276 764 l 276 0 l 75 0 l 75 764 l 276 764 m 176 1067 q 258 1039 232 1067 q 285 957 285 1011 q 257 876 285 903 q 176 849 229 849 q 95 876 122 849 q 68 957 68 903 q 94 1040 68 1013 q 176 1067 119 1067 z "},"j":{"ha":353,"x_min":-46,"x_max":285,"o":"m 61 -333 q 8 -330 35 -333 q -46 -318 -19 -326 l -46 -146 q -15 -155 -29 -151 q 14 -158 0 -158 q 60 -133 46 -158 q 75 -60 75 -108 l 75 764 l 276 764 l 276 -74 q 251 -220 276 -162 q 177 -305 225 -278 q 61 -333 129 -332 m 68 957 q 94 1040 68 1013 q 176 1067 119 1067 q 258 1039 232 1067 q 285 957 285 1011 q 257 876 285 903 q 176 849 229 849 q 95 876 122 849 q 68 957 68 903 z "},"k":{"ha":688,"x_min":74,"x_max":693,"o":"m 275 614 q 274 516 275 565 q 267 419 272 467 l 271 419 q 290 459 281 440 q 308 495 299 478 q 326 526 318 513 l 467 764 l 683 764 l 482 446 l 693 0 l 472 0 l 343 297 l 275 235 l 275 0 l 74 0 l 74 1056 l 275 1056 l 275 614 z "},"l":{"ha":350,"x_min":74,"x_max":275,"o":"m 275 0 l 74 0 l 74 1056 l 275 1056 l 275 0 z "},"m":{"ha":1064,"x_min":74,"x_max":993,"o":"m 794 778 q 943 709 893 778 q 993 500 993 640 l 993 0 l 792 0 l 792 438 q 775 559 792 519 q 722 599 758 599 q 653 544 672 599 q 635 376 635 490 l 635 0 l 432 0 l 432 439 q 425 528 432 493 q 403 581 418 564 q 365 599 389 599 q 311 572 331 599 q 283 492 292 546 q 275 354 275 438 l 275 0 l 74 0 l 74 764 l 232 764 l 254 668 l 267 668 q 307 728 282 704 q 368 765 332 753 q 447 778 404 778 q 553 748 514 778 q 610 672 592 718 l 624 672 q 692 751 650 724 q 794 778 733 778 z "},"n":{"ha":714,"x_min":74,"x_max":642,"o":"m 436 778 q 588 706 533 778 q 642 501 642 635 l 642 0 l 440 0 l 440 440 q 426 558 440 518 q 368 599 411 599 q 295 545 315 599 q 275 358 275 492 l 275 0 l 74 0 l 74 764 l 232 764 l 254 668 l 267 668 q 308 728 283 704 q 365 765 333 753 q 436 778 397 778 z "},"o":{"ha":696,"x_min":47,"x_max":647,"o":"m 647 383 q 631 235 647 307 q 581 108 615 164 q 488 19 546 51 q 347 -14 431 -14 q 213 18 269 -14 q 119 106 156 50 q 65 234 83 163 q 47 383 47 306 q 78 586 47 497 q 176 726 110 675 q 349 778 243 778 q 507 732 440 778 q 610 598 574 686 q 647 383 647 510 m 251 381 q 262 256 251 307 q 294 181 272 206 q 347 156 315 156 q 403 181 383 156 q 433 257 424 206 q 443 383 443 308 q 433 510 443 460 q 403 584 424 560 q 349 608 383 608 q 274 553 297 608 q 251 381 251 497 z "},"p":{"ha":710,"x_min":74,"x_max":663,"o":"m 438 778 q 603 673 544 778 q 663 379 663 568 q 635 169 663 257 q 560 33 608 81 q 443 -14 511 -14 q 378 -1 408 -14 q 322 36 347 11 q 276 100 296 61 l 269 100 q 274 18 272 53 q 275 -37 275 -17 l 275 -333 l 74 -333 l 74 764 l 236 764 l 265 664 l 276 664 q 324 735 300 710 q 376 769 347 760 q 438 778 404 778 m 372 608 q 317 588 338 608 q 285 520 296 567 q 275 399 275 474 l 275 358 q 285 246 275 290 q 317 181 296 201 q 371 160 338 160 q 421 184 401 160 q 449 257 440 208 q 458 378 458 306 q 437 551 458 494 q 372 608 415 608 z "},"q":{"ha":710,"x_min":47,"x_max":636,"o":"m 435 -43 q 437 15 435 -21 q 442 100 439 50 l 435 100 q 363 13 404 40 q 268 -14 321 -14 q 106 90 165 -14 q 47 376 47 193 q 74 592 47 503 q 152 730 101 682 q 275 778 203 778 q 366 753 329 778 q 435 667 403 729 l 446 667 l 463 764 l 636 764 l 636 -333 l 435 -333 l 435 -43 m 339 160 q 393 181 372 160 q 424 244 414 201 q 435 353 435 286 l 435 392 q 412 554 435 504 q 338 604 389 604 q 274 547 296 604 q 251 374 251 490 q 274 213 251 265 q 339 160 296 160 z "},"r":{"ha":500,"x_min":75,"x_max":489,"o":"m 426 778 q 455 776 440 778 q 489 768 469 774 l 471 553 q 442 560 457 558 q 406 563 426 563 q 349 551 372 563 q 308 516 325 539 q 284 460 292 493 q 276 388 276 428 l 276 0 l 75 0 l 75 764 l 229 764 l 258 640 l 268 640 q 306 706 283 674 q 358 758 328 738 q 426 778 389 778 z "},"s":{"ha":533,"x_min":38,"x_max":499,"o":"m 499 229 q 468 95 499 150 q 381 13 438 40 q 246 -14 325 -14 q 138 -3 190 -14 q 39 29 86 7 l 39 221 q 126 178 76 196 q 226 160 176 160 q 279 174 261 160 q 297 218 297 188 q 290 248 297 233 q 259 281 283 263 q 183 324 235 299 q 103 382 136 349 q 54 459 71 415 q 38 557 38 503 q 101 719 38 660 q 278 778 164 778 q 387 762 336 778 q 489 715 438 746 l 436 561 q 365 600 403 585 q 290 615 328 615 q 246 603 261 615 q 231 567 231 590 q 238 538 231 550 q 269 510 246 526 q 342 464 293 493 q 424 406 389 438 q 478 331 458 374 q 499 229 499 288 z "},"t":{"ha":464,"x_min":13,"x_max":440,"o":"m 349 161 q 392 167 368 161 q 440 185 415 174 l 440 25 q 368 -4 406 6 q 286 -14 331 -14 q 173 14 217 -14 q 109 98 129 42 q 89 239 89 154 l 89 597 l 13 597 l 13 706 l 106 757 l 153 921 l 290 921 l 290 764 l 431 764 l 431 597 l 290 597 l 290 243 q 304 182 290 203 q 349 161 318 161 z "},"u":{"ha":714,"x_min":72,"x_max":640,"o":"m 640 764 l 640 0 l 483 0 l 460 96 l 449 96 q 407 35 432 60 q 351 -1 382 11 q 279 -14 319 -14 q 166 19 213 -14 q 96 115 119 53 q 72 265 72 178 l 72 764 l 274 764 l 274 329 q 289 207 274 249 q 340 165 304 165 q 404 191 383 165 q 432 265 425 217 q 439 381 439 314 l 439 764 l 640 764 z "},"v":{"ha":647,"x_min":4,"x_max":643,"o":"m 215 0 l 4 764 l 213 764 l 294 375 q 306 322 301 349 q 313 269 310 296 q 319 214 317 243 l 325 214 q 329 261 326 236 q 337 313 332 286 q 347 368 342 340 l 435 764 l 643 764 l 432 0 l 215 0 z "},"w":{"ha":985,"x_min":8,"x_max":975,"o":"m 519 363 q 512 413 515 386 q 505 467 508 440 q 499 521 501 494 q 493 571 496 547 l 489 571 q 481 516 485 544 q 475 460 478 488 q 469 409 472 433 q 461 364 465 385 l 396 0 l 168 0 l 8 764 l 208 764 l 256 496 q 269 414 263 458 q 279 324 275 369 q 286 235 283 279 l 290 235 q 296 290 293 263 q 303 349 299 318 q 313 413 307 381 q 325 482 318 446 l 376 764 l 608 764 l 658 478 q 672 390 667 433 q 683 307 678 346 q 692 235 689 268 l 697 235 q 703 314 700 272 q 713 397 707 356 q 725 479 718 439 l 778 764 l 975 764 l 814 0 l 582 0 l 519 363 z "},"x":{"ha":629,"x_min":10,"x_max":621,"o":"m 186 390 l 15 764 l 233 764 l 315 549 l 396 764 l 613 764 l 443 389 l 621 0 l 403 0 l 311 232 l 222 0 l 10 0 l 186 390 z "},"y":{"ha":647,"x_min":4,"x_max":643,"o":"m 4 764 l 214 764 l 299 411 q 310 363 306 388 q 319 316 315 339 q 324 274 324 293 l 329 274 q 339 333 332 300 q 356 410 346 365 l 435 764 l 643 764 l 414 -62 q 351 -220 388 -160 q 266 -307 315 -281 q 151 -333 217 -333 q 105 -331 128 -333 q 60 -322 82 -328 l 60 -146 q 88 -152 74 -150 q 115 -154 101 -154 q 160 -144 143 -154 q 190 -105 176 -133 q 219 -21 204 -76 l 228 10 l 4 764 z "},"z":{"ha":525,"x_min":25,"x_max":500,"o":"m 500 0 l 25 0 l 25 124 l 264 594 l 39 594 l 39 764 l 489 764 l 489 629 l 260 168 l 500 168 l 500 0 z "},"{":{"ha":508,"x_min":26,"x_max":475,"o":"m 475 -231 q 294 -211 361 -231 q 197 -142 226 -192 q 167 -1 167 -92 l 167 186 q 152 251 167 224 q 106 292 138 278 q 26 306 75 306 l 26 465 q 106 478 75 465 q 152 519 138 492 q 167 585 167 546 l 167 775 q 192 908 167 858 q 285 980 218 957 q 475 1003 353 1003 l 475 843 q 411 835 438 842 q 371 812 385 829 q 357 758 357 794 l 357 563 q 328 443 357 485 q 232 390 299 401 l 232 382 q 328 328 300 369 q 357 214 357 288 l 357 15 q 368 -33 357 -14 q 405 -60 379 -51 q 475 -71 431 -69 l 475 -231 z "},"|":{"ha":578,"x_min":200,"x_max":376,"o":"m 200 1068 l 376 1068 l 376 -321 l 200 -321 l 200 1068 z "},"}":{"ha":508,"x_min":33,"x_max":482,"o":"m 33 -71 q 103 -60 78 -68 q 140 -34 129 -53 q 151 15 151 -15 l 151 214 q 180 328 151 288 q 275 382 208 369 l 275 390 q 180 444 208 401 q 151 563 151 486 l 151 758 q 135 812 151 794 q 93 835 119 829 q 33 843 67 842 l 33 1003 q 215 983 147 1003 q 311 913 282 963 q 340 775 340 864 l 340 585 q 355 521 340 547 q 401 480 369 494 q 482 465 432 465 l 482 306 q 402 292 433 306 q 356 251 371 278 q 340 186 340 225 l 340 -1 q 315 -134 340 -83 q 223 -208 289 -185 q 33 -231 157 -231 l 33 -71 z "},"~":{"ha":674,"x_min":39,"x_max":635,"o":"m 315 410 q 243 438 278 429 q 178 447 208 447 q 110 426 146 447 q 39 365 75 406 l 39 539 q 109 594 69 575 q 194 613 149 613 q 278 601 238 613 q 358 569 318 589 q 431 542 397 551 q 497 532 465 532 q 565 553 528 532 q 635 614 603 575 l 635 440 q 564 386 603 404 q 479 368 525 368 q 397 379 436 368 q 315 410 358 390 z "}," ":{"ha":247,"x_min":0,"x_max":0,"o":""},"¡":{"ha":365,"x_min":65,"x_max":301,"o":"m 97 424 l 269 424 l 300 -253 l 65 -253 l 97 424 m 301 654 q 271 565 301 596 q 183 533 240 533 q 99 565 129 533 q 69 654 69 596 q 99 743 69 711 q 183 775 128 775 q 269 744 238 775 q 301 654 301 713 z "},"¢":{"ha":668,"x_min":81,"x_max":576,"o":"m 421 899 q 502 882 460 894 q 576 847 544 869 l 524 686 q 459 717 493 707 q 399 728 425 728 q 336 706 361 728 q 299 635 311 685 q 286 503 286 585 q 297 374 286 422 q 332 304 308 326 q 394 282 356 282 q 478 298 433 282 q 560 343 522 314 l 560 172 q 495 136 532 151 q 421 115 458 121 l 421 -14 l 311 -14 l 311 115 q 181 173 232 124 q 105 306 129 222 q 81 503 81 390 q 106 697 81 613 q 183 833 132 781 q 311 894 235 885 l 311 1006 l 421 1006 l 421 899 z "},"£":{"ha":668,"x_min":60,"x_max":619,"o":"m 401 1006 q 506 992 456 1006 q 606 949 556 978 l 551 783 q 481 813 513 804 q 419 822 449 822 q 370 797 386 822 q 354 715 354 771 l 354 585 l 531 585 l 531 432 l 354 432 l 354 343 q 344 278 354 308 q 315 224 335 249 q 264 182 294 200 l 619 182 l 619 0 l 63 0 l 63 174 q 113 216 93 194 q 141 267 132 238 q 150 342 150 297 l 150 432 l 60 432 l 60 585 l 150 585 l 150 715 q 179 875 150 810 q 265 973 208 940 q 401 1006 322 1006 z "},"¤":{"ha":757,"x_min":57,"x_max":699,"o":"m 106 490 q 116 561 106 526 q 147 629 126 596 l 57 718 l 150 810 l 236 722 q 303 752 268 743 q 378 761 339 761 q 450 751 415 761 q 517 721 485 742 l 606 810 l 699 721 l 610 631 q 639 565 629 600 q 649 490 649 529 q 639 415 649 450 q 610 349 629 379 l 696 263 l 606 171 l 517 258 q 449 231 485 240 q 378 221 414 221 q 301 231 336 221 q 235 258 265 240 l 150 172 l 58 264 l 147 350 q 116 417 126 382 q 106 490 106 451 m 236 490 q 255 419 236 451 q 306 368 274 388 q 378 349 339 349 q 451 368 418 349 q 503 419 483 388 q 522 490 522 451 q 502 562 522 529 q 449 614 482 594 q 378 633 417 633 q 307 614 339 633 q 256 563 275 594 q 236 490 236 531 z "},"¥":{"ha":668,"x_min":11,"x_max":657,"o":"m 335 625 l 439 992 l 657 992 l 468 500 l 604 500 l 604 369 l 436 369 l 436 281 l 604 281 l 604 151 l 436 151 l 436 0 l 232 0 l 232 151 l 64 151 l 64 281 l 232 281 l 232 369 l 64 369 l 64 500 l 196 500 l 11 992 l 228 992 l 335 625 z "},"¦":{"ha":578,"x_min":200,"x_max":376,"o":"m 200 1054 l 376 1054 l 376 504 l 200 504 l 200 1054 m 200 228 l 376 228 l 376 -322 l 200 -322 l 200 228 z "},"§":{"ha":586,"x_min":54,"x_max":529,"o":"m 54 538 q 81 629 54 588 q 154 700 107 671 q 90 774 111 733 q 68 864 68 815 q 134 1006 68 954 q 304 1057 200 1057 q 412 1043 360 1057 q 515 1001 464 1029 l 464 863 q 383 903 422 889 q 313 918 344 918 q 258 903 276 918 q 240 861 240 889 q 253 825 240 840 q 288 796 265 810 q 344 765 311 782 q 450 702 410 733 q 510 633 490 671 q 529 542 529 594 q 508 442 529 485 q 442 365 486 400 q 499 293 481 333 q 518 204 518 253 q 450 47 518 106 q 264 -11 382 -11 q 153 3 204 -11 q 60 46 101 18 l 60 200 q 124 164 88 181 q 196 138 160 147 q 257 128 232 128 q 323 146 300 128 q 346 196 346 164 q 338 233 346 218 q 307 263 329 247 q 239 301 285 278 q 130 370 171 338 q 72 443 89 403 q 54 538 54 483 m 213 563 q 222 522 213 540 q 250 488 231 504 q 300 451 269 471 l 339 429 q 363 464 356 444 q 371 507 371 483 q 360 556 371 535 q 324 598 349 578 q 256 639 299 618 q 223 608 233 628 q 213 563 213 588 z "},"¨":{"ha":657,"x_min":107,"x_max":550,"o":"m 107 951 q 132 1026 107 1000 q 197 1051 157 1051 q 265 1025 240 1051 q 290 951 290 999 q 265 881 290 907 q 197 854 240 854 q 132 880 157 854 q 107 951 107 906 m 367 951 q 392 1026 367 1000 q 458 1051 417 1051 q 526 1025 501 1051 q 550 951 550 999 q 526 881 550 907 q 457 854 501 854 q 391 881 415 854 q 367 951 367 907 z "},"©":{"ha":1146,"x_min":60,"x_max":1086,"o":"m 588 179 q 369 263 447 179 q 292 496 292 346 q 326 665 292 594 q 425 774 360 736 q 583 811 490 811 q 690 798 638 811 q 792 761 742 785 l 735 646 q 665 674 700 665 q 597 682 629 682 q 489 635 528 682 q 450 490 450 589 q 487 352 450 396 q 600 308 524 308 q 683 319 640 308 q 765 351 726 331 l 765 221 q 679 190 724 200 q 588 179 635 179 m 571 -14 q 360 26 454 -14 q 199 135 265 65 q 96 297 132 204 q 60 496 60 389 q 99 702 60 608 q 208 864 138 796 q 371 969 278 932 q 574 1006 464 1006 q 778 967 685 1006 q 941 860 872 929 q 1048 697 1010 790 q 1086 493 1086 603 q 1048 289 1086 382 q 940 128 1010 196 q 777 23 871 60 q 571 -14 683 -14 m 576 83 q 739 114 665 83 q 865 200 813 144 q 946 331 917 256 q 975 494 975 406 q 944 664 975 588 q 859 795 914 740 q 731 879 804 850 q 571 908 657 908 q 407 877 481 908 q 281 789 333 846 q 199 657 228 732 q 171 492 171 582 q 201 324 171 400 q 288 194 232 249 q 417 112 343 140 q 576 83 490 83 z "},"ª":{"ha":471,"x_min":29,"x_max":415,"o":"m 249 1003 q 372 955 328 1003 q 415 815 415 907 l 415 510 l 317 510 l 292 588 q 240 525 274 549 q 157 501 207 501 q 87 524 115 501 q 44 582 58 546 q 29 658 29 618 q 55 749 29 717 q 125 796 81 782 q 226 814 169 810 l 275 817 l 275 828 q 263 874 275 858 q 218 889 250 889 q 157 878 186 889 q 97 850 128 867 l 57 953 q 147 990 101 978 q 249 1003 193 1003 m 236 728 q 188 709 204 724 q 171 665 171 694 q 183 627 171 640 q 215 614 194 614 q 259 642 243 614 q 275 713 275 669 l 275 732 l 236 728 z "},"«":{"ha":749,"x_min":35,"x_max":708,"o":"m 35 394 l 247 706 l 392 629 l 250 385 l 392 142 l 247 64 l 35 375 l 35 394 m 351 394 l 564 706 l 708 629 l 568 385 l 708 142 l 564 64 l 351 375 l 351 394 z "},"¬":{"ha":674,"x_min":46,"x_max":619,"o":"m 619 572 l 619 163 l 453 163 l 453 408 l 46 408 l 46 572 l 619 572 z "},"­":{"ha":436,"x_min":39,"x_max":397,"o":"m 39 278 l 39 468 l 397 468 l 397 278 l 39 278 z "},"®":{"ha":1146,"x_min":60,"x_max":1086,"o":"m 356 210 l 356 804 l 553 804 q 733 758 672 804 q 794 622 794 713 q 772 523 794 564 q 697 458 749 482 l 824 210 l 656 210 l 560 432 l 511 432 l 511 210 l 356 210 m 543 542 q 610 558 586 542 q 635 617 635 575 q 615 667 635 653 q 544 682 594 682 l 511 682 l 511 542 l 543 542 m 571 -14 q 360 26 454 -14 q 199 135 265 65 q 96 297 132 204 q 60 496 60 389 q 99 702 60 608 q 208 864 138 796 q 371 969 278 932 q 574 1006 464 1006 q 778 967 685 1006 q 941 860 872 929 q 1048 697 1010 790 q 1086 493 1086 603 q 1048 289 1086 382 q 940 128 1010 196 q 777 23 871 60 q 571 -14 683 -14 m 576 83 q 739 114 665 83 q 865 200 813 144 q 946 331 917 256 q 975 494 975 406 q 944 664 975 588 q 859 795 914 740 q 731 879 804 850 q 571 908 657 908 q 407 877 481 908 q 281 789 333 846 q 199 657 228 732 q 171 492 171 582 q 201 324 171 400 q 288 194 232 249 q 417 112 343 140 q 576 83 490 83 z "},"¯":{"ha":671,"x_min":-3,"x_max":674,"o":"m 674 1056 l -3 1056 l -3 1206 l 674 1206 l 674 1056 z "},"°":{"ha":501,"x_min":35,"x_max":465,"o":"m 250 589 q 140 615 189 589 q 63 689 92 642 q 35 797 35 736 q 63 906 35 860 q 140 979 92 953 q 250 1006 189 1006 q 360 979 311 1006 q 437 906 408 953 q 465 797 465 860 q 437 689 465 736 q 360 615 408 642 q 250 589 311 589 m 250 707 q 315 731 292 707 q 339 797 339 756 q 315 863 339 839 q 250 888 292 888 q 184 863 207 888 q 161 797 161 838 q 185 731 161 756 q 250 707 208 707 z "},"±":{"ha":674,"x_min":46,"x_max":628,"o":"m 46 0 l 46 164 l 628 164 l 628 0 l 46 0 m 421 643 l 628 643 l 628 479 l 421 479 l 421 228 l 254 228 l 254 481 l 46 481 l 46 643 l 254 643 l 254 899 l 421 899 l 421 643 z "},"²":{"ha":474,"x_min":35,"x_max":421,"o":"m 421 576 l 42 576 l 42 704 l 167 850 q 219 918 200 890 q 247 967 239 946 q 256 1010 256 988 q 242 1047 256 1033 q 201 1061 228 1061 q 151 1047 175 1061 q 103 1003 126 1032 l 35 1099 q 110 1160 60 1135 q 222 1186 161 1186 q 358 1141 311 1186 q 404 1026 404 1096 q 388 935 404 976 q 331 845 371 893 q 219 724 290 797 l 204 704 l 421 704 l 421 576 z "},"³":{"ha":474,"x_min":36,"x_max":421,"o":"m 221 1185 q 354 1146 303 1185 q 406 1038 406 1107 q 382 948 406 985 q 314 890 358 911 l 314 885 q 393 833 365 869 q 421 738 421 796 q 360 611 421 657 q 207 565 300 565 q 118 576 158 565 q 44 611 78 588 l 44 750 q 117 710 76 724 q 206 697 157 697 q 260 712 242 697 q 278 753 278 726 q 256 805 278 789 q 190 821 235 821 l 132 821 l 132 935 l 179 935 q 245 952 224 935 q 267 1001 267 969 q 253 1044 267 1028 q 207 1060 239 1060 q 153 1049 178 1060 q 99 1011 128 1038 l 36 1106 q 124 1165 78 1144 q 221 1185 171 1185 z "},"´":{"ha":450,"x_min":56,"x_max":394,"o":"m 394 1051 q 358 1006 381 1032 q 308 950 335 979 q 254 893 282 921 q 201 842 226 865 l 56 842 l 56 860 q 99 932 79 897 q 136 1000 119 967 q 167 1064 153 1033 l 394 1064 l 394 1051 z "},"µ":{"ha":714,"x_min":72,"x_max":640,"o":"m 640 764 l 640 0 l 483 0 l 460 97 l 451 97 q 424 38 440 63 q 388 -1 408 13 q 346 -14 368 -14 q 301 1 318 -14 q 272 46 285 15 l 268 46 q 272 0 271 25 q 273 -53 272 -25 q 274 -110 274 -81 l 274 -333 l 72 -333 l 72 764 l 274 764 l 274 326 q 289 206 274 247 q 340 165 304 165 q 404 197 383 165 q 432 282 425 228 q 439 404 439 336 l 439 764 l 640 764 z "},"¶":{"ha":701,"x_min":53,"x_max":622,"o":"m 622 -176 l 513 -176 l 513 953 l 431 953 l 431 -176 l 321 -176 l 321 379 q 293 370 308 374 q 258 367 278 367 q 143 404 189 367 q 75 517 97 442 q 53 707 53 593 q 76 900 53 822 q 150 1017 100 978 q 278 1056 200 1056 l 622 1056 l 622 -176 z "},"·":{"ha":365,"x_min":67,"x_max":300,"o":"m 67 489 q 97 578 67 547 q 185 610 128 610 q 270 578 240 610 q 300 489 300 547 q 269 399 300 431 q 185 368 239 368 q 99 399 131 368 q 67 489 67 431 z "},"¸":{"ha":215,"x_min":-36,"x_max":250,"o":"m 250 -178 q 205 -292 250 -250 q 75 -333 160 -333 q 15 -331 42 -333 q -36 -322 -12 -328 l -36 -207 q 3 -215 -15 -212 q 36 -218 21 -218 q 80 -206 65 -218 q 94 -172 94 -194 q 69 -132 94 -147 q 0 -114 44 -117 l 47 0 l 146 0 l 124 -51 q 192 -75 164 -58 q 235 -118 219 -92 q 250 -178 250 -144 z "},"¹":{"ha":474,"x_min":46,"x_max":360,"o":"m 360 1171 l 360 576 l 211 576 l 211 844 q 211 894 211 869 q 213 942 211 918 q 215 993 214 967 q 198 976 206 983 q 183 963 190 968 l 117 908 l 46 1006 l 240 1171 l 360 1171 z "},"º":{"ha":467,"x_min":32,"x_max":433,"o":"m 433 753 q 381 569 433 636 q 233 501 329 501 q 85 570 139 501 q 32 753 32 639 q 86 937 32 871 q 233 1003 140 1003 q 340 973 294 1003 q 409 888 385 943 q 433 753 433 832 m 175 751 q 189 653 175 686 q 233 621 203 621 q 279 653 265 621 q 293 751 293 686 q 278 853 293 819 q 233 886 264 886 q 190 853 204 886 q 175 751 175 819 z "},"»":{"ha":749,"x_min":40,"x_max":714,"o":"m 714 375 l 501 64 l 357 142 l 499 385 l 357 629 l 501 706 l 714 394 l 714 375 m 397 375 l 185 64 l 40 142 l 181 385 l 40 629 l 185 706 l 397 394 l 397 375 z "},"¼":{"ha":1142,"x_min":43,"x_max":1124,"o":"m 263 0 l 749 992 l 908 992 l 422 0 l 263 0 m 208 665 q 208 713 208 689 q 210 763 208 738 q 213 814 211 788 q 195 796 203 804 q 181 782 188 788 l 114 729 l 43 825 l 238 992 l 357 992 l 357 397 l 208 397 l 208 665 m 907 0 l 907 101 l 685 101 l 685 211 l 890 596 l 1051 596 l 1051 219 l 1124 219 l 1124 101 l 1051 101 l 1051 0 l 907 0 m 804 219 l 907 219 l 907 346 q 908 397 907 372 q 911 442 910 421 q 892 390 900 411 q 875 356 883 369 l 804 219 z "},"½":{"ha":1150,"x_min":43,"x_max":1097,"o":"m 240 0 l 726 992 l 886 992 l 400 0 l 240 0 m 208 665 q 208 701 208 683 q 209 737 208 718 q 210 774 210 756 q 213 814 211 793 q 195 796 203 804 q 181 782 188 788 l 114 729 l 43 825 l 238 992 l 357 992 l 357 397 l 208 397 l 208 665 m 718 0 l 718 128 l 843 268 q 899 335 879 308 q 926 383 918 361 q 935 428 935 406 q 919 468 935 453 q 878 483 904 483 q 827 469 851 483 q 779 425 803 456 l 711 521 q 787 583 736 557 q 899 610 838 610 q 1033 564 986 610 q 1081 450 1081 518 q 1067 361 1081 400 q 1029 291 1053 322 q 976 229 1006 260 l 881 126 l 1097 126 l 1097 0 l 718 0 z "},"¾":{"ha":1146,"x_min":36,"x_max":1128,"o":"m 261 0 l 746 992 l 907 992 l 421 0 l 261 0 m 207 386 q 118 397 158 386 q 44 431 78 408 l 44 569 q 117 531 76 544 q 206 517 157 517 q 260 531 242 517 q 278 572 278 546 q 256 625 278 608 q 190 642 235 642 l 132 642 l 132 756 l 179 756 q 245 773 224 756 q 267 821 267 790 q 253 864 267 847 q 207 881 239 881 q 153 869 178 881 q 99 831 128 857 l 36 926 q 124 985 78 965 q 221 1006 171 1006 q 354 966 303 1006 q 406 857 406 926 q 382 768 406 806 q 314 711 358 731 l 314 706 q 393 653 365 689 q 421 557 421 617 q 360 432 421 478 q 207 386 300 386 m 910 0 l 910 101 l 689 101 l 689 211 l 894 596 l 1056 596 l 1056 219 l 1128 219 l 1128 101 l 1056 101 l 1056 0 l 910 0 m 807 219 l 910 219 l 910 346 q 911 397 910 372 q 914 442 913 421 q 895 390 904 411 q 879 356 886 369 l 807 219 z "},"¿":{"ha":533,"x_min":21,"x_max":531,"o":"m 388 369 q 378 290 388 325 q 350 224 369 254 q 297 161 331 193 q 251 111 269 133 q 226 67 233 89 q 218 14 218 44 q 240 -46 218 -25 q 303 -67 261 -67 q 378 -49 339 -67 q 464 0 418 -32 l 531 -157 q 408 -224 469 -201 q 283 -246 346 -246 q 88 -181 156 -246 q 21 -4 21 -115 q 35 100 21 56 q 78 182 50 144 q 147 258 107 219 q 196 311 181 290 q 215 350 211 332 q 219 392 219 368 l 219 424 l 388 424 l 388 369 m 419 654 q 390 565 419 596 q 301 533 360 533 q 217 565 247 533 q 188 654 188 596 q 218 744 188 713 q 301 775 249 775 q 388 744 357 775 q 419 654 419 713 z "},"À":{"ha":761,"x_min":0,"x_max":761,"o":"m 536 0 l 490 218 l 272 218 l 228 0 l 0 0 l 240 992 l 517 992 l 761 0 l 536 0 m 410 644 q 399 713 404 679 q 390 776 394 746 q 382 832 386 806 q 375 777 379 807 q 365 715 371 747 q 353 647 360 682 l 304 400 l 458 400 l 410 644 m 411 1292 q 444 1224 424 1264 q 487 1147 465 1183 q 522 1088 508 1110 l 522 1069 l 376 1069 q 333 1113 360 1086 q 276 1172 306 1140 q 222 1231 247 1203 q 183 1279 197 1260 l 183 1292 l 411 1292 z "},"Á":{"ha":761,"x_min":0,"x_max":761,"o":"m 536 0 l 490 218 l 272 218 l 228 0 l 0 0 l 240 992 l 517 992 l 761 0 l 536 0 m 410 644 q 399 713 404 679 q 390 776 394 746 q 382 832 386 806 q 375 777 379 807 q 365 715 371 747 q 353 647 360 682 l 304 400 l 458 400 l 410 644 m 607 1279 q 570 1233 593 1260 q 521 1178 547 1207 q 467 1121 494 1149 q 414 1069 439 1093 l 268 1069 l 268 1088 q 312 1160 292 1125 q 349 1228 332 1194 q 379 1292 365 1261 l 607 1292 l 607 1279 z "},"Â":{"ha":761,"x_min":0,"x_max":761,"o":"m 536 0 l 490 218 l 272 218 l 228 0 l 0 0 l 240 992 l 517 992 l 761 0 l 536 0 m 410 644 q 399 713 404 679 q 390 776 394 746 q 382 832 386 806 q 375 777 379 807 q 365 715 371 747 q 353 647 360 682 l 304 400 l 458 400 l 410 644 m 474 1292 q 510 1228 490 1261 q 555 1159 531 1194 q 606 1088 579 1124 l 606 1069 l 483 1069 q 435 1115 461 1089 q 382 1176 410 1142 q 326 1114 351 1142 q 282 1069 301 1086 l 158 1069 l 158 1088 q 205 1152 179 1114 q 254 1228 231 1190 q 290 1292 278 1267 l 474 1292 z "},"Ã":{"ha":761,"x_min":0,"x_max":761,"o":"m 536 0 l 490 218 l 272 218 l 228 0 l 0 0 l 240 992 l 517 992 l 761 0 l 536 0 m 410 644 q 399 713 404 679 q 390 776 394 746 q 382 832 386 806 q 375 777 379 807 q 365 715 371 747 q 353 647 360 682 l 304 400 l 458 400 l 410 644 m 149 1068 q 154 1138 150 1100 q 171 1209 158 1175 q 208 1265 183 1243 q 271 1286 232 1286 q 324 1276 299 1286 q 374 1251 350 1265 q 422 1228 399 1238 q 467 1218 444 1218 q 494 1236 486 1218 q 508 1288 503 1254 l 615 1288 q 579 1125 615 1181 q 492 1069 543 1069 q 438 1079 465 1069 q 385 1103 410 1089 q 338 1127 360 1117 q 299 1138 315 1138 q 273 1122 286 1138 q 256 1068 260 1106 l 149 1068 z "},"Ä":{"ha":761,"x_min":0,"x_max":761,"o":"m 536 0 l 490 218 l 272 218 l 228 0 l 0 0 l 240 992 l 517 992 l 761 0 l 536 0 m 410 644 q 399 713 404 679 q 390 776 394 746 q 382 832 386 806 q 375 777 379 807 q 365 715 371 747 q 353 647 360 682 l 304 400 l 458 400 l 410 644 m 160 1179 q 185 1253 160 1228 q 250 1279 210 1279 q 318 1253 293 1279 q 343 1179 343 1226 q 318 1108 343 1135 q 250 1082 293 1082 q 185 1108 210 1082 q 160 1179 160 1133 m 419 1179 q 444 1253 419 1228 q 511 1279 469 1279 q 578 1253 554 1279 q 603 1179 603 1226 q 578 1108 603 1135 q 510 1082 554 1082 q 444 1108 468 1082 q 419 1179 419 1135 z "},"Å":{"ha":761,"x_min":0,"x_max":761,"o":"m 536 0 l 490 218 l 272 218 l 228 0 l 0 0 l 240 992 l 517 992 l 761 0 l 536 0 m 410 644 q 399 713 404 679 q 390 776 394 746 q 382 832 386 806 q 375 777 379 807 q 365 715 371 747 q 353 647 360 682 l 304 400 l 458 400 l 410 644 m 381 889 q 260 935 306 889 q 214 1053 214 982 q 260 1172 214 1126 q 381 1218 306 1218 q 501 1172 454 1218 q 547 1054 547 1125 q 501 937 547 985 q 381 889 456 889 m 381 994 q 424 1011 407 994 q 442 1054 442 1028 q 424 1097 442 1081 q 381 1114 407 1114 q 338 1097 356 1114 q 321 1054 321 1081 q 336 1011 321 1028 q 381 994 351 994 z "},"Æ":{"ha":993,"x_min":-6,"x_max":936,"o":"m 936 0 l 478 0 l 478 218 l 286 218 l 225 0 l -6 0 l 299 992 l 936 992 l 936 811 l 686 811 l 686 604 l 917 604 l 917 424 l 686 424 l 686 182 l 936 182 l 936 0 m 335 400 l 478 400 l 478 811 l 446 811 l 335 400 z "},"Ç":{"ha":686,"x_min":57,"x_max":653,"o":"m 436 824 q 367 800 397 824 q 317 732 338 776 q 287 627 297 688 q 276 493 276 567 q 297 315 276 388 q 354 206 317 243 q 447 169 392 169 q 536 186 493 169 q 622 226 579 203 l 622 38 q 525 -1 576 13 q 414 -14 474 -14 q 220 45 300 -14 q 99 217 140 104 q 57 494 57 331 q 82 700 57 607 q 153 862 107 793 q 266 968 199 931 q 419 1006 333 1006 q 540 990 482 1006 q 653 940 597 975 l 594 767 q 519 808 557 793 q 436 824 481 824 m 531 -178 q 485 -292 531 -250 q 356 -333 440 -333 q 295 -331 322 -333 q 244 -322 268 -328 l 244 -207 q 283 -215 265 -212 q 317 -218 301 -218 q 360 -206 346 -218 q 375 -172 375 -194 q 350 -132 375 -147 q 281 -114 325 -117 l 328 0 l 426 0 l 404 -51 q 472 -75 444 -58 q 515 -118 500 -92 q 531 -178 531 -144 z "},"È":{"ha":603,"x_min":86,"x_max":546,"o":"m 546 0 l 86 0 l 86 992 l 546 992 l 546 813 l 297 813 l 297 604 l 528 604 l 528 424 l 297 424 l 297 182 l 546 182 l 546 0 m 344 1292 q 378 1224 357 1264 q 420 1147 399 1183 q 456 1088 442 1110 l 456 1069 l 310 1069 q 266 1113 293 1086 q 210 1172 239 1140 q 156 1231 181 1203 q 117 1279 131 1260 l 117 1292 l 344 1292 z "},"É":{"ha":603,"x_min":86,"x_max":546,"o":"m 546 0 l 86 0 l 86 992 l 546 992 l 546 813 l 297 813 l 297 604 l 528 604 l 528 424 l 297 424 l 297 182 l 546 182 l 546 0 m 540 1279 q 503 1233 526 1260 q 454 1178 481 1207 q 400 1121 428 1149 q 347 1069 372 1093 l 201 1069 l 201 1088 q 245 1160 225 1125 q 282 1228 265 1194 q 313 1292 299 1261 l 540 1292 l 540 1279 z "},"Ê":{"ha":603,"x_min":86,"x_max":546,"o":"m 546 0 l 86 0 l 86 992 l 546 992 l 546 813 l 297 813 l 297 604 l 528 604 l 528 424 l 297 424 l 297 182 l 546 182 l 546 0 m 406 1292 q 442 1228 422 1261 q 487 1159 463 1194 q 538 1088 511 1124 l 538 1069 l 415 1069 q 367 1115 393 1089 q 314 1176 342 1142 q 258 1114 283 1142 q 214 1069 233 1086 l 90 1069 l 90 1088 q 137 1152 111 1114 q 186 1228 163 1190 q 222 1292 210 1267 l 406 1292 z "},"Ë":{"ha":603,"x_min":86,"x_max":546,"o":"m 546 0 l 86 0 l 86 992 l 546 992 l 546 813 l 297 813 l 297 604 l 528 604 l 528 424 l 297 424 l 297 182 l 546 182 l 546 0 m 92 1179 q 117 1253 92 1228 q 182 1279 142 1279 q 250 1253 225 1279 q 275 1179 275 1226 q 250 1108 275 1135 q 182 1082 225 1082 q 117 1108 142 1082 q 92 1179 92 1133 m 351 1179 q 376 1253 351 1228 q 443 1279 401 1279 q 510 1253 486 1279 q 535 1179 535 1226 q 510 1108 535 1135 q 442 1082 486 1082 q 376 1108 400 1082 q 351 1179 351 1135 z "},"Ì":{"ha":471,"x_min":38,"x_max":433,"o":"m 433 0 l 38 0 l 38 114 l 131 157 l 131 835 l 38 878 l 38 992 l 433 992 l 433 878 l 342 835 l 342 157 l 433 114 l 433 0 m 265 1292 q 299 1224 278 1264 q 341 1147 319 1183 q 376 1088 363 1110 l 376 1069 l 231 1069 q 187 1113 214 1086 q 131 1172 160 1140 q 76 1231 101 1203 q 38 1279 51 1260 l 38 1292 l 265 1292 z "},"Í":{"ha":471,"x_min":38,"x_max":463,"o":"m 433 0 l 38 0 l 38 114 l 131 157 l 131 835 l 38 878 l 38 992 l 433 992 l 433 878 l 342 835 l 342 157 l 433 114 l 433 0 m 461 1279 q 424 1233 447 1260 q 375 1178 401 1207 q 321 1121 349 1149 q 268 1069 293 1093 l 122 1069 l 122 1088 q 166 1160 146 1125 q 203 1228 186 1194 q 233 1292 219 1261 l 461 1292 l 461 1279 z "},"Î":{"ha":471,"x_min":13,"x_max":458,"o":"m 433 0 l 38 0 l 38 114 l 131 157 l 131 835 l 38 878 l 38 992 l 433 992 l 433 878 l 342 835 l 342 157 l 433 114 l 433 0 m 328 1292 q 365 1228 344 1261 q 409 1159 385 1194 q 460 1088 433 1124 l 460 1069 l 338 1069 q 290 1115 315 1089 q 236 1176 264 1142 q 181 1114 206 1142 q 136 1069 156 1086 l 13 1069 l 13 1088 q 59 1152 33 1114 q 108 1228 85 1190 q 144 1292 132 1267 l 328 1292 z "},"Ï":{"ha":471,"x_min":14,"x_max":457,"o":"m 433 0 l 38 0 l 38 114 l 131 157 l 131 835 l 38 878 l 38 992 l 433 992 l 433 878 l 342 835 l 342 157 l 433 114 l 433 0 m 13 1179 q 38 1253 13 1228 q 103 1279 63 1279 q 171 1253 146 1279 q 196 1179 196 1226 q 171 1108 196 1135 q 103 1082 146 1082 q 38 1108 63 1082 q 13 1179 13 1133 m 272 1179 q 297 1253 272 1228 q 364 1279 322 1279 q 431 1253 407 1279 q 456 1179 456 1226 q 431 1108 456 1135 q 363 1082 407 1082 q 297 1108 321 1082 q 272 1179 272 1135 z "},"Ð":{"ha":794,"x_min":6,"x_max":738,"o":"m 344 992 q 558 937 471 992 q 692 776 646 882 q 738 515 738 671 q 690 235 738 350 q 551 60 642 119 q 329 0 461 0 l 86 0 l 86 435 l 6 435 l 6 592 l 86 592 l 86 992 l 344 992 m 342 808 l 297 808 l 297 592 l 400 592 l 400 435 l 297 435 l 297 185 l 328 185 q 473 263 426 185 q 519 507 519 342 q 499 679 519 613 q 440 777 479 746 q 342 808 400 808 z "},"Ñ":{"ha":886,"x_min":86,"x_max":800,"o":"m 800 0 l 553 0 l 278 657 l 272 657 q 279 561 276 606 q 283 481 282 517 q 283 417 283 446 l 283 0 l 86 0 l 86 992 l 332 992 l 607 350 l 611 350 q 606 441 608 399 q 603 519 604 483 q 601 582 601 554 l 601 992 l 800 992 l 800 0 m 210 1068 q 215 1138 211 1100 q 232 1209 219 1175 q 269 1265 244 1243 q 332 1286 293 1286 q 385 1276 360 1286 q 435 1251 411 1265 q 483 1228 460 1238 q 528 1218 506 1218 q 556 1236 547 1218 q 569 1288 564 1254 l 676 1288 q 640 1125 676 1181 q 553 1069 604 1069 q 499 1079 526 1069 q 446 1103 471 1089 q 399 1127 421 1117 q 360 1138 376 1138 q 334 1122 347 1138 q 317 1068 321 1106 l 210 1068 z "},"Ò":{"ha":842,"x_min":57,"x_max":785,"o":"m 785 497 q 762 281 785 376 q 694 120 739 186 q 580 20 649 54 q 421 -14 511 -14 q 263 21 332 -14 q 149 122 194 56 q 80 283 103 188 q 57 499 57 378 q 99 778 57 665 q 222 949 140 892 q 421 1007 303 1007 q 624 947 543 1007 q 744 774 704 888 q 785 497 785 660 m 276 497 q 292 317 276 389 q 341 208 308 244 q 421 172 374 172 q 501 208 469 172 q 549 315 533 243 q 565 497 565 386 q 529 744 565 663 q 421 825 493 825 q 341 788 374 825 q 292 678 308 751 q 276 497 276 606 m 451 1292 q 485 1224 464 1264 q 527 1147 506 1183 q 563 1088 549 1110 l 563 1069 l 417 1069 q 373 1113 400 1086 q 317 1172 346 1140 q 263 1231 288 1203 q 224 1279 238 1260 l 224 1292 l 451 1292 z "},"Ó":{"ha":842,"x_min":57,"x_max":785,"o":"m 785 497 q 762 281 785 376 q 694 120 739 186 q 580 20 649 54 q 421 -14 511 -14 q 263 21 332 -14 q 149 122 194 56 q 80 283 103 188 q 57 499 57 378 q 99 778 57 665 q 222 949 140 892 q 421 1007 303 1007 q 624 947 543 1007 q 744 774 704 888 q 785 497 785 660 m 276 497 q 292 317 276 389 q 341 208 308 244 q 421 172 374 172 q 501 208 469 172 q 549 315 533 243 q 565 497 565 386 q 529 744 565 663 q 421 825 493 825 q 341 788 374 825 q 292 678 308 751 q 276 497 276 606 m 647 1279 q 610 1233 633 1260 q 561 1178 588 1207 q 507 1121 535 1149 q 454 1069 479 1093 l 308 1069 l 308 1088 q 352 1160 332 1125 q 389 1228 372 1194 q 419 1292 406 1261 l 647 1292 l 647 1279 z "},"Ô":{"ha":842,"x_min":57,"x_max":785,"o":"m 785 497 q 762 281 785 376 q 694 120 739 186 q 580 20 649 54 q 421 -14 511 -14 q 263 21 332 -14 q 149 122 194 56 q 80 283 103 188 q 57 499 57 378 q 99 778 57 665 q 222 949 140 892 q 421 1007 303 1007 q 624 947 543 1007 q 744 774 704 888 q 785 497 785 660 m 276 497 q 292 317 276 389 q 341 208 308 244 q 421 172 374 172 q 501 208 469 172 q 549 315 533 243 q 565 497 565 386 q 529 744 565 663 q 421 825 493 825 q 341 788 374 825 q 292 678 308 751 q 276 497 276 606 m 514 1292 q 551 1228 531 1261 q 595 1159 571 1194 q 646 1088 619 1124 l 646 1069 l 524 1069 q 476 1115 501 1089 q 422 1176 450 1142 q 367 1114 392 1142 q 322 1069 342 1086 l 199 1069 l 199 1088 q 245 1152 219 1114 q 294 1228 271 1190 q 331 1292 318 1267 l 514 1292 z "},"Õ":{"ha":842,"x_min":57,"x_max":785,"o":"m 785 497 q 762 281 785 376 q 694 120 739 186 q 580 20 649 54 q 421 -14 511 -14 q 263 21 332 -14 q 149 122 194 56 q 80 283 103 188 q 57 499 57 378 q 99 778 57 665 q 222 949 140 892 q 421 1007 303 1007 q 624 947 543 1007 q 744 774 704 888 q 785 497 785 660 m 276 497 q 292 317 276 389 q 341 208 308 244 q 421 172 374 172 q 501 208 469 172 q 549 315 533 243 q 565 497 565 386 q 529 744 565 663 q 421 825 493 825 q 341 788 374 825 q 292 678 308 751 q 276 497 276 606 m 189 1068 q 194 1138 190 1100 q 211 1209 199 1175 q 248 1265 224 1243 q 311 1286 272 1286 q 365 1276 339 1286 q 415 1251 390 1265 q 462 1228 439 1238 q 507 1218 485 1218 q 535 1236 526 1218 q 549 1288 543 1254 l 656 1288 q 619 1125 656 1181 q 532 1069 583 1069 q 478 1079 506 1069 q 425 1103 450 1089 q 378 1127 400 1117 q 339 1138 356 1138 q 313 1122 326 1138 q 296 1068 300 1106 l 189 1068 z "},"Ö":{"ha":842,"x_min":57,"x_max":785,"o":"m 785 497 q 762 281 785 376 q 694 120 739 186 q 580 20 649 54 q 421 -14 511 -14 q 263 21 332 -14 q 149 122 194 56 q 80 283 103 188 q 57 499 57 378 q 99 778 57 665 q 222 949 140 892 q 421 1007 303 1007 q 624 947 543 1007 q 744 774 704 888 q 785 497 785 660 m 276 497 q 292 317 276 389 q 341 208 308 244 q 421 172 374 172 q 501 208 469 172 q 549 315 533 243 q 565 497 565 386 q 529 744 565 663 q 421 825 493 825 q 341 788 374 825 q 292 678 308 751 q 276 497 276 606 m 199 1179 q 224 1253 199 1228 q 289 1279 249 1279 q 357 1253 332 1279 q 382 1179 382 1226 q 357 1108 382 1135 q 289 1082 332 1082 q 224 1108 249 1082 q 199 1179 199 1133 m 458 1179 q 483 1253 458 1228 q 550 1279 508 1279 q 617 1253 593 1279 q 642 1179 642 1226 q 617 1108 642 1135 q 549 1082 593 1082 q 483 1108 507 1082 q 458 1179 458 1135 z "},"×":{"ha":674,"x_min":50,"x_max":625,"o":"m 511 778 l 625 667 l 449 490 l 622 315 l 510 203 l 335 376 l 160 204 l 50 318 l 221 490 l 50 663 l 160 778 l 335 606 l 511 778 z "},"Ø":{"ha":842,"x_min":57,"x_max":785,"o":"m 785 497 q 761 277 785 372 q 692 117 738 182 q 578 19 646 53 q 421 -14 510 -14 q 333 -3 374 -14 q 256 26 292 7 l 208 -72 l 107 -25 l 167 97 q 82 276 107 178 q 57 499 57 375 q 99 778 57 665 q 222 949 140 892 q 421 1007 303 1007 q 514 996 471 1007 q 593 963 557 985 l 636 1049 l 738 1001 l 682 889 q 759 726 733 825 q 785 497 785 628 m 571 497 q 558 651 571 585 l 336 201 q 375 173 354 182 q 421 164 396 164 q 504 201 471 164 q 554 312 538 238 q 571 497 571 386 m 271 497 q 274 405 271 447 q 286 328 278 363 l 513 783 q 472 818 494 807 q 422 829 450 829 q 338 792 372 829 q 288 681 304 756 q 271 497 271 607 z "},"Ù":{"ha":797,"x_min":81,"x_max":717,"o":"m 717 331 q 680 140 717 217 q 572 24 643 63 q 397 -14 501 -14 q 163 71 244 -14 q 81 326 81 156 l 81 992 l 292 992 l 292 335 q 319 210 292 247 q 399 172 346 172 q 460 188 436 172 q 495 240 483 204 q 507 336 507 276 l 507 992 l 717 992 l 717 331 m 429 1292 q 463 1224 442 1264 q 505 1147 483 1183 q 540 1088 526 1110 l 540 1069 l 394 1069 q 351 1113 378 1086 q 294 1172 324 1140 q 240 1231 265 1203 q 201 1279 215 1260 l 201 1292 l 429 1292 z "},"Ú":{"ha":797,"x_min":81,"x_max":717,"o":"m 717 331 q 680 140 717 217 q 572 24 643 63 q 397 -14 501 -14 q 163 71 244 -14 q 81 326 81 156 l 81 992 l 292 992 l 292 335 q 319 210 292 247 q 399 172 346 172 q 460 188 436 172 q 495 240 483 204 q 507 336 507 276 l 507 992 l 717 992 l 717 331 m 625 1279 q 588 1233 611 1260 q 539 1178 565 1207 q 485 1121 513 1149 q 432 1069 457 1093 l 286 1069 l 286 1088 q 330 1160 310 1125 q 367 1228 350 1194 q 397 1292 383 1261 l 625 1292 l 625 1279 z "},"Û":{"ha":797,"x_min":81,"x_max":717,"o":"m 717 331 q 680 140 717 217 q 572 24 643 63 q 397 -14 501 -14 q 163 71 244 -14 q 81 326 81 156 l 81 992 l 292 992 l 292 335 q 319 210 292 247 q 399 172 346 172 q 460 188 436 172 q 495 240 483 204 q 507 336 507 276 l 507 992 l 717 992 l 717 331 m 490 1292 q 527 1228 507 1261 q 572 1159 547 1194 q 622 1088 596 1124 l 622 1069 l 500 1069 q 452 1115 478 1089 q 399 1176 426 1142 q 343 1114 368 1142 q 299 1069 318 1086 l 175 1069 l 175 1088 q 222 1152 196 1114 q 271 1228 247 1190 q 307 1292 294 1267 l 490 1292 z "},"Ü":{"ha":797,"x_min":81,"x_max":717,"o":"m 717 331 q 680 140 717 217 q 572 24 643 63 q 397 -14 501 -14 q 163 71 244 -14 q 81 326 81 156 l 81 992 l 292 992 l 292 335 q 319 210 292 247 q 399 172 346 172 q 460 188 436 172 q 495 240 483 204 q 507 336 507 276 l 507 992 l 717 992 l 717 331 m 176 1179 q 201 1253 176 1228 q 267 1279 226 1279 q 335 1253 310 1279 q 360 1179 360 1226 q 335 1108 360 1135 q 267 1082 310 1082 q 201 1108 226 1082 q 176 1179 176 1133 m 436 1179 q 461 1253 436 1228 q 528 1279 486 1279 q 595 1253 571 1279 q 619 1179 619 1226 q 595 1108 619 1135 q 526 1082 571 1082 q 460 1108 485 1082 q 436 1179 436 1135 z "},"Ý":{"ha":692,"x_min":0,"x_max":692,"o":"m 347 608 l 474 992 l 692 992 l 451 382 l 451 0 l 240 0 l 240 375 l 0 992 l 219 992 l 347 608 m 572 1279 q 535 1233 558 1260 q 486 1178 513 1207 q 432 1121 460 1149 q 379 1069 404 1093 l 233 1069 l 233 1088 q 277 1160 257 1125 q 314 1228 297 1194 q 344 1292 331 1261 l 572 1292 l 572 1279 z "},"Þ":{"ha":676,"x_min":86,"x_max":647,"o":"m 647 532 q 630 398 647 460 q 577 290 613 336 q 485 217 542 243 q 349 190 428 190 l 297 190 l 297 0 l 86 0 l 86 992 l 297 992 l 297 842 l 354 842 q 575 762 503 842 q 647 532 647 682 m 328 369 q 390 385 365 369 q 426 438 414 401 q 439 529 439 474 q 415 628 439 596 q 342 661 392 661 l 297 661 l 297 369 l 328 369 z "},"ß":{"ha":776,"x_min":74,"x_max":740,"o":"m 675 821 q 662 734 675 769 q 628 674 649 699 q 588 630 608 649 q 554 593 568 611 q 540 551 540 575 q 549 524 540 539 q 573 493 557 510 q 614 457 589 476 q 683 392 654 425 q 726 321 711 360 q 740 231 740 282 q 713 97 740 151 q 631 14 685 42 q 500 -14 578 -14 q 415 -5 460 -14 q 331 25 371 4 l 331 214 q 377 185 353 197 q 425 166 401 172 q 471 160 449 160 q 522 174 506 160 q 538 215 538 189 q 530 251 538 235 q 503 287 522 268 q 447 333 483 306 q 376 404 400 369 q 345 472 353 439 q 338 538 338 506 q 351 606 338 578 q 385 657 364 635 q 426 701 406 679 q 460 748 446 722 q 474 808 474 774 q 451 868 474 843 q 379 893 428 893 q 323 876 346 893 q 288 823 300 858 q 275 733 275 788 l 275 0 l 74 0 l 74 757 q 110 919 74 850 q 217 1025 147 988 q 381 1063 286 1063 q 533 1034 467 1063 q 638 951 600 1006 q 675 821 675 897 z "},"à":{"ha":664,"x_min":38,"x_max":592,"o":"m 354 778 q 530 709 468 778 q 592 503 592 640 l 592 0 l 444 0 l 413 101 l 408 101 q 358 37 385 63 q 297 -1 331 11 q 217 -14 263 -14 q 113 21 153 -14 q 56 111 74 56 q 38 229 38 167 q 103 410 38 350 q 293 476 169 471 l 390 481 l 390 506 q 372 589 390 561 q 311 617 353 617 q 240 603 279 617 q 151 561 200 590 l 97 711 q 217 760 151 743 q 354 778 282 778 m 343 346 q 265 316 292 343 q 239 238 239 289 q 255 169 239 192 q 301 147 271 147 q 365 183 340 147 q 390 279 390 219 l 390 349 l 343 346 m 374 1064 q 407 996 386 1036 q 449 919 428 956 q 485 860 471 882 l 485 842 l 339 842 q 295 885 322 858 q 239 944 268 913 q 185 1003 210 975 q 146 1051 160 1032 l 146 1064 l 374 1064 z "},"á":{"ha":664,"x_min":38,"x_max":592,"o":"m 354 778 q 530 709 468 778 q 592 503 592 640 l 592 0 l 444 0 l 413 101 l 408 101 q 358 37 385 63 q 297 -1 331 11 q 217 -14 263 -14 q 113 21 153 -14 q 56 111 74 56 q 38 229 38 167 q 103 410 38 350 q 293 476 169 471 l 390 481 l 390 506 q 372 589 390 561 q 311 617 353 617 q 240 603 279 617 q 151 561 200 590 l 97 711 q 217 760 151 743 q 354 778 282 778 m 343 346 q 265 316 292 343 q 239 238 239 289 q 255 169 239 192 q 301 147 271 147 q 365 183 340 147 q 390 279 390 219 l 390 349 l 343 346 m 571 1051 q 534 1006 557 1032 q 485 950 511 979 q 431 893 458 921 q 378 842 403 865 l 232 842 l 232 860 q 276 932 256 897 q 313 1000 296 967 q 343 1064 329 1033 l 571 1064 l 571 1051 z "},"â":{"ha":664,"x_min":38,"x_max":592,"o":"m 354 778 q 530 709 468 778 q 592 503 592 640 l 592 0 l 444 0 l 413 101 l 408 101 q 358 37 385 63 q 297 -1 331 11 q 217 -14 263 -14 q 113 21 153 -14 q 56 111 74 56 q 38 229 38 167 q 103 410 38 350 q 293 476 169 471 l 390 481 l 390 506 q 372 589 390 561 q 311 617 353 617 q 240 603 279 617 q 151 561 200 590 l 97 711 q 217 760 151 743 q 354 778 282 778 m 343 346 q 265 316 292 343 q 239 238 239 289 q 255 169 239 192 q 301 147 271 147 q 365 183 340 147 q 390 279 390 219 l 390 349 l 343 346 m 436 1064 q 473 1000 453 1033 q 517 931 493 967 q 568 860 542 896 l 568 842 l 446 842 q 398 888 424 861 q 344 949 372 914 q 289 886 314 914 q 244 842 264 858 l 121 842 l 121 860 q 167 924 142 886 q 217 1001 193 963 q 253 1064 240 1039 l 436 1064 z "},"ã":{"ha":664,"x_min":38,"x_max":592,"o":"m 354 778 q 530 709 468 778 q 592 503 592 640 l 592 0 l 444 0 l 413 101 l 408 101 q 358 37 385 63 q 297 -1 331 11 q 217 -14 263 -14 q 113 21 153 -14 q 56 111 74 56 q 38 229 38 167 q 103 410 38 350 q 293 476 169 471 l 390 481 l 390 506 q 372 589 390 561 q 311 617 353 617 q 240 603 279 617 q 151 561 200 590 l 97 711 q 217 760 151 743 q 354 778 282 778 m 343 346 q 265 316 292 343 q 239 238 239 289 q 255 169 239 192 q 301 147 271 147 q 365 183 340 147 q 390 279 390 219 l 390 349 l 343 346 m 111 840 q 117 910 113 872 q 133 981 121 947 q 170 1037 146 1015 q 233 1058 194 1058 q 287 1048 261 1058 q 337 1024 313 1038 q 384 1000 361 1010 q 429 990 407 990 q 457 1008 449 990 q 471 1060 465 1026 l 578 1060 q 542 897 578 953 q 454 842 506 842 q 400 851 428 842 q 347 875 372 861 q 300 899 322 889 q 261 910 278 910 q 235 894 249 910 q 218 840 222 878 l 111 840 z "},"ä":{"ha":664,"x_min":38,"x_max":592,"o":"m 354 778 q 530 709 468 778 q 592 503 592 640 l 592 0 l 444 0 l 413 101 l 408 101 q 358 37 385 63 q 297 -1 331 11 q 217 -14 263 -14 q 113 21 153 -14 q 56 111 74 56 q 38 229 38 167 q 103 410 38 350 q 293 476 169 471 l 390 481 l 390 506 q 372 589 390 561 q 311 617 353 617 q 240 603 279 617 q 151 561 200 590 l 97 711 q 217 760 151 743 q 354 778 282 778 m 343 346 q 265 316 292 343 q 239 238 239 289 q 255 169 239 192 q 301 147 271 147 q 365 183 340 147 q 390 279 390 219 l 390 349 l 343 346 m 122 951 q 147 1026 122 1000 q 213 1051 172 1051 q 281 1025 256 1051 q 306 951 306 999 q 281 881 306 907 q 213 854 256 854 q 147 880 172 854 q 122 951 122 906 m 382 951 q 407 1026 382 1000 q 474 1051 432 1051 q 541 1025 517 1051 q 565 951 565 999 q 541 881 565 907 q 472 854 517 854 q 406 881 431 854 q 382 951 382 907 z "},"å":{"ha":664,"x_min":38,"x_max":592,"o":"m 354 778 q 530 709 468 778 q 592 503 592 640 l 592 0 l 444 0 l 413 101 l 408 101 q 358 37 385 63 q 297 -1 331 11 q 217 -14 263 -14 q 113 21 153 -14 q 56 111 74 56 q 38 229 38 167 q 103 410 38 350 q 293 476 169 471 l 390 481 l 390 506 q 372 589 390 561 q 311 617 353 617 q 240 603 279 617 q 151 561 200 590 l 97 711 q 217 760 151 743 q 354 778 282 778 m 343 346 q 265 316 292 343 q 239 238 239 289 q 255 169 239 192 q 301 147 271 147 q 365 183 340 147 q 390 279 390 219 l 390 349 l 343 346 m 344 840 q 224 887 269 840 q 178 1004 178 933 q 224 1124 178 1078 q 344 1169 269 1169 q 465 1123 418 1169 q 511 1006 511 1076 q 465 888 511 936 q 344 840 419 840 m 344 946 q 388 963 371 946 q 406 1006 406 979 q 388 1049 406 1032 q 344 1065 371 1065 q 302 1049 319 1065 q 285 1006 285 1032 q 300 963 285 979 q 344 946 315 946 z "},"æ":{"ha":985,"x_min":38,"x_max":942,"o":"m 669 776 q 820 735 760 776 q 911 616 881 693 q 942 429 942 539 l 942 321 l 579 321 q 613 190 579 232 q 715 147 646 147 q 811 161 767 147 q 906 206 856 175 l 906 40 q 807 -1 858 13 q 692 -14 756 -14 q 595 0 642 -14 q 512 42 549 14 q 450 113 475 69 q 389 42 422 71 q 317 0 356 14 q 235 -14 279 -14 q 122 21 165 -14 q 58 111 79 56 q 38 229 38 167 q 67 363 38 310 q 154 445 97 417 q 293 476 211 474 l 390 481 l 390 506 q 371 589 390 561 q 311 617 351 617 q 240 603 279 617 q 151 561 200 590 l 97 711 q 209 760 149 743 q 331 778 269 778 q 430 759 389 778 q 497 703 471 740 q 570 758 528 740 q 669 776 613 776 m 343 346 q 265 316 292 343 q 239 238 239 289 q 255 169 239 192 q 301 147 271 147 q 347 163 328 147 q 378 210 367 179 q 390 279 390 240 l 390 349 l 343 346 m 669 619 q 606 583 631 619 q 579 464 581 547 l 756 464 q 745 550 756 515 q 715 602 735 585 q 669 619 696 619 z "},"ç":{"ha":576,"x_min":47,"x_max":544,"o":"m 343 -14 q 178 28 244 -14 q 80 158 113 71 q 47 378 47 244 q 79 582 47 492 q 177 725 111 672 q 346 778 243 778 q 455 764 407 778 q 544 724 503 750 l 490 563 q 426 594 458 585 q 361 604 394 604 q 302 578 326 604 q 265 503 278 553 q 251 378 251 453 q 265 256 251 306 q 303 183 278 207 q 365 158 328 158 q 447 174 407 158 q 528 219 488 190 l 528 49 q 442 1 489 17 q 343 -14 394 -14 m 485 -178 q 440 -292 485 -250 q 310 -333 394 -333 q 249 -331 276 -333 q 199 -322 222 -328 l 199 -207 q 238 -215 219 -212 q 271 -218 256 -218 q 315 -206 300 -218 q 329 -172 329 -194 q 304 -132 329 -147 q 235 -114 279 -117 l 282 0 l 381 0 l 358 -51 q 426 -75 399 -58 q 469 -118 454 -92 q 485 -178 485 -144 z "},"è":{"ha":651,"x_min":47,"x_max":610,"o":"m 333 776 q 483 735 421 776 q 578 616 546 693 q 610 429 610 539 l 610 321 l 244 321 q 280 190 246 232 q 383 149 314 149 q 478 162 433 149 q 572 206 522 175 l 572 40 q 471 -1 525 13 q 354 -14 417 -14 q 179 33 247 -14 q 79 167 111 79 q 47 378 47 254 q 79 594 47 506 q 175 730 111 683 q 333 776 239 776 m 338 619 q 272 584 297 619 q 246 464 247 549 l 422 464 q 412 550 422 515 q 383 602 401 585 q 338 619 365 619 m 363 1064 q 396 996 375 1036 q 438 919 417 956 q 474 860 460 882 l 474 842 l 328 842 q 284 885 311 858 q 228 944 257 913 q 174 1003 199 975 q 135 1051 149 1032 l 135 1064 l 363 1064 z "},"é":{"ha":651,"x_min":47,"x_max":610,"o":"m 333 776 q 483 735 421 776 q 578 616 546 693 q 610 429 610 539 l 610 321 l 244 321 q 280 190 246 232 q 383 149 314 149 q 478 162 433 149 q 572 206 522 175 l 572 40 q 471 -1 525 13 q 354 -14 417 -14 q 179 33 247 -14 q 79 167 111 79 q 47 378 47 254 q 79 594 47 506 q 175 730 111 683 q 333 776 239 776 m 338 619 q 272 584 297 619 q 246 464 247 549 l 422 464 q 412 550 422 515 q 383 602 401 585 q 338 619 365 619 m 558 1051 q 522 1006 544 1032 q 472 950 499 979 q 418 893 446 921 q 365 842 390 865 l 219 842 l 219 860 q 263 932 243 897 q 300 1000 283 967 q 331 1064 317 1033 l 558 1064 l 558 1051 z "},"ê":{"ha":651,"x_min":47,"x_max":610,"o":"m 333 776 q 483 735 421 776 q 578 616 546 693 q 610 429 610 539 l 610 321 l 244 321 q 280 190 246 232 q 383 149 314 149 q 478 162 433 149 q 572 206 522 175 l 572 40 q 471 -1 525 13 q 354 -14 417 -14 q 179 33 247 -14 q 79 167 111 79 q 47 378 47 254 q 79 594 47 506 q 175 730 111 683 q 333 776 239 776 m 338 619 q 272 584 297 619 q 246 464 247 549 l 422 464 q 412 550 422 515 q 383 602 401 585 q 338 619 365 619 m 424 1064 q 460 1000 440 1033 q 505 931 481 967 q 556 860 529 896 l 556 842 l 433 842 q 385 888 411 861 q 332 949 360 914 q 276 886 301 914 q 232 842 251 858 l 108 842 l 108 860 q 155 924 129 886 q 204 1001 181 963 q 240 1064 228 1039 l 424 1064 z "},"ë":{"ha":651,"x_min":47,"x_max":610,"o":"m 333 776 q 483 735 421 776 q 578 616 546 693 q 610 429 610 539 l 610 321 l 244 321 q 280 190 246 232 q 383 149 314 149 q 478 162 433 149 q 572 206 522 175 l 572 40 q 471 -1 525 13 q 354 -14 417 -14 q 179 33 247 -14 q 79 167 111 79 q 47 378 47 254 q 79 594 47 506 q 175 730 111 683 q 333 776 239 776 m 338 619 q 272 584 297 619 q 246 464 247 549 l 422 464 q 412 550 422 515 q 383 602 401 585 q 338 619 365 619 m 110 951 q 135 1026 110 1000 q 200 1051 160 1051 q 268 1025 243 1051 q 293 951 293 999 q 268 881 293 907 q 200 854 243 854 q 135 880 160 854 q 110 951 110 906 m 369 951 q 394 1026 369 1000 q 461 1051 419 1051 q 528 1025 504 1051 q 553 951 553 999 q 528 881 553 907 q 460 854 504 854 q 394 881 418 854 q 369 951 369 907 z "},"ì":{"ha":353,"x_min":-22,"x_max":317,"o":"m 276 0 l 75 0 l 75 764 l 276 764 l 276 0 m 206 1064 q 239 996 218 1036 q 281 919 260 956 q 317 860 303 882 l 317 842 l 171 842 q 127 885 154 858 q 71 944 100 913 q 17 1003 42 975 q -22 1051 -8 1032 l -22 1064 l 206 1064 z "},"í":{"ha":353,"x_min":63,"x_max":401,"o":"m 276 0 l 75 0 l 75 764 l 276 764 l 276 0 m 401 1051 q 365 1006 388 1032 q 315 950 342 979 q 261 893 289 921 q 208 842 233 865 l 63 842 l 63 860 q 106 932 86 897 q 143 1000 126 967 q 174 1064 160 1033 l 401 1064 l 401 1051 z "},"î":{"ha":353,"x_min":-49,"x_max":399,"o":"m 276 0 l 75 0 l 75 764 l 276 764 l 276 0 m 267 1064 q 303 1000 283 1033 q 348 931 324 967 q 399 860 372 896 l 399 842 l 276 842 q 228 888 254 861 q 175 949 203 914 q 119 886 144 914 q 75 842 94 858 l -49 842 l -49 860 q -2 924 -28 886 q 47 1001 24 963 q 83 1064 71 1039 l 267 1064 z "},"ï":{"ha":353,"x_min":-47,"x_max":396,"o":"m 276 0 l 75 0 l 75 764 l 276 764 l 276 0 m -47 951 q -22 1026 -47 1000 q 43 1051 3 1051 q 111 1025 86 1051 q 136 951 136 999 q 111 881 136 907 q 43 854 86 854 q -22 880 3 854 q -47 951 -47 906 m 213 951 q 238 1026 213 1000 q 304 1051 263 1051 q 372 1025 347 1051 q 396 951 396 999 q 372 881 396 907 q 303 854 347 854 q 237 881 261 854 q 213 951 213 907 z "},"ð":{"ha":696,"x_min":47,"x_max":649,"o":"m 275 1065 q 329 1033 301 1051 q 386 990 357 1014 l 481 1065 l 557 971 l 475 906 q 567 769 529 844 q 627 600 606 694 q 649 381 649 506 q 613 168 649 257 q 510 33 578 79 q 346 -14 443 -14 q 187 30 254 -14 q 83 153 119 74 q 47 336 47 232 q 84 523 47 446 q 182 641 121 600 q 315 682 243 682 q 349 679 333 682 q 380 671 365 676 q 407 657 394 665 l 410 660 q 383 728 401 694 q 340 796 365 763 l 256 728 l 179 822 l 265 890 q 227 924 247 908 q 188 954 207 940 l 275 1065 m 349 511 q 294 492 315 511 q 262 433 272 472 q 251 332 251 393 q 262 238 251 278 q 294 176 272 197 q 349 156 315 156 q 423 201 401 156 q 444 336 444 246 q 439 410 444 378 q 422 465 433 443 q 393 499 411 488 q 349 511 375 511 z "},"ñ":{"ha":714,"x_min":74,"x_max":642,"o":"m 436 778 q 588 706 533 778 q 642 501 642 635 l 642 0 l 440 0 l 440 440 q 426 558 440 518 q 368 599 411 599 q 295 545 315 599 q 275 358 275 492 l 275 0 l 74 0 l 74 764 l 232 764 l 254 668 l 267 668 q 308 728 283 704 q 365 765 333 753 q 436 778 397 778 m 138 840 q 143 910 139 872 q 160 981 147 947 q 197 1037 172 1015 q 260 1058 221 1058 q 313 1048 288 1058 q 363 1024 339 1038 q 410 1000 388 1010 q 456 990 433 990 q 483 1008 475 990 q 497 1060 492 1026 l 604 1060 q 568 897 604 953 q 481 842 532 842 q 426 851 454 842 q 374 875 399 861 q 326 899 349 889 q 288 910 304 910 q 262 894 275 910 q 244 840 249 878 l 138 840 z "},"ò":{"ha":696,"x_min":47,"x_max":647,"o":"m 647 383 q 631 235 647 307 q 581 108 615 164 q 488 19 546 51 q 347 -14 431 -14 q 213 18 269 -14 q 119 106 156 50 q 65 234 83 163 q 47 383 47 306 q 78 586 47 497 q 176 726 110 675 q 349 778 243 778 q 507 732 440 778 q 610 598 574 686 q 647 383 647 510 m 251 381 q 262 256 251 307 q 294 181 272 206 q 347 156 315 156 q 403 181 383 156 q 433 257 424 206 q 443 383 443 308 q 433 510 443 460 q 403 584 424 560 q 349 608 383 608 q 274 553 297 608 q 251 381 251 497 m 378 1064 q 411 996 390 1036 q 453 919 432 956 q 489 860 475 882 l 489 842 l 343 842 q 299 885 326 858 q 243 944 272 913 q 189 1003 214 975 q 150 1051 164 1032 l 150 1064 l 378 1064 z "},"ó":{"ha":696,"x_min":47,"x_max":647,"o":"m 647 383 q 631 235 647 307 q 581 108 615 164 q 488 19 546 51 q 347 -14 431 -14 q 213 18 269 -14 q 119 106 156 50 q 65 234 83 163 q 47 383 47 306 q 78 586 47 497 q 176 726 110 675 q 349 778 243 778 q 507 732 440 778 q 610 598 574 686 q 647 383 647 510 m 251 381 q 262 256 251 307 q 294 181 272 206 q 347 156 315 156 q 403 181 383 156 q 433 257 424 206 q 443 383 443 308 q 433 510 443 460 q 403 584 424 560 q 349 608 383 608 q 274 553 297 608 q 251 381 251 497 m 574 1051 q 537 1006 560 1032 q 488 950 514 979 q 433 893 461 921 q 381 842 406 865 l 235 842 l 235 860 q 278 932 258 897 q 315 1000 299 967 q 346 1064 332 1033 l 574 1064 l 574 1051 z "},"ô":{"ha":696,"x_min":47,"x_max":647,"o":"m 647 383 q 631 235 647 307 q 581 108 615 164 q 488 19 546 51 q 347 -14 431 -14 q 213 18 269 -14 q 119 106 156 50 q 65 234 83 163 q 47 383 47 306 q 78 586 47 497 q 176 726 110 675 q 349 778 243 778 q 507 732 440 778 q 610 598 574 686 q 647 383 647 510 m 251 381 q 262 256 251 307 q 294 181 272 206 q 347 156 315 156 q 403 181 383 156 q 433 257 424 206 q 443 383 443 308 q 433 510 443 460 q 403 584 424 560 q 349 608 383 608 q 274 553 297 608 q 251 381 251 497 m 440 1064 q 477 1000 457 1033 q 522 931 497 967 q 572 860 546 896 l 572 842 l 450 842 q 402 888 428 861 q 349 949 376 914 q 293 886 318 914 q 249 842 268 858 l 125 842 l 125 860 q 172 924 146 886 q 221 1001 197 963 q 257 1064 244 1039 l 440 1064 z "},"õ":{"ha":696,"x_min":47,"x_max":647,"o":"m 647 383 q 631 235 647 307 q 581 108 615 164 q 488 19 546 51 q 347 -14 431 -14 q 213 18 269 -14 q 119 106 156 50 q 65 234 83 163 q 47 383 47 306 q 78 586 47 497 q 176 726 110 675 q 349 778 243 778 q 507 732 440 778 q 610 598 574 686 q 647 383 647 510 m 251 381 q 262 256 251 307 q 294 181 272 206 q 347 156 315 156 q 403 181 383 156 q 433 257 424 206 q 443 383 443 308 q 433 510 443 460 q 403 584 424 560 q 349 608 383 608 q 274 553 297 608 q 251 381 251 497 m 115 840 q 121 910 117 872 q 138 981 125 947 q 174 1037 150 1015 q 238 1058 199 1058 q 291 1048 265 1058 q 341 1024 317 1038 q 388 1000 365 1010 q 433 990 411 990 q 461 1008 453 990 q 475 1060 469 1026 l 582 1060 q 546 897 582 953 q 458 842 510 842 q 404 851 432 842 q 351 875 376 861 q 304 899 326 889 q 265 910 282 910 q 240 894 253 910 q 222 840 226 878 l 115 840 z "},"ö":{"ha":696,"x_min":47,"x_max":647,"o":"m 647 383 q 631 235 647 307 q 581 108 615 164 q 488 19 546 51 q 347 -14 431 -14 q 213 18 269 -14 q 119 106 156 50 q 65 234 83 163 q 47 383 47 306 q 78 586 47 497 q 176 726 110 675 q 349 778 243 778 q 507 732 440 778 q 610 598 574 686 q 647 383 647 510 m 251 381 q 262 256 251 307 q 294 181 272 206 q 347 156 315 156 q 403 181 383 156 q 433 257 424 206 q 443 383 443 308 q 433 510 443 460 q 403 584 424 560 q 349 608 383 608 q 274 553 297 608 q 251 381 251 497 m 125 951 q 150 1026 125 1000 q 215 1051 175 1051 q 283 1025 258 1051 q 308 951 308 999 q 283 881 308 907 q 215 854 258 854 q 150 880 175 854 q 125 951 125 906 m 385 951 q 410 1026 385 1000 q 476 1051 435 1051 q 544 1025 519 1051 q 568 951 568 999 q 544 881 568 907 q 475 854 519 854 q 409 881 433 854 q 385 951 385 907 z "},"÷":{"ha":674,"x_min":46,"x_max":628,"o":"m 46 408 l 46 572 l 628 572 l 628 408 l 46 408 m 338 108 q 263 138 290 108 q 235 221 235 167 q 261 304 235 275 q 338 333 288 333 q 412 304 386 333 q 438 221 438 275 q 411 138 438 168 q 338 108 385 108 m 338 646 q 263 675 290 646 q 235 758 235 704 q 261 842 235 813 q 338 871 288 871 q 412 842 386 871 q 438 758 438 813 q 411 675 438 704 q 338 646 385 646 z "},"ø":{"ha":696,"x_min":47,"x_max":647,"o":"m 647 383 q 612 170 647 260 q 510 33 576 81 q 346 -14 443 -14 q 283 -7 313 -14 q 225 14 253 0 l 179 -82 l 81 -36 l 139 81 q 69 217 90 143 q 47 383 47 290 q 126 674 47 571 q 349 778 206 778 q 415 770 385 778 q 471 747 444 763 l 511 826 l 608 781 l 560 681 q 625 553 603 629 q 647 383 647 476 m 242 381 q 243 327 242 353 q 247 281 244 301 l 406 596 q 380 614 394 608 q 347 619 365 619 q 267 560 292 619 q 242 381 242 501 m 454 383 q 453 435 454 411 q 450 478 451 458 l 293 164 q 317 149 304 154 q 347 143 331 143 q 411 170 388 143 q 444 251 435 197 q 454 383 454 306 z "},"ù":{"ha":714,"x_min":72,"x_max":640,"o":"m 640 764 l 640 0 l 483 0 l 460 96 l 449 96 q 407 35 432 60 q 351 -1 382 11 q 279 -14 319 -14 q 166 19 213 -14 q 96 115 119 53 q 72 265 72 178 l 72 764 l 274 764 l 274 329 q 289 207 274 249 q 340 165 304 165 q 404 191 383 165 q 432 265 425 217 q 439 381 439 314 l 439 764 l 640 764 m 388 1064 q 421 996 400 1036 q 463 919 442 956 q 499 860 485 882 l 499 842 l 353 842 q 309 885 336 858 q 253 944 282 913 q 199 1003 224 975 q 160 1051 174 1032 l 160 1064 l 388 1064 z "},"ú":{"ha":714,"x_min":72,"x_max":640,"o":"m 640 764 l 640 0 l 483 0 l 460 96 l 449 96 q 407 35 432 60 q 351 -1 382 11 q 279 -14 319 -14 q 166 19 213 -14 q 96 115 119 53 q 72 265 72 178 l 72 764 l 274 764 l 274 329 q 289 207 274 249 q 340 165 304 165 q 404 191 383 165 q 432 265 425 217 q 439 381 439 314 l 439 764 l 640 764 m 583 1051 q 547 1006 569 1032 q 497 950 524 979 q 443 893 471 921 q 390 842 415 865 l 244 842 l 244 860 q 288 932 268 897 q 325 1000 308 967 q 356 1064 342 1033 l 583 1064 l 583 1051 z "},"û":{"ha":714,"x_min":72,"x_max":640,"o":"m 640 764 l 640 0 l 483 0 l 460 96 l 449 96 q 407 35 432 60 q 351 -1 382 11 q 279 -14 319 -14 q 166 19 213 -14 q 96 115 119 53 q 72 265 72 178 l 72 764 l 274 764 l 274 329 q 289 207 274 249 q 340 165 304 165 q 404 191 383 165 q 432 265 425 217 q 439 381 439 314 l 439 764 l 640 764 m 450 1064 q 487 1000 467 1033 q 531 931 507 967 q 582 860 556 896 l 582 842 l 460 842 q 412 888 438 861 q 358 949 386 914 q 303 886 328 914 q 258 842 278 858 l 135 842 l 135 860 q 181 924 156 886 q 231 1001 207 963 q 267 1064 254 1039 l 450 1064 z "},"ü":{"ha":714,"x_min":72,"x_max":640,"o":"m 640 764 l 640 0 l 483 0 l 460 96 l 449 96 q 407 35 432 60 q 351 -1 382 11 q 279 -14 319 -14 q 166 19 213 -14 q 96 115 119 53 q 72 265 72 178 l 72 764 l 274 764 l 274 329 q 289 207 274 249 q 340 165 304 165 q 404 191 383 165 q 432 265 425 217 q 439 381 439 314 l 439 764 l 640 764 m 135 951 q 160 1026 135 1000 q 225 1051 185 1051 q 293 1025 268 1051 q 318 951 318 999 q 293 881 318 907 q 225 854 268 854 q 160 880 185 854 q 135 951 135 906 m 394 951 q 419 1026 394 1000 q 486 1051 444 1051 q 553 1025 529 1051 q 578 951 578 999 q 553 881 578 907 q 485 854 529 854 q 419 881 443 854 q 394 951 394 907 z "},"ý":{"ha":647,"x_min":4,"x_max":643,"o":"m 4 764 l 214 764 l 299 411 q 310 363 306 388 q 319 316 315 339 q 324 274 324 293 l 329 274 q 339 333 332 300 q 356 410 346 365 l 435 764 l 643 764 l 414 -62 q 351 -220 388 -160 q 266 -307 315 -281 q 151 -333 217 -333 q 105 -331 128 -333 q 60 -322 82 -328 l 60 -146 q 88 -152 74 -150 q 115 -154 101 -154 q 160 -144 143 -154 q 190 -105 176 -133 q 219 -21 204 -76 l 228 10 l 4 764 m 550 1051 q 513 1006 536 1032 q 464 950 490 979 q 410 893 438 921 q 357 842 382 865 l 211 842 l 211 860 q 255 932 235 897 q 292 1000 275 967 q 322 1064 308 1033 l 550 1064 l 550 1051 z "},"þ":{"ha":710,"x_min":74,"x_max":663,"o":"m 663 379 q 635 169 663 257 q 559 33 608 81 q 443 -14 510 -14 q 377 -1 408 -14 q 320 36 346 11 q 275 100 294 61 l 269 100 q 274 42 272 68 q 276 -4 275 15 q 276 -37 276 -24 l 276 -333 l 74 -333 l 74 1056 l 275 1056 l 275 811 q 274 738 275 774 q 269 664 272 701 l 275 664 q 324 735 300 710 q 376 769 347 760 q 438 778 404 778 q 603 673 544 778 q 663 379 663 568 m 458 378 q 436 552 458 496 q 372 608 414 608 q 298 559 321 608 q 275 399 275 510 l 275 358 q 298 208 275 256 q 371 160 321 160 q 422 185 403 160 q 450 260 442 211 q 458 378 458 308 z "},"ÿ":{"ha":647,"x_min":4,"x_max":643,"o":"m 4 764 l 214 764 l 299 411 q 310 363 306 388 q 319 316 315 339 q 324 274 324 293 l 329 274 q 339 333 332 300 q 356 410 346 365 l 435 764 l 643 764 l 414 -62 q 351 -220 388 -160 q 266 -307 315 -281 q 151 -333 217 -333 q 105 -331 128 -333 q 60 -322 82 -328 l 60 -146 q 88 -152 74 -150 q 115 -154 101 -154 q 160 -144 143 -154 q 190 -105 176 -133 q 219 -21 204 -76 l 228 10 l 4 764 m 101 951 q 126 1026 101 1000 q 192 1051 151 1051 q 260 1025 235 1051 q 285 951 285 999 q 260 881 285 907 q 192 854 235 854 q 126 880 151 854 q 101 951 101 906 m 361 951 q 386 1026 361 1000 q 453 1051 411 1051 q 520 1025 496 1051 q 544 951 544 999 q 520 881 544 907 q 451 854 496 854 q 385 881 410 854 q 361 951 361 907 z "},"Ā":{"ha":761,"x_min":0,"x_max":761,"o":"m 536 0 l 490 218 l 272 218 l 228 0 l 0 0 l 240 992 l 517 992 l 761 0 l 536 0 m 410 644 q 399 713 404 679 q 390 776 394 746 q 382 832 386 806 q 375 777 379 807 q 365 715 371 747 q 353 647 360 682 l 304 400 l 458 400 l 410 644 m 581 1233 l 581 1088 l 183 1088 l 183 1233 l 581 1233 z "},"ā":{"ha":664,"x_min":38,"x_max":592,"o":"m 354 778 q 530 709 468 778 q 592 503 592 640 l 592 0 l 444 0 l 413 101 l 408 101 q 358 37 385 63 q 297 -1 331 11 q 217 -14 263 -14 q 113 21 153 -14 q 56 111 74 56 q 38 229 38 167 q 103 410 38 350 q 293 476 169 471 l 390 481 l 390 506 q 372 589 390 561 q 311 617 353 617 q 240 603 279 617 q 151 561 200 590 l 97 711 q 217 760 151 743 q 354 778 282 778 m 343 346 q 265 316 292 343 q 239 238 239 289 q 255 169 239 192 q 301 147 271 147 q 365 183 340 147 q 390 279 390 219 l 390 349 l 343 346 m 543 1006 l 543 860 l 146 860 l 146 1006 l 543 1006 z "},"Ă":{"ha":761,"x_min":0,"x_max":761,"o":"m 536 0 l 490 218 l 272 218 l 228 0 l 0 0 l 240 992 l 517 992 l 761 0 l 536 0 m 410 644 q 399 713 404 679 q 390 776 394 746 q 382 832 386 806 q 375 777 379 807 q 365 715 371 747 q 353 647 360 682 l 304 400 l 458 400 l 410 644 m 590 1307 q 563 1181 590 1235 q 487 1099 535 1128 q 379 1071 439 1071 q 230 1131 288 1071 q 171 1307 172 1190 l 290 1307 q 303 1253 293 1274 q 333 1222 314 1232 q 379 1211 351 1211 q 427 1220 407 1211 q 459 1251 447 1229 q 472 1307 471 1272 l 590 1307 z "},"ă":{"ha":664,"x_min":38,"x_max":592,"o":"m 354 778 q 530 709 468 778 q 592 503 592 640 l 592 0 l 444 0 l 413 101 l 408 101 q 358 37 385 63 q 297 -1 331 11 q 217 -14 263 -14 q 113 21 153 -14 q 56 111 74 56 q 38 229 38 167 q 103 410 38 350 q 293 476 169 471 l 390 481 l 390 506 q 372 589 390 561 q 311 617 353 617 q 240 603 279 617 q 151 561 200 590 l 97 711 q 217 760 151 743 q 354 778 282 778 m 343 346 q 265 316 292 343 q 239 238 239 289 q 255 169 239 192 q 301 147 271 147 q 365 183 340 147 q 390 279 390 219 l 390 349 l 343 346 m 553 1079 q 525 953 553 1007 q 449 872 497 900 q 342 843 401 843 q 192 903 250 843 q 133 1079 135 963 l 253 1079 q 266 1025 256 1046 q 295 994 276 1004 q 342 983 314 983 q 390 992 369 983 q 422 1023 410 1001 q 435 1079 433 1044 l 553 1079 z "},"Ą":{"ha":761,"x_min":0,"x_max":761,"o":"m 536 0 l 490 218 l 272 218 l 228 0 l 0 0 l 240 992 l 517 992 l 761 0 l 536 0 m 410 644 q 399 713 404 679 q 390 776 394 746 q 382 832 386 806 q 375 777 379 807 q 365 715 371 747 q 353 647 360 682 l 304 400 l 458 400 l 410 644 m 599 -136 q 614 -177 599 -160 q 656 -194 629 -194 q 687 -190 675 -194 q 708 -181 699 -186 l 708 -310 q 668 -323 693 -317 q 613 -329 643 -329 q 486 -290 528 -329 q 444 -181 444 -250 q 456 -113 444 -147 q 495 -44 468 -79 q 565 22 522 -10 l 671 0 q 613 -76 626 -47 q 599 -136 599 -104 z "},"ą":{"ha":664,"x_min":38,"x_max":611,"o":"m 354 778 q 530 709 468 778 q 592 503 592 640 l 592 0 l 444 0 l 413 101 l 408 101 q 358 37 385 63 q 297 -1 331 11 q 217 -14 263 -14 q 113 21 153 -14 q 56 111 74 56 q 38 229 38 167 q 103 410 38 350 q 293 476 169 471 l 390 481 l 390 506 q 372 589 390 561 q 311 617 353 617 q 240 603 279 617 q 151 561 200 590 l 97 711 q 217 760 151 743 q 354 778 282 778 m 343 346 q 265 316 292 343 q 239 238 239 289 q 255 169 239 192 q 301 147 271 147 q 365 183 340 147 q 390 279 390 219 l 390 349 l 343 346 m 501 -136 q 517 -177 501 -160 q 558 -194 532 -194 q 590 -190 578 -194 q 611 -181 601 -186 l 611 -310 q 571 -323 596 -317 q 515 -329 546 -329 q 389 -290 431 -329 q 347 -181 347 -250 q 359 -113 347 -147 q 398 -44 371 -79 q 468 22 425 -10 l 574 0 q 515 -76 529 -47 q 501 -136 501 -104 z "},"Ć":{"ha":686,"x_min":57,"x_max":653,"o":"m 436 824 q 367 800 397 824 q 317 732 338 776 q 287 627 297 688 q 276 493 276 567 q 297 315 276 388 q 354 206 317 243 q 447 169 392 169 q 536 186 493 169 q 622 226 579 203 l 622 38 q 525 -1 576 13 q 414 -14 474 -14 q 220 45 300 -14 q 99 217 140 104 q 57 494 57 331 q 82 700 57 607 q 153 862 107 793 q 266 968 199 931 q 419 1006 333 1006 q 540 990 482 1006 q 653 940 597 975 l 594 767 q 519 808 557 793 q 436 824 481 824 m 629 1279 q 592 1233 615 1260 q 543 1178 569 1207 q 489 1121 517 1149 q 436 1069 461 1093 l 290 1069 l 290 1088 q 334 1160 314 1125 q 371 1228 354 1194 q 401 1292 388 1261 l 629 1292 l 629 1279 z "},"ć":{"ha":576,"x_min":47,"x_max":558,"o":"m 343 -14 q 178 28 244 -14 q 80 158 113 71 q 47 378 47 244 q 79 582 47 492 q 177 725 111 672 q 346 778 243 778 q 455 764 407 778 q 544 724 503 750 l 490 563 q 426 594 458 585 q 361 604 394 604 q 302 578 326 604 q 265 503 278 553 q 251 378 251 453 q 265 256 251 306 q 303 183 278 207 q 365 158 328 158 q 447 174 407 158 q 528 219 488 190 l 528 49 q 442 1 489 17 q 343 -14 394 -14 m 558 1051 q 522 1006 544 1032 q 472 950 499 979 q 418 893 446 921 q 365 842 390 865 l 219 842 l 219 860 q 263 932 243 897 q 300 1000 283 967 q 331 1064 317 1033 l 558 1064 l 558 1051 z "},"Ĉ":{"ha":686,"x_min":57,"x_max":653,"o":"m 436 824 q 367 800 397 824 q 317 732 338 776 q 287 627 297 688 q 276 493 276 567 q 297 315 276 388 q 354 206 317 243 q 447 169 392 169 q 536 186 493 169 q 622 226 579 203 l 622 38 q 525 -1 576 13 q 414 -14 474 -14 q 220 45 300 -14 q 99 217 140 104 q 57 494 57 331 q 82 700 57 607 q 153 862 107 793 q 266 968 199 931 q 419 1006 333 1006 q 540 990 482 1006 q 653 940 597 975 l 594 767 q 519 808 557 793 q 436 824 481 824 m 494 1292 q 531 1228 511 1261 q 576 1159 551 1194 q 626 1088 600 1124 l 626 1069 l 504 1069 q 456 1115 482 1089 q 403 1176 431 1142 q 347 1114 372 1142 q 303 1069 322 1086 l 179 1069 l 179 1088 q 226 1152 200 1114 q 275 1228 251 1190 q 311 1292 299 1267 l 494 1292 z "},"ĉ":{"ha":576,"x_min":47,"x_max":556,"o":"m 343 -14 q 178 28 244 -14 q 80 158 113 71 q 47 378 47 244 q 79 582 47 492 q 177 725 111 672 q 346 778 243 778 q 455 764 407 778 q 544 724 503 750 l 490 563 q 426 594 458 585 q 361 604 394 604 q 302 578 326 604 q 265 503 278 553 q 251 378 251 453 q 265 256 251 306 q 303 183 278 207 q 365 158 328 158 q 447 174 407 158 q 528 219 488 190 l 528 49 q 442 1 489 17 q 343 -14 394 -14 m 424 1064 q 460 1000 440 1033 q 505 931 481 967 q 556 860 529 896 l 556 842 l 433 842 q 385 888 411 861 q 332 949 360 914 q 276 886 301 914 q 232 842 251 858 l 108 842 l 108 860 q 155 924 129 886 q 204 1001 181 963 q 240 1064 228 1039 l 424 1064 z "},"Ċ":{"ha":686,"x_min":57,"x_max":653,"o":"m 436 824 q 367 800 397 824 q 317 732 338 776 q 287 627 297 688 q 276 493 276 567 q 297 315 276 388 q 354 206 317 243 q 447 169 392 169 q 536 186 493 169 q 622 226 579 203 l 622 38 q 525 -1 576 13 q 414 -14 474 -14 q 220 45 300 -14 q 99 217 140 104 q 57 494 57 331 q 82 700 57 607 q 153 862 107 793 q 266 968 199 931 q 419 1006 333 1006 q 540 990 482 1006 q 653 940 597 975 l 594 767 q 519 808 557 793 q 436 824 481 824 m 411 1294 q 494 1267 468 1294 q 519 1185 519 1239 q 492 1103 519 1131 q 411 1076 465 1076 q 331 1103 358 1076 q 303 1185 303 1131 q 328 1267 303 1240 q 411 1294 354 1294 z "},"ċ":{"ha":576,"x_min":47,"x_max":544,"o":"m 343 -14 q 178 28 244 -14 q 80 158 113 71 q 47 378 47 244 q 79 582 47 492 q 177 725 111 672 q 346 778 243 778 q 455 764 407 778 q 544 724 503 750 l 490 563 q 426 594 458 585 q 361 604 394 604 q 302 578 326 604 q 265 503 278 553 q 251 378 251 453 q 265 256 251 306 q 303 183 278 207 q 365 158 328 158 q 447 174 407 158 q 528 219 488 190 l 528 49 q 442 1 489 17 q 343 -14 394 -14 m 340 1067 q 423 1039 397 1067 q 449 957 449 1011 q 422 876 449 903 q 340 849 394 849 q 260 876 288 849 q 232 957 232 903 q 258 1040 232 1013 q 340 1067 283 1067 z "},"Č":{"ha":686,"x_min":57,"x_max":653,"o":"m 436 824 q 367 800 397 824 q 317 732 338 776 q 287 627 297 688 q 276 493 276 567 q 297 315 276 388 q 354 206 317 243 q 447 169 392 169 q 536 186 493 169 q 622 226 579 203 l 622 38 q 525 -1 576 13 q 414 -14 474 -14 q 220 45 300 -14 q 99 217 140 104 q 57 494 57 331 q 82 700 57 607 q 153 862 107 793 q 266 968 199 931 q 419 1006 333 1006 q 540 990 482 1006 q 653 940 597 975 l 594 767 q 519 808 557 793 q 436 824 481 824 m 311 1069 q 275 1134 299 1096 q 225 1210 251 1172 q 179 1274 199 1249 l 179 1292 l 303 1292 q 350 1245 325 1272 q 403 1185 375 1218 q 457 1246 433 1221 q 504 1292 481 1271 l 626 1292 l 626 1274 q 582 1210 607 1247 q 533 1135 557 1172 q 494 1069 510 1099 l 311 1069 z "},"č":{"ha":576,"x_min":47,"x_max":556,"o":"m 343 -14 q 178 28 244 -14 q 80 158 113 71 q 47 378 47 244 q 79 582 47 492 q 177 725 111 672 q 346 778 243 778 q 455 764 407 778 q 544 724 503 750 l 490 563 q 426 594 458 585 q 361 604 394 604 q 302 578 326 604 q 265 503 278 553 q 251 378 251 453 q 265 256 251 306 q 303 183 278 207 q 365 158 328 158 q 447 174 407 158 q 528 219 488 190 l 528 49 q 442 1 489 17 q 343 -14 394 -14 m 240 842 q 204 906 228 868 q 154 983 181 944 q 108 1046 128 1021 l 108 1064 l 232 1064 q 279 1017 254 1044 q 332 957 304 990 q 386 1018 363 993 q 433 1064 410 1043 l 556 1064 l 556 1046 q 511 982 536 1019 q 463 908 486 944 q 424 842 439 871 l 240 842 z "},"Ď":{"ha":794,"x_min":86,"x_max":738,"o":"m 738 515 q 690 235 738 350 q 551 60 642 119 q 329 0 460 0 l 86 0 l 86 992 l 344 992 q 558 937 471 992 q 691 776 644 882 q 738 515 738 669 m 519 506 q 499 679 519 613 q 440 777 479 746 q 342 808 400 808 l 297 808 l 297 185 l 328 185 q 473 263 426 185 q 519 506 519 342 m 301 1069 q 265 1134 289 1096 q 215 1210 242 1172 q 169 1274 189 1249 l 169 1292 l 293 1292 q 340 1245 315 1272 q 393 1185 365 1218 q 447 1246 424 1221 q 494 1292 471 1271 l 617 1292 l 617 1274 q 572 1210 597 1247 q 524 1135 547 1172 q 485 1069 500 1099 l 301 1069 z "},"ď":{"ha":710,"x_min":47,"x_max":901,"o":"m 901 1040 q 878 969 892 1006 q 849 898 865 932 q 814 833 832 864 l 681 833 l 681 851 q 689 894 685 868 q 697 950 693 921 q 704 1008 701 979 q 707 1056 707 1036 l 901 1056 l 901 1040 m 275 -14 q 106 92 165 -14 q 47 383 47 199 q 106 673 47 568 q 268 778 165 778 q 334 766 304 778 q 389 729 364 754 q 435 665 414 704 l 442 665 q 437 747 439 714 q 435 803 435 781 l 435 1056 l 636 1056 l 636 0 l 475 0 l 447 79 l 435 79 q 390 26 413 47 q 340 -4 367 6 q 275 -14 313 -14 m 338 154 q 411 203 388 154 q 435 363 435 253 l 435 406 q 412 556 435 508 q 338 604 389 604 q 273 549 294 604 q 251 385 251 493 q 274 211 251 268 q 338 154 296 154 z "},"Đ":{"ha":794,"x_min":6,"x_max":738,"o":"m 344 992 q 558 937 471 992 q 692 776 646 882 q 738 515 738 671 q 690 235 738 350 q 551 60 642 119 q 329 0 461 0 l 86 0 l 86 435 l 6 435 l 6 592 l 86 592 l 86 992 l 344 992 m 342 808 l 297 808 l 297 592 l 400 592 l 400 435 l 297 435 l 297 185 l 328 185 q 473 263 426 185 q 519 507 519 342 q 499 679 519 613 q 440 777 479 746 q 342 808 400 808 z "},"đ":{"ha":710,"x_min":47,"x_max":719,"o":"m 275 -14 q 106 90 165 -14 q 47 371 47 193 q 106 650 47 550 q 268 750 165 750 q 334 738 304 750 q 389 701 364 726 q 435 639 414 676 l 442 639 q 437 720 439 686 q 435 776 435 754 l 435 808 l 317 808 l 317 950 l 435 950 l 435 1056 l 636 1056 l 636 950 l 719 950 l 719 808 l 636 808 l 636 0 l 475 0 l 446 79 l 435 79 q 389 26 413 47 q 339 -4 365 6 q 275 -14 313 -14 m 338 154 q 411 201 388 154 q 435 351 435 249 l 435 390 q 412 531 435 486 q 338 576 389 576 q 273 525 294 576 q 251 371 251 474 q 274 208 251 263 q 338 154 296 154 z "},"Ē":{"ha":603,"x_min":86,"x_max":546,"o":"m 546 0 l 86 0 l 86 992 l 546 992 l 546 813 l 297 813 l 297 604 l 528 604 l 528 424 l 297 424 l 297 182 l 546 182 l 546 0 m 514 1233 l 514 1088 l 117 1088 l 117 1233 l 514 1233 z "},"ē":{"ha":651,"x_min":47,"x_max":610,"o":"m 333 776 q 483 735 421 776 q 578 616 546 693 q 610 429 610 539 l 610 321 l 244 321 q 280 190 246 232 q 383 149 314 149 q 478 162 433 149 q 572 206 522 175 l 572 40 q 471 -1 525 13 q 354 -14 417 -14 q 179 33 247 -14 q 79 167 111 79 q 47 378 47 254 q 79 594 47 506 q 175 730 111 683 q 333 776 239 776 m 338 619 q 272 584 297 619 q 246 464 247 549 l 422 464 q 412 550 422 515 q 383 602 401 585 q 338 619 365 619 m 531 1006 l 531 860 l 133 860 l 133 1006 l 531 1006 z "},"Ĕ":{"ha":603,"x_min":86,"x_max":546,"o":"m 546 0 l 86 0 l 86 992 l 546 992 l 546 813 l 297 813 l 297 604 l 528 604 l 528 424 l 297 424 l 297 182 l 546 182 l 546 0 m 524 1307 q 496 1181 524 1235 q 420 1099 468 1128 q 313 1071 372 1071 q 163 1131 221 1071 q 104 1307 106 1190 l 224 1307 q 237 1253 226 1274 q 266 1222 247 1232 q 313 1211 285 1211 q 360 1220 340 1211 q 392 1251 381 1229 q 406 1307 404 1272 l 524 1307 z "},"ĕ":{"ha":651,"x_min":47,"x_max":610,"o":"m 333 776 q 483 735 421 776 q 578 616 546 693 q 610 429 610 539 l 610 321 l 244 321 q 280 190 246 232 q 383 149 314 149 q 478 162 433 149 q 572 206 522 175 l 572 40 q 471 -1 525 13 q 354 -14 417 -14 q 179 33 247 -14 q 79 167 111 79 q 47 378 47 254 q 79 594 47 506 q 175 730 111 683 q 333 776 239 776 m 338 619 q 272 584 297 619 q 246 464 247 549 l 422 464 q 412 550 422 515 q 383 602 401 585 q 338 619 365 619 m 542 1079 q 514 953 542 1007 q 438 872 486 900 q 331 843 390 843 q 181 903 239 843 q 122 1079 124 963 l 242 1079 q 255 1025 244 1046 q 284 994 265 1004 q 331 983 303 983 q 378 992 358 983 q 410 1023 399 1001 q 424 1079 422 1044 l 542 1079 z "},"Ė":{"ha":603,"x_min":86,"x_max":546,"o":"m 546 0 l 86 0 l 86 992 l 546 992 l 546 813 l 297 813 l 297 604 l 528 604 l 528 424 l 297 424 l 297 182 l 546 182 l 546 0 m 322 1294 q 405 1267 379 1294 q 431 1185 431 1239 q 403 1103 431 1131 q 322 1076 376 1076 q 242 1103 269 1076 q 214 1185 214 1131 q 240 1267 214 1240 q 322 1294 265 1294 z "},"ė":{"ha":651,"x_min":47,"x_max":610,"o":"m 333 776 q 483 735 421 776 q 578 616 546 693 q 610 429 610 539 l 610 321 l 244 321 q 280 190 246 232 q 383 149 314 149 q 478 162 433 149 q 572 206 522 175 l 572 40 q 471 -1 525 13 q 354 -14 417 -14 q 179 33 247 -14 q 79 167 111 79 q 47 378 47 254 q 79 594 47 506 q 175 730 111 683 q 333 776 239 776 m 338 619 q 272 584 297 619 q 246 464 247 549 l 422 464 q 412 550 422 515 q 383 602 401 585 q 338 619 365 619 m 340 1067 q 423 1039 397 1067 q 449 957 449 1011 q 422 876 449 903 q 340 849 394 849 q 260 876 288 849 q 232 957 232 903 q 258 1040 232 1013 q 340 1067 283 1067 z "},"Ę":{"ha":603,"x_min":86,"x_max":551,"o":"m 546 0 l 86 0 l 86 992 l 546 992 l 546 813 l 297 813 l 297 604 l 528 604 l 528 424 l 297 424 l 297 182 l 546 182 l 546 0 m 442 -136 q 457 -177 442 -160 q 499 -194 472 -194 q 530 -190 518 -194 q 551 -181 542 -186 l 551 -310 q 511 -323 536 -317 q 456 -329 486 -329 q 329 -290 371 -329 q 288 -181 288 -250 q 299 -113 288 -147 q 338 -44 311 -79 q 408 22 365 -10 l 514 0 q 456 -76 469 -47 q 442 -136 442 -104 z "},"ę":{"ha":651,"x_min":47,"x_max":610,"o":"m 467 -140 q 481 -178 467 -165 q 517 -190 496 -190 q 551 -186 531 -190 q 581 -176 571 -182 l 581 -311 q 527 -324 557 -321 q 472 -328 497 -328 q 351 -287 389 -328 q 313 -178 313 -247 q 324 -115 313 -144 q 358 -56 335 -85 q 418 1 382 -26 l 572 40 q 508 -35 532 -1 q 476 -94 485 -68 q 467 -140 467 -119 m 333 776 q 483 735 421 776 q 578 616 546 693 q 610 429 610 539 l 610 321 l 244 321 q 280 190 246 232 q 383 149 314 149 q 478 162 433 149 q 572 206 522 175 l 572 40 q 471 -1 525 13 q 354 -14 417 -14 q 179 33 247 -14 q 79 167 111 79 q 47 378 47 254 q 79 594 47 506 q 175 730 111 683 q 333 776 239 776 m 338 619 q 272 584 297 619 q 246 464 247 549 l 422 464 q 412 550 422 515 q 383 602 401 585 q 338 619 365 619 z "},"Ě":{"ha":603,"x_min":86,"x_max":546,"o":"m 546 0 l 86 0 l 86 992 l 546 992 l 546 813 l 297 813 l 297 604 l 528 604 l 528 424 l 297 424 l 297 182 l 546 182 l 546 0 m 222 1069 q 186 1134 210 1096 q 136 1210 163 1172 q 90 1274 110 1249 l 90 1292 l 214 1292 q 261 1245 236 1272 q 314 1185 286 1218 q 368 1246 344 1221 q 415 1292 392 1271 l 538 1292 l 538 1274 q 493 1210 518 1247 q 444 1135 468 1172 q 406 1069 421 1099 l 222 1069 z "},"ě":{"ha":651,"x_min":47,"x_max":610,"o":"m 333 776 q 483 735 421 776 q 578 616 546 693 q 610 429 610 539 l 610 321 l 244 321 q 280 190 246 232 q 383 149 314 149 q 478 162 433 149 q 572 206 522 175 l 572 40 q 471 -1 525 13 q 354 -14 417 -14 q 179 33 247 -14 q 79 167 111 79 q 47 378 47 254 q 79 594 47 506 q 175 730 111 683 q 333 776 239 776 m 338 619 q 272 584 297 619 q 246 464 247 549 l 422 464 q 412 550 422 515 q 383 602 401 585 q 338 619 365 619 m 240 842 q 204 906 228 868 q 154 983 181 944 q 108 1046 128 1021 l 108 1064 l 232 1064 q 279 1017 254 1044 q 332 957 304 990 q 386 1018 363 993 q 433 1064 410 1043 l 556 1064 l 556 1046 q 511 982 536 1019 q 463 908 486 944 q 424 842 439 871 l 240 842 z "},"Ĝ":{"ha":810,"x_min":57,"x_max":740,"o":"m 414 568 l 740 568 l 740 43 q 590 0 667 14 q 433 -14 514 -14 q 227 47 311 -14 q 100 224 143 108 q 57 499 57 339 q 106 769 57 656 q 248 944 154 882 q 474 1006 342 1006 q 613 988 549 1006 q 725 943 676 971 l 665 769 q 577 810 624 797 q 482 824 531 824 q 368 785 414 824 q 299 673 322 747 q 276 493 276 599 q 295 319 276 392 q 351 208 314 246 q 446 169 389 169 q 491 173 469 169 q 532 183 513 176 l 532 390 l 414 390 l 414 568 m 543 1292 q 580 1228 560 1261 q 624 1159 600 1194 q 675 1088 649 1124 l 675 1069 l 553 1069 q 505 1115 531 1089 q 451 1176 479 1142 q 396 1114 421 1142 q 351 1069 371 1086 l 228 1069 l 228 1088 q 274 1152 249 1114 q 324 1228 300 1190 q 360 1292 347 1267 l 543 1292 z "},"ĝ":{"ha":710,"x_min":47,"x_max":636,"o":"m 275 778 q 366 753 329 778 q 435 667 403 729 l 446 667 l 463 764 l 636 764 l 636 53 q 601 -158 636 -72 q 491 -289 565 -244 q 297 -333 417 -333 q 181 -319 233 -333 q 82 -278 129 -306 l 82 -103 q 191 -148 140 -135 q 292 -161 242 -161 q 396 -129 357 -161 q 435 -19 435 -97 l 435 -8 q 437 46 435 15 q 442 100 439 76 l 435 100 q 365 13 404 40 q 268 -14 326 -14 q 106 90 165 -14 q 47 376 47 193 q 108 672 47 565 q 275 778 168 778 m 336 604 q 290 579 310 604 q 261 503 271 554 q 251 374 251 451 q 274 213 251 265 q 339 160 296 160 q 382 172 364 160 q 412 207 400 183 q 429 267 424 231 q 435 353 435 303 l 435 392 q 424 514 435 467 q 393 583 414 561 q 336 604 372 604 m 458 1064 q 495 1000 475 1033 q 540 931 515 967 q 590 860 564 896 l 590 842 l 468 842 q 420 888 446 861 q 367 949 394 914 q 311 886 336 914 q 267 842 286 858 l 143 842 l 143 860 q 190 924 164 886 q 239 1001 215 963 q 275 1064 263 1039 l 458 1064 z "},"Ğ":{"ha":810,"x_min":57,"x_max":740,"o":"m 414 568 l 740 568 l 740 43 q 590 0 667 14 q 433 -14 514 -14 q 227 47 311 -14 q 100 224 143 108 q 57 499 57 339 q 106 769 57 656 q 248 944 154 882 q 474 1006 342 1006 q 613 988 549 1006 q 725 943 676 971 l 665 769 q 577 810 624 797 q 482 824 531 824 q 368 785 414 824 q 299 673 322 747 q 276 493 276 599 q 295 319 276 392 q 351 208 314 246 q 446 169 389 169 q 491 173 469 169 q 532 183 513 176 l 532 390 l 414 390 l 414 568 m 660 1307 q 632 1181 660 1235 q 556 1099 604 1128 q 449 1071 508 1071 q 299 1131 357 1071 q 240 1307 242 1190 l 360 1307 q 373 1253 363 1274 q 402 1222 383 1232 q 449 1211 421 1211 q 497 1220 476 1211 q 528 1251 517 1229 q 542 1307 540 1272 l 660 1307 z "},"ğ":{"ha":710,"x_min":47,"x_max":636,"o":"m 275 778 q 366 753 329 778 q 435 667 403 729 l 446 667 l 463 764 l 636 764 l 636 53 q 601 -158 636 -72 q 491 -289 565 -244 q 297 -333 417 -333 q 181 -319 233 -333 q 82 -278 129 -306 l 82 -103 q 191 -148 140 -135 q 292 -161 242 -161 q 396 -129 357 -161 q 435 -19 435 -97 l 435 -8 q 437 46 435 15 q 442 100 439 76 l 435 100 q 365 13 404 40 q 268 -14 326 -14 q 106 90 165 -14 q 47 376 47 193 q 108 672 47 565 q 275 778 168 778 m 336 604 q 290 579 310 604 q 261 503 271 554 q 251 374 251 451 q 274 213 251 265 q 339 160 296 160 q 382 172 364 160 q 412 207 400 183 q 429 267 424 231 q 435 353 435 303 l 435 392 q 424 514 435 467 q 393 583 414 561 q 336 604 372 604 m 576 1079 q 549 953 576 1007 q 473 872 521 900 q 365 843 425 843 q 216 903 274 843 q 157 1079 158 963 l 276 1079 q 290 1025 279 1046 q 319 994 300 1004 q 365 983 338 983 q 413 992 393 983 q 445 1023 433 1001 q 458 1079 457 1044 l 576 1079 z "},"Ġ":{"ha":810,"x_min":57,"x_max":740,"o":"m 414 568 l 740 568 l 740 43 q 590 0 667 14 q 433 -14 514 -14 q 227 47 311 -14 q 100 224 143 108 q 57 499 57 339 q 106 769 57 656 q 248 944 154 882 q 474 1006 342 1006 q 613 988 549 1006 q 725 943 676 971 l 665 769 q 577 810 624 797 q 482 824 531 824 q 368 785 414 824 q 299 673 322 747 q 276 493 276 599 q 295 319 276 392 q 351 208 314 246 q 446 169 389 169 q 491 173 469 169 q 532 183 513 176 l 532 390 l 414 390 l 414 568 m 460 1294 q 542 1267 517 1294 q 568 1185 568 1239 q 541 1103 568 1131 q 460 1076 514 1076 q 379 1103 407 1076 q 351 1185 351 1131 q 377 1267 351 1240 q 460 1294 403 1294 z "},"ġ":{"ha":710,"x_min":47,"x_max":636,"o":"m 275 778 q 366 753 329 778 q 435 667 403 729 l 446 667 l 463 764 l 636 764 l 636 53 q 601 -158 636 -72 q 491 -289 565 -244 q 297 -333 417 -333 q 181 -319 233 -333 q 82 -278 129 -306 l 82 -103 q 191 -148 140 -135 q 292 -161 242 -161 q 396 -129 357 -161 q 435 -19 435 -97 l 435 -8 q 437 46 435 15 q 442 100 439 76 l 435 100 q 365 13 404 40 q 268 -14 326 -14 q 106 90 165 -14 q 47 376 47 193 q 108 672 47 565 q 275 778 168 778 m 336 604 q 290 579 310 604 q 261 503 271 554 q 251 374 251 451 q 274 213 251 265 q 339 160 296 160 q 382 172 364 160 q 412 207 400 183 q 429 267 424 231 q 435 353 435 303 l 435 392 q 424 514 435 467 q 393 583 414 561 q 336 604 372 604 m 375 1067 q 458 1039 432 1067 q 483 957 483 1011 q 456 876 483 903 q 375 849 429 849 q 294 876 322 849 q 267 957 267 903 q 292 1040 267 1013 q 375 1067 318 1067 z "},"Ģ":{"ha":810,"x_min":57,"x_max":740,"o":"m 414 568 l 740 568 l 740 43 q 590 0 667 14 q 433 -14 514 -14 q 227 47 311 -14 q 100 224 143 108 q 57 499 57 339 q 106 769 57 656 q 248 944 154 882 q 474 1006 342 1006 q 613 988 549 1006 q 725 943 676 971 l 665 769 q 577 810 624 797 q 482 824 531 824 q 368 785 414 824 q 299 673 322 747 q 276 493 276 599 q 295 319 276 392 q 351 208 314 246 q 446 169 389 169 q 491 173 469 169 q 532 183 513 176 l 532 390 l 414 390 l 414 568 m 558 -100 q 535 -172 549 -135 q 504 -242 521 -208 q 468 -307 488 -276 l 336 -307 l 336 -289 q 348 -228 342 -265 q 359 -151 354 -190 q 365 -85 364 -112 l 558 -85 l 558 -100 z "},"ģ":{"ha":710,"x_min":47,"x_max":636,"o":"m 461 1046 q 447 970 453 1007 q 436 901 440 933 q 431 842 432 868 l 238 842 l 238 857 q 260 926 247 890 q 291 997 274 963 q 328 1064 308 1032 l 461 1064 l 461 1046 m 275 778 q 366 753 329 778 q 435 667 403 729 l 446 667 l 463 764 l 636 764 l 636 53 q 601 -158 636 -72 q 491 -289 565 -244 q 297 -333 417 -333 q 181 -319 233 -333 q 82 -278 129 -306 l 82 -103 q 191 -148 140 -135 q 292 -161 242 -161 q 396 -129 357 -161 q 435 -19 435 -97 l 435 -8 q 437 46 435 15 q 442 100 439 76 l 435 100 q 365 13 404 40 q 268 -14 326 -14 q 106 90 165 -14 q 47 376 47 193 q 108 672 47 565 q 275 778 168 778 m 336 604 q 290 579 310 604 q 261 503 271 554 q 251 374 251 451 q 274 213 251 265 q 339 160 296 160 q 382 172 364 160 q 412 207 400 183 q 429 267 424 231 q 435 353 435 303 l 435 392 q 424 514 435 467 q 393 583 414 561 q 336 604 372 604 z "},"Ĥ":{"ha":824,"x_min":86,"x_max":738,"o":"m 738 0 l 526 0 l 526 425 l 297 425 l 297 0 l 86 0 l 86 992 l 297 992 l 297 607 l 526 607 l 526 992 l 738 992 l 738 0 m 504 1292 q 541 1228 521 1261 q 585 1159 561 1194 q 636 1088 610 1124 l 636 1069 l 514 1069 q 466 1115 492 1089 q 413 1176 440 1142 q 357 1114 382 1142 q 313 1069 332 1086 l 189 1069 l 189 1088 q 235 1152 210 1114 q 285 1228 261 1190 q 321 1292 308 1267 l 504 1292 z "},"ĥ":{"ha":714,"x_min":-49,"x_max":642,"o":"m 275 840 q 272 753 275 797 q 260 668 268 708 l 271 668 q 310 728 286 704 q 365 765 333 753 q 436 778 397 778 q 547 745 501 778 q 617 651 593 713 q 642 500 642 590 l 642 0 l 440 0 l 440 440 q 424 559 440 521 q 374 597 408 597 q 313 572 333 597 q 283 494 292 547 q 275 358 275 442 l 275 0 l 74 0 l 74 1056 l 275 1056 l 275 840 m 267 1356 q 303 1292 283 1325 q 348 1223 324 1258 q 399 1151 372 1188 l 399 1133 l 276 1133 q 228 1179 254 1153 q 175 1240 203 1206 q 119 1178 144 1206 q 75 1133 94 1150 l -49 1133 l -49 1151 q -2 1216 -28 1178 q 47 1292 24 1254 q 83 1356 71 1331 l 267 1356 z "},"Ħ":{"ha":824,"x_min":-6,"x_max":829,"o":"m 86 0 l 86 726 l -6 726 l -6 869 l 86 869 l 86 992 l 297 992 l 297 869 l 526 869 l 526 992 l 739 992 l 739 869 l 829 869 l 829 726 l 739 726 l 739 0 l 526 0 l 526 425 l 297 425 l 297 0 l 86 0 m 297 607 l 526 607 l 526 726 l 297 726 l 297 607 z "},"ħ":{"ha":714,"x_min":-6,"x_max":642,"o":"m 275 1056 l 275 950 l 406 950 l 406 807 l 275 807 l 275 776 q 272 716 275 750 q 260 640 268 682 l 271 640 q 310 701 286 676 q 365 738 333 725 q 435 750 397 750 q 547 718 501 750 q 617 624 593 686 q 642 474 642 563 l 642 0 l 439 0 l 439 413 q 423 532 439 493 q 372 571 407 571 q 315 549 336 571 q 284 474 293 526 q 275 332 275 422 l 275 0 l 74 0 l 74 807 l -6 807 l -6 950 l 74 950 l 74 1056 l 275 1056 z "},"Ĩ":{"ha":471,"x_min":3,"x_max":469,"o":"m 433 0 l 38 0 l 38 114 l 131 157 l 131 835 l 38 878 l 38 992 l 433 992 l 433 878 l 342 835 l 342 157 l 433 114 l 433 0 m 3 1068 q 8 1138 4 1100 q 25 1209 13 1175 q 62 1265 38 1243 q 125 1286 86 1286 q 178 1276 153 1286 q 228 1251 204 1265 q 276 1228 253 1238 q 321 1218 299 1218 q 349 1236 340 1218 q 363 1288 357 1254 l 469 1288 q 433 1125 469 1181 q 346 1069 397 1069 q 292 1079 319 1069 q 239 1103 264 1089 q 192 1127 214 1117 q 153 1138 169 1138 q 127 1122 140 1138 q 110 1068 114 1106 l 3 1068 z "},"ĩ":{"ha":353,"x_min":-58,"x_max":410,"o":"m 276 0 l 75 0 l 75 764 l 276 764 l 276 0 m -58 840 q -53 910 -57 872 q -36 981 -49 947 q 1 1037 -24 1015 q 64 1058 25 1058 q 117 1048 92 1058 q 167 1024 143 1038 q 215 1000 192 1010 q 260 990 238 990 q 288 1008 279 990 q 301 1060 296 1026 l 408 1060 q 372 897 408 953 q 285 842 336 842 q 231 851 258 842 q 178 875 203 861 q 131 899 153 889 q 92 910 108 910 q 66 894 79 910 q 49 840 53 878 l -58 840 z "},"Ī":{"ha":471,"x_min":38,"x_max":435,"o":"m 433 0 l 38 0 l 38 114 l 131 157 l 131 835 l 38 878 l 38 992 l 433 992 l 433 878 l 342 835 l 342 157 l 433 114 l 433 0 m 435 1233 l 435 1088 l 38 1088 l 38 1233 l 435 1233 z "},"ī":{"ha":353,"x_min":-24,"x_max":374,"o":"m 276 0 l 75 0 l 75 764 l 276 764 l 276 0 m 374 1006 l 374 860 l -24 860 l -24 1006 l 374 1006 z "},"Ĭ":{"ha":471,"x_min":25,"x_max":444,"o":"m 433 0 l 38 0 l 38 114 l 131 157 l 131 835 l 38 878 l 38 992 l 433 992 l 433 878 l 342 835 l 342 157 l 433 114 l 433 0 m 444 1307 q 417 1181 444 1235 q 341 1099 389 1128 q 233 1071 293 1071 q 84 1131 142 1071 q 25 1307 26 1190 l 144 1307 q 158 1253 147 1274 q 187 1222 168 1232 q 233 1211 206 1211 q 281 1220 261 1211 q 313 1251 301 1229 q 326 1307 325 1272 l 444 1307 z "},"ĭ":{"ha":353,"x_min":-35,"x_max":385,"o":"m 276 0 l 75 0 l 75 764 l 276 764 l 276 0 m 385 1079 q 357 953 385 1007 q 281 872 329 900 q 174 843 233 843 q 24 903 82 843 q -35 1079 -33 963 l 85 1079 q 98 1025 88 1046 q 127 994 108 1004 q 174 983 146 983 q 222 992 201 983 q 253 1023 242 1001 q 267 1079 265 1044 l 385 1079 z "},"Į":{"ha":471,"x_min":38,"x_max":433,"o":"m 433 0 l 38 0 l 38 114 l 131 157 l 131 835 l 38 878 l 38 992 l 433 992 l 433 878 l 342 835 l 342 157 l 433 114 l 433 0 m 319 -136 q 335 -177 319 -160 q 376 -194 350 -194 q 408 -190 396 -194 q 429 -181 419 -186 l 429 -310 q 389 -323 414 -317 q 333 -329 364 -329 q 207 -290 249 -329 q 165 -181 165 -250 q 177 -113 165 -147 q 216 -44 189 -79 q 286 22 243 -10 l 392 0 q 333 -76 347 -47 q 319 -136 319 -104 z "},"į":{"ha":353,"x_min":17,"x_max":285,"o":"m 276 764 l 276 0 l 75 0 l 75 764 l 276 764 m 176 1067 q 258 1039 232 1067 q 285 957 285 1011 q 257 876 285 903 q 176 849 229 849 q 95 876 122 849 q 68 957 68 903 q 94 1040 68 1013 q 176 1067 119 1067 m 171 -136 q 186 -177 171 -160 q 228 -194 201 -194 q 259 -190 247 -194 q 281 -181 271 -186 l 281 -310 q 240 -323 265 -317 q 185 -329 215 -329 q 58 -290 100 -329 q 17 -181 17 -250 q 28 -113 17 -147 q 67 -44 40 -79 q 138 22 94 -10 l 243 0 q 185 -76 199 -47 q 171 -136 171 -104 z "},"İ":{"ha":471,"x_min":38,"x_max":433,"o":"m 433 0 l 38 0 l 38 114 l 131 157 l 131 835 l 38 878 l 38 992 l 433 992 l 433 878 l 342 835 l 342 157 l 433 114 l 433 0 m 243 1294 q 326 1267 300 1294 q 351 1185 351 1239 q 324 1103 351 1131 q 243 1076 297 1076 q 163 1103 190 1076 q 135 1185 135 1131 q 160 1267 135 1240 q 243 1294 186 1294 z "},"Ĳ":{"ha":850,"x_min":38,"x_max":764,"o":"m 433 0 l 38 0 l 38 114 l 131 157 l 131 835 l 38 878 l 38 992 l 433 992 l 433 878 l 342 835 l 342 157 l 433 114 l 433 0 m 494 -303 q 438 -299 465 -303 q 385 -287 410 -296 l 385 -108 q 420 -118 401 -114 q 461 -122 439 -122 q 516 -106 496 -122 q 545 -52 536 -90 q 554 53 554 -14 l 554 992 l 764 992 l 764 60 q 733 -158 764 -79 q 641 -269 701 -236 q 494 -303 581 -303 z "},"ĳ":{"ha":704,"x_min":68,"x_max":636,"o":"m 276 764 l 276 0 l 75 0 l 75 764 l 276 764 m 176 1067 q 258 1039 232 1067 q 285 957 285 1011 q 257 876 285 903 q 176 849 229 849 q 95 876 122 849 q 68 957 68 903 q 94 1040 68 1013 q 176 1067 119 1067 m 414 -333 q 360 -330 388 -333 q 307 -318 333 -326 l 307 -146 q 338 -155 324 -151 q 367 -158 353 -158 q 413 -133 399 -158 q 428 -60 428 -108 l 428 764 l 629 764 l 629 -74 q 603 -220 629 -162 q 530 -305 578 -278 q 414 -333 482 -332 m 421 957 q 447 1040 421 1013 q 529 1067 472 1067 q 611 1039 585 1067 q 638 957 638 1011 q 610 876 638 903 q 529 849 582 849 q 448 876 475 849 q 421 957 421 903 z "},"Ĵ":{"ha":383,"x_min":-81,"x_max":417,"o":"m 29 -303 q -28 -299 0 -303 q -81 -287 -56 -296 l -81 -108 q -45 -118 -64 -114 q -4 -122 -26 -122 q 51 -106 31 -122 q 80 -52 71 -90 q 89 53 89 -14 l 89 992 l 299 992 l 299 60 q 267 -158 299 -79 q 176 -269 236 -236 q 29 -303 115 -303 m 286 1292 q 323 1228 303 1261 q 367 1159 343 1194 q 418 1088 392 1124 l 418 1069 l 296 1069 q 248 1115 274 1089 q 194 1176 222 1142 q 139 1114 164 1142 q 94 1069 114 1086 l -29 1069 l -29 1088 q 17 1152 -8 1114 q 67 1228 43 1190 q 103 1292 90 1267 l 286 1292 z "},"ĵ":{"ha":353,"x_min":-47,"x_max":400,"o":"m 61 -333 q 5 -328 38 -333 q -46 -318 -28 -324 l -46 -146 q -15 -155 -29 -151 q 14 -158 0 -158 q 60 -135 46 -158 q 75 -65 75 -111 l 75 764 l 276 764 l 276 -74 q 251 -212 276 -154 q 178 -302 226 -271 q 61 -333 131 -333 m 268 1064 q 305 1000 285 1033 q 349 931 325 967 q 400 860 374 896 l 400 842 l 278 842 q 230 888 256 861 q 176 949 204 914 q 121 886 146 914 q 76 842 96 858 l -47 842 l -47 860 q -1 924 -26 886 q 49 1001 25 963 q 85 1064 72 1039 l 268 1064 z "},"Ķ":{"ha":736,"x_min":86,"x_max":747,"o":"m 747 0 l 513 0 l 356 388 l 297 340 l 297 0 l 86 0 l 86 992 l 297 992 l 297 547 q 319 607 304 575 q 353 676 333 639 l 521 992 l 747 992 l 507 549 l 747 0 m 511 -100 q 488 -172 501 -135 q 457 -242 474 -208 q 421 -307 440 -276 l 289 -307 l 289 -289 q 301 -228 294 -265 q 312 -151 307 -190 q 318 -85 317 -112 l 511 -85 l 511 -100 z "},"ķ":{"ha":688,"x_min":74,"x_max":693,"o":"m 275 614 q 274 516 275 565 q 267 419 272 467 l 271 419 q 290 459 281 440 q 308 495 299 478 q 326 526 318 513 l 467 764 l 683 764 l 482 446 l 693 0 l 472 0 l 343 297 l 275 235 l 275 0 l 74 0 l 74 1056 l 275 1056 l 275 614 m 475 -100 q 451 -172 465 -135 q 421 -242 438 -208 q 385 -307 404 -276 l 253 -307 l 253 -289 q 265 -228 258 -265 q 276 -151 271 -190 q 282 -85 281 -112 l 475 -85 l 475 -100 z "},"ĸ":{"ha":688,"x_min":74,"x_max":693,"o":"m 683 764 l 482 446 l 693 0 l 472 0 l 343 297 l 275 235 l 275 0 l 74 0 l 74 764 l 275 764 l 275 614 q 274 515 275 564 q 267 419 272 467 l 271 419 q 299 476 285 449 q 325 524 313 503 l 467 764 l 683 764 z "},"Ĺ":{"ha":578,"x_min":81,"x_max":558,"o":"m 86 0 l 86 992 l 297 992 l 297 182 l 558 182 l 558 0 l 86 0 m 419 1279 q 383 1233 406 1260 q 333 1178 360 1207 q 279 1121 307 1149 q 226 1069 251 1093 l 81 1069 l 81 1088 q 124 1160 104 1125 q 161 1228 144 1194 q 192 1292 178 1261 l 419 1292 l 419 1279 z "},"ĺ":{"ha":350,"x_min":63,"x_max":403,"o":"m 275 0 l 74 0 l 74 1056 l 275 1056 l 275 0 m 401 1343 q 365 1297 388 1324 q 315 1242 342 1271 q 261 1185 289 1213 q 208 1133 233 1157 l 63 1133 l 63 1151 q 106 1224 86 1189 q 143 1292 126 1258 q 174 1356 160 1325 l 401 1356 l 401 1343 z "},"Ļ":{"ha":578,"x_min":86,"x_max":558,"o":"m 86 0 l 86 992 l 297 992 l 297 182 l 558 182 l 558 0 l 86 0 m 435 -100 q 411 -172 425 -135 q 381 -242 397 -208 q 344 -307 364 -276 l 213 -307 l 213 -289 q 224 -228 218 -265 q 235 -151 231 -190 q 242 -85 240 -112 l 435 -85 l 435 -100 z "},"ļ":{"ha":350,"x_min":65,"x_max":288,"o":"m 275 0 l 74 0 l 74 1056 l 275 1056 l 275 0 m 288 -100 q 264 -172 278 -135 q 233 -242 250 -208 q 197 -307 217 -276 l 65 -307 l 65 -289 q 77 -228 71 -265 q 88 -151 83 -190 q 94 -85 93 -112 l 288 -85 l 288 -100 z "},"Ľ":{"ha":578,"x_min":86,"x_max":625,"o":"m 625 975 q 603 903 617 940 q 573 833 589 867 q 538 768 557 799 l 406 768 l 406 788 q 413 830 408 804 q 421 885 417 856 q 428 943 425 915 q 432 990 431 971 l 625 990 l 625 975 m 86 0 l 86 992 l 297 992 l 297 182 l 558 182 l 558 0 l 86 0 z "},"ľ":{"ha":350,"x_min":74,"x_max":542,"o":"m 542 1040 q 519 969 532 1006 q 489 898 506 932 q 454 833 472 864 l 321 833 l 321 851 q 329 894 325 868 q 338 950 333 921 q 344 1008 342 979 q 347 1056 347 1036 l 542 1056 l 542 1040 m 275 0 l 74 0 l 74 1056 l 275 1056 l 275 0 z "},"Ŀ":{"ha":578,"x_min":86,"x_max":597,"o":"m 86 0 l 86 992 l 297 992 l 297 182 l 558 182 l 558 0 l 86 0 m 489 653 q 572 625 546 653 q 597 543 597 597 q 570 462 597 489 q 489 435 543 435 q 408 462 436 435 q 381 543 381 489 q 406 626 381 599 q 489 653 432 653 z "},"ŀ":{"ha":500,"x_min":74,"x_max":535,"o":"m 275 0 l 74 0 l 74 1056 l 275 1056 l 275 0 m 426 644 q 509 617 483 644 q 535 535 535 589 q 508 453 535 481 q 426 426 481 426 q 346 453 374 426 q 318 535 318 481 q 344 617 318 590 q 426 644 369 644 z "},"Ł":{"ha":607,"x_min":-32,"x_max":586,"o":"m 114 0 l 114 332 l 67 299 l -32 421 l 114 535 l 114 992 l 325 992 l 325 690 l 428 768 l 525 643 l 325 489 l 325 182 l 586 182 l 586 0 l 114 0 z "},"ł":{"ha":419,"x_min":-36,"x_max":457,"o":"m 110 0 l 110 346 l 63 308 l -36 433 l 110 550 l 110 1056 l 311 1056 l 311 700 l 358 738 l 457 614 l 311 496 l 311 0 l 110 0 z "},"Ń":{"ha":886,"x_min":86,"x_max":800,"o":"m 800 0 l 553 0 l 278 657 l 272 657 q 279 561 276 606 q 283 481 282 517 q 283 417 283 446 l 283 0 l 86 0 l 86 992 l 332 992 l 607 350 l 611 350 q 606 441 608 399 q 603 519 604 483 q 601 582 601 554 l 601 992 l 800 992 l 800 0 m 669 1279 q 633 1233 656 1260 q 583 1178 610 1207 q 529 1121 557 1149 q 476 1069 501 1093 l 331 1069 l 331 1088 q 374 1160 354 1125 q 411 1228 394 1194 q 442 1292 428 1261 l 669 1292 l 669 1279 z "},"ń":{"ha":714,"x_min":74,"x_max":642,"o":"m 436 778 q 588 706 533 778 q 642 501 642 635 l 642 0 l 440 0 l 440 440 q 426 558 440 518 q 368 599 411 599 q 295 545 315 599 q 275 358 275 492 l 275 0 l 74 0 l 74 764 l 232 764 l 254 668 l 267 668 q 308 728 283 704 q 365 765 333 753 q 436 778 397 778 m 597 1051 q 560 1006 583 1032 q 511 950 538 979 q 457 893 485 921 q 404 842 429 865 l 258 842 l 258 860 q 302 932 282 897 q 339 1000 322 967 q 369 1064 356 1033 l 597 1064 l 597 1051 z "},"Ņ":{"ha":886,"x_min":86,"x_max":800,"o":"m 800 0 l 553 0 l 278 657 l 272 657 q 279 561 276 606 q 283 481 282 517 q 283 417 283 446 l 283 0 l 86 0 l 86 992 l 332 992 l 607 350 l 611 350 q 606 441 608 399 q 603 519 604 483 q 601 582 601 554 l 601 992 l 800 992 l 800 0 m 554 -100 q 531 -172 544 -135 q 500 -242 517 -208 q 464 -307 483 -276 l 332 -307 l 332 -289 q 344 -228 338 -265 q 355 -151 350 -190 q 361 -85 360 -112 l 554 -85 l 554 -100 z "},"ņ":{"ha":714,"x_min":74,"x_max":642,"o":"m 436 778 q 588 706 533 778 q 642 501 642 635 l 642 0 l 440 0 l 440 440 q 426 558 440 518 q 368 599 411 599 q 295 545 315 599 q 275 358 275 492 l 275 0 l 74 0 l 74 764 l 232 764 l 254 668 l 267 668 q 308 728 283 704 q 365 765 333 753 q 436 778 397 778 m 468 -100 q 444 -172 458 -135 q 414 -242 431 -208 q 378 -307 397 -276 l 246 -307 l 246 -289 q 258 -228 251 -265 q 269 -151 264 -190 q 275 -85 274 -112 l 468 -85 l 468 -100 z "},"Ň":{"ha":886,"x_min":86,"x_max":800,"o":"m 800 0 l 553 0 l 278 657 l 272 657 q 279 561 276 606 q 283 481 282 517 q 283 417 283 446 l 283 0 l 86 0 l 86 992 l 332 992 l 607 350 l 611 350 q 606 441 608 399 q 603 519 604 483 q 601 582 601 554 l 601 992 l 800 992 l 800 0 m 351 1069 q 315 1134 339 1096 q 265 1210 292 1172 q 219 1274 239 1249 l 219 1292 l 343 1292 q 390 1245 365 1272 q 443 1185 415 1218 q 497 1246 474 1221 q 544 1292 521 1271 l 667 1292 l 667 1274 q 622 1210 647 1247 q 574 1135 597 1172 q 535 1069 550 1099 l 351 1069 z "},"ň":{"ha":714,"x_min":74,"x_max":642,"o":"m 436 778 q 588 706 533 778 q 642 501 642 635 l 642 0 l 440 0 l 440 440 q 426 558 440 518 q 368 599 411 599 q 295 545 315 599 q 275 358 275 492 l 275 0 l 74 0 l 74 764 l 232 764 l 254 668 l 267 668 q 308 728 283 704 q 365 765 333 753 q 436 778 397 778 m 279 842 q 243 906 267 868 q 193 983 219 944 q 147 1046 167 1021 l 147 1064 l 271 1064 q 318 1017 293 1044 q 371 957 343 990 q 425 1018 401 993 q 472 1064 449 1043 l 594 1064 l 594 1046 q 550 982 575 1019 q 501 908 525 944 q 463 842 478 871 l 279 842 z "},"ŉ":{"ha":897,"x_min":3,"x_max":824,"o":"m 619 778 q 771 706 717 778 q 825 501 825 635 l 825 0 l 624 0 l 624 440 q 609 558 624 518 q 551 599 594 599 q 478 545 499 599 q 458 358 458 492 l 458 0 l 257 0 l 257 764 l 415 764 l 438 668 l 450 668 q 492 728 467 704 q 549 765 517 753 q 619 778 581 778 m 261 976 q 236 839 250 904 q 206 716 222 774 q 168 607 189 658 l 3 607 q 19 695 10 644 q 35 801 28 746 q 47 907 42 857 q 56 992 53 957 l 253 992 l 261 976 z "},"Ŋ":{"ha":886,"x_min":86,"x_max":800,"o":"m 543 -303 q 487 -299 514 -303 q 433 -287 460 -296 l 433 -107 q 469 -118 450 -114 q 510 -122 488 -122 q 563 -108 543 -122 q 592 -65 583 -93 q 601 6 601 -36 l 276 685 l 272 685 q 278 590 276 635 q 281 510 281 546 q 282 444 282 474 l 282 0 l 86 0 l 86 992 l 332 992 l 606 419 l 610 419 q 605 508 607 467 q 602 586 603 550 q 601 651 601 622 l 601 992 l 800 992 l 800 43 q 773 -150 800 -74 q 690 -265 746 -226 q 543 -303 633 -303 z "},"ŋ":{"ha":714,"x_min":74,"x_max":642,"o":"m 426 -333 q 372 -330 400 -333 q 319 -318 344 -326 l 319 -146 q 351 -155 336 -151 q 379 -158 365 -158 q 426 -133 411 -158 q 440 -60 440 -108 l 440 440 q 425 558 440 518 q 372 597 410 597 q 319 578 340 597 q 286 508 297 560 q 275 358 275 457 l 275 0 l 74 0 l 74 764 l 232 764 l 254 668 l 265 668 q 308 728 283 704 q 365 765 332 753 q 436 778 397 778 q 549 744 504 778 q 618 649 594 711 q 642 497 642 586 l 642 -74 q 619 -203 642 -143 q 549 -298 597 -262 q 426 -333 501 -333 z "},"Ō":{"ha":842,"x_min":57,"x_max":785,"o":"m 785 497 q 762 281 785 376 q 694 120 739 186 q 580 20 649 54 q 421 -14 511 -14 q 263 21 332 -14 q 149 122 194 56 q 80 283 103 188 q 57 499 57 378 q 99 778 57 665 q 222 949 140 892 q 421 1007 303 1007 q 624 947 543 1007 q 744 774 704 888 q 785 497 785 660 m 276 497 q 292 317 276 389 q 341 208 308 244 q 421 172 374 172 q 501 208 469 172 q 549 315 533 243 q 565 497 565 386 q 529 744 565 663 q 421 825 493 825 q 341 788 374 825 q 292 678 308 751 q 276 497 276 606 m 621 1233 l 621 1088 l 224 1088 l 224 1233 l 621 1233 z "},"ō":{"ha":696,"x_min":47,"x_max":647,"o":"m 647 383 q 631 235 647 307 q 581 108 615 164 q 488 19 546 51 q 347 -14 431 -14 q 213 18 269 -14 q 119 106 156 50 q 65 234 83 163 q 47 383 47 306 q 78 586 47 497 q 176 726 110 675 q 349 778 243 778 q 507 732 440 778 q 610 598 574 686 q 647 383 647 510 m 251 381 q 262 256 251 307 q 294 181 272 206 q 347 156 315 156 q 403 181 383 156 q 433 257 424 206 q 443 383 443 308 q 433 510 443 460 q 403 584 424 560 q 349 608 383 608 q 274 553 297 608 q 251 381 251 497 m 547 1006 l 547 860 l 150 860 l 150 1006 l 547 1006 z "},"Ŏ":{"ha":842,"x_min":57,"x_max":785,"o":"m 785 497 q 762 281 785 376 q 694 120 739 186 q 580 20 649 54 q 421 -14 511 -14 q 263 21 332 -14 q 149 122 194 56 q 80 283 103 188 q 57 499 57 378 q 99 778 57 665 q 222 949 140 892 q 421 1007 303 1007 q 624 947 543 1007 q 744 774 704 888 q 785 497 785 660 m 276 497 q 292 317 276 389 q 341 208 308 244 q 421 172 374 172 q 501 208 469 172 q 549 315 533 243 q 565 497 565 386 q 529 744 565 663 q 421 825 493 825 q 341 788 374 825 q 292 678 308 751 q 276 497 276 606 m 631 1307 q 603 1181 631 1235 q 527 1099 575 1128 q 419 1071 479 1071 q 270 1131 328 1071 q 211 1307 213 1190 l 331 1307 q 344 1253 333 1274 q 373 1222 354 1232 q 419 1211 392 1211 q 467 1220 447 1211 q 499 1251 488 1229 q 513 1307 511 1272 l 631 1307 z "},"ŏ":{"ha":696,"x_min":47,"x_max":647,"o":"m 647 383 q 631 235 647 307 q 581 108 615 164 q 488 19 546 51 q 347 -14 431 -14 q 213 18 269 -14 q 119 106 156 50 q 65 234 83 163 q 47 383 47 306 q 78 586 47 497 q 176 726 110 675 q 349 778 243 778 q 507 732 440 778 q 610 598 574 686 q 647 383 647 510 m 251 381 q 262 256 251 307 q 294 181 272 206 q 347 156 315 156 q 403 181 383 156 q 433 257 424 206 q 443 383 443 308 q 433 510 443 460 q 403 584 424 560 q 349 608 383 608 q 274 553 297 608 q 251 381 251 497 m 557 1079 q 529 953 557 1007 q 453 872 501 900 q 346 843 406 843 q 197 903 254 843 q 138 1079 139 963 l 257 1079 q 270 1025 260 1046 q 299 994 281 1004 q 346 983 318 983 q 394 992 374 983 q 426 1023 414 1001 q 439 1079 438 1044 l 557 1079 z "},"Ő":{"ha":842,"x_min":57,"x_max":785,"o":"m 785 497 q 762 281 785 376 q 694 120 739 186 q 580 20 649 54 q 421 -14 511 -14 q 263 21 332 -14 q 149 122 194 56 q 80 283 103 188 q 57 499 57 378 q 99 778 57 665 q 222 949 140 892 q 421 1007 303 1007 q 624 947 543 1007 q 744 774 704 888 q 785 497 785 660 m 276 497 q 292 317 276 389 q 341 208 308 244 q 421 172 374 172 q 501 208 469 172 q 549 315 533 243 q 565 497 565 386 q 529 744 565 663 q 421 825 493 825 q 341 788 374 825 q 292 678 308 751 q 276 497 276 606 m 682 1279 q 652 1231 672 1258 q 606 1174 632 1203 q 551 1117 579 1144 q 500 1069 524 1089 l 397 1069 l 397 1088 q 441 1174 421 1135 q 476 1244 461 1214 q 497 1292 490 1275 l 682 1292 l 682 1279 m 444 1279 q 415 1230 435 1257 q 369 1175 394 1203 q 314 1120 343 1147 q 256 1069 285 1093 l 161 1069 l 161 1088 q 205 1175 185 1136 q 240 1244 225 1214 q 261 1292 254 1274 l 444 1292 l 444 1279 z "},"ő":{"ha":696,"x_min":47,"x_max":647,"o":"m 647 383 q 631 235 647 307 q 581 108 615 164 q 488 19 546 51 q 347 -14 431 -14 q 213 18 269 -14 q 119 106 156 50 q 65 234 83 163 q 47 383 47 306 q 78 586 47 497 q 176 726 110 675 q 349 778 243 778 q 507 732 440 778 q 610 598 574 686 q 647 383 647 510 m 251 381 q 262 256 251 307 q 294 181 272 206 q 347 156 315 156 q 403 181 383 156 q 433 257 424 206 q 443 383 443 308 q 433 510 443 460 q 403 584 424 560 q 349 608 383 608 q 274 553 297 608 q 251 381 251 497 m 608 1051 q 578 1003 599 1031 q 532 946 558 975 q 478 889 506 917 q 426 842 450 861 l 324 842 l 324 860 q 367 947 347 907 q 402 1017 388 986 q 424 1064 417 1047 l 608 1064 l 608 1051 m 371 1051 q 341 1002 361 1029 q 295 947 321 975 q 240 892 269 919 q 182 842 211 865 l 88 842 l 88 860 q 131 947 111 908 q 166 1016 151 986 q 188 1064 181 1046 l 371 1064 l 371 1051 z "},"Œ":{"ha":1011,"x_min":57,"x_max":954,"o":"m 413 1006 q 467 1002 442 1006 q 511 992 492 999 l 954 992 l 954 813 l 704 813 l 704 604 l 936 604 l 936 424 l 704 424 l 704 182 l 954 182 l 954 0 l 510 0 q 468 -9 492 -6 q 415 -12 444 -12 q 211 53 290 -12 q 94 235 132 119 q 57 499 57 350 q 95 764 57 650 q 212 942 133 878 q 413 1006 290 1006 m 428 822 q 359 801 388 822 q 313 740 331 781 q 286 638 294 699 q 278 497 278 576 q 294 320 278 392 q 343 212 310 249 q 428 174 376 175 q 469 176 451 174 q 500 182 486 179 l 500 807 q 468 819 486 815 q 428 822 450 822 z "},"œ":{"ha":1042,"x_min":47,"x_max":1000,"o":"m 728 776 q 877 735 817 776 q 969 616 938 693 q 1000 429 1000 539 l 1000 321 l 636 321 q 670 190 636 232 q 774 147 704 147 q 869 161 825 147 q 963 206 913 175 l 963 40 q 864 -1 915 13 q 750 -14 813 -14 q 628 10 679 -14 q 542 82 578 33 q 460 10 508 33 q 346 -14 411 -14 q 182 38 249 -14 q 81 178 115 89 q 47 383 47 268 q 80 589 47 500 q 180 728 113 678 q 349 778 247 778 q 458 755 411 778 q 539 686 506 732 q 590 735 563 715 q 651 766 617 756 q 728 776 685 776 m 347 608 q 274 553 297 608 q 251 381 251 497 q 262 256 251 307 q 294 181 272 206 q 347 156 315 156 q 403 181 383 156 q 433 256 424 206 q 443 383 443 307 q 433 510 443 460 q 403 584 424 560 q 347 608 383 608 m 726 619 q 663 583 688 619 q 636 464 638 547 l 814 464 q 803 550 814 515 q 774 602 793 585 q 726 619 754 619 z "},"Ŕ":{"ha":732,"x_min":86,"x_max":733,"o":"m 332 992 q 519 960 444 992 q 630 863 593 928 q 667 701 667 799 q 652 593 667 643 q 607 504 638 543 q 529 435 576 465 l 733 0 l 501 0 l 342 381 l 297 381 l 297 0 l 86 0 l 86 992 l 332 992 m 331 814 l 297 814 l 297 547 l 332 547 q 420 583 390 547 q 450 690 450 618 q 437 760 450 733 q 397 801 424 788 q 331 814 371 814 m 601 1279 q 565 1233 588 1260 q 515 1178 542 1207 q 461 1121 489 1149 q 408 1069 433 1093 l 263 1069 l 263 1088 q 306 1160 286 1125 q 343 1228 326 1194 q 374 1292 360 1261 l 601 1292 l 601 1279 z "},"ŕ":{"ha":500,"x_min":75,"x_max":503,"o":"m 426 778 q 455 776 440 778 q 489 768 469 774 l 471 553 q 442 560 457 558 q 406 563 426 563 q 349 551 372 563 q 308 516 325 539 q 284 460 292 493 q 276 388 276 428 l 276 0 l 75 0 l 75 764 l 229 764 l 258 640 l 268 640 q 306 706 283 674 q 358 758 328 738 q 426 778 389 778 m 503 1051 q 466 1006 489 1032 q 417 950 443 979 q 363 893 390 921 q 310 842 335 865 l 164 842 l 164 860 q 208 932 188 897 q 244 1000 228 967 q 275 1064 261 1033 l 503 1064 l 503 1051 z "},"Ŗ":{"ha":732,"x_min":86,"x_max":733,"o":"m 332 992 q 519 960 444 992 q 630 863 593 928 q 667 701 667 799 q 652 593 667 643 q 607 504 638 543 q 529 435 576 465 l 733 0 l 501 0 l 342 381 l 297 381 l 297 0 l 86 0 l 86 992 l 332 992 m 331 814 l 297 814 l 297 547 l 332 547 q 420 583 390 547 q 450 690 450 618 q 437 760 450 733 q 397 801 424 788 q 331 814 371 814 m 492 -100 q 468 -172 482 -135 q 438 -242 454 -208 q 401 -307 421 -276 l 269 -307 l 269 -289 q 281 -228 275 -265 q 292 -151 288 -190 q 299 -85 297 -112 l 492 -85 l 492 -100 z "},"ŗ":{"ha":500,"x_min":74,"x_max":489,"o":"m 426 778 q 455 776 440 778 q 489 768 469 774 l 471 553 q 442 560 457 558 q 406 563 426 563 q 349 551 372 563 q 308 516 325 539 q 284 460 292 493 q 276 388 276 428 l 276 0 l 75 0 l 75 764 l 229 764 l 258 640 l 268 640 q 306 706 283 674 q 358 758 328 738 q 426 778 389 778 m 296 -100 q 272 -172 286 -135 q 242 -242 258 -208 q 206 -307 225 -276 l 74 -307 l 74 -289 q 85 -228 79 -265 q 97 -151 92 -190 q 103 -85 101 -112 l 296 -85 l 296 -100 z "},"Ř":{"ha":732,"x_min":86,"x_max":733,"o":"m 332 992 q 519 960 444 992 q 630 863 593 928 q 667 701 667 799 q 652 593 667 643 q 607 504 638 543 q 529 435 576 465 l 733 0 l 501 0 l 342 381 l 297 381 l 297 0 l 86 0 l 86 992 l 332 992 m 331 814 l 297 814 l 297 547 l 332 547 q 420 583 390 547 q 450 690 450 618 q 437 760 450 733 q 397 801 424 788 q 331 814 371 814 m 283 1069 q 247 1134 271 1096 q 197 1210 224 1172 q 151 1274 171 1249 l 151 1292 l 275 1292 q 322 1245 297 1272 q 375 1185 347 1218 q 429 1246 406 1221 q 476 1292 453 1271 l 599 1292 l 599 1274 q 554 1210 579 1247 q 506 1135 529 1172 q 467 1069 482 1099 l 283 1069 z "},"ř":{"ha":500,"x_min":53,"x_max":500,"o":"m 426 778 q 455 776 440 778 q 489 768 469 774 l 471 553 q 442 560 457 558 q 406 563 426 563 q 349 551 372 563 q 308 516 325 539 q 284 460 292 493 q 276 388 276 428 l 276 0 l 75 0 l 75 764 l 229 764 l 258 640 l 268 640 q 306 706 283 674 q 358 758 328 738 q 426 778 389 778 m 185 842 q 149 906 172 868 q 99 983 125 944 q 53 1046 72 1021 l 53 1064 l 176 1064 q 224 1017 199 1044 q 276 957 249 990 q 331 1018 307 993 q 378 1064 354 1043 l 500 1064 l 500 1046 q 456 982 481 1019 q 407 908 431 944 q 368 842 383 871 l 185 842 z "},"Ś":{"ha":618,"x_min":42,"x_max":581,"o":"m 581 296 q 543 135 581 206 q 439 26 506 65 q 279 -14 372 -14 q 198 -9 238 -14 q 120 9 158 -4 q 42 44 82 22 l 42 260 q 158 202 99 222 q 268 182 217 182 q 323 194 301 182 q 355 228 344 207 q 365 274 365 249 q 356 324 365 301 q 320 370 347 346 q 238 426 293 394 q 159 481 194 453 q 99 542 124 508 q 62 619 75 575 q 49 721 49 663 q 83 872 49 808 q 181 971 117 935 q 339 1006 246 1007 q 460 989 400 1006 q 579 939 519 972 l 521 753 q 428 799 472 783 q 347 814 385 814 q 299 803 318 814 q 271 774 281 792 q 261 732 261 756 q 271 679 261 701 q 310 635 281 657 q 396 579 339 613 q 498 502 457 543 q 560 411 539 461 q 581 296 581 361 m 554 1279 q 517 1233 540 1260 q 468 1178 494 1207 q 414 1121 442 1149 q 361 1069 386 1093 l 215 1069 l 215 1088 q 259 1160 239 1125 q 296 1228 279 1194 q 326 1292 313 1261 l 554 1292 l 554 1279 z "},"ś":{"ha":533,"x_min":38,"x_max":503,"o":"m 499 229 q 468 95 499 150 q 381 13 438 40 q 246 -14 325 -14 q 138 -3 190 -14 q 39 29 86 7 l 39 221 q 126 178 76 196 q 226 160 176 160 q 279 174 261 160 q 297 218 297 188 q 290 248 297 233 q 259 281 283 263 q 183 324 235 299 q 103 382 136 349 q 54 459 71 415 q 38 557 38 503 q 101 719 38 660 q 278 778 164 778 q 387 762 336 778 q 489 715 438 746 l 436 561 q 365 600 403 585 q 290 615 328 615 q 246 603 261 615 q 231 567 231 590 q 238 538 231 550 q 269 510 246 526 q 342 464 293 493 q 424 406 389 438 q 478 331 458 374 q 499 229 499 288 m 501 1051 q 465 1006 488 1032 q 415 950 442 979 q 361 893 389 921 q 308 842 333 865 l 163 842 l 163 860 q 206 932 186 897 q 243 1000 226 967 q 274 1064 260 1033 l 501 1064 l 501 1051 z "},"Ŝ":{"ha":618,"x_min":42,"x_max":581,"o":"m 581 296 q 543 135 581 206 q 439 26 506 65 q 279 -14 372 -14 q 198 -9 238 -14 q 120 9 158 -4 q 42 44 82 22 l 42 260 q 158 202 99 222 q 268 182 217 182 q 323 194 301 182 q 355 228 344 207 q 365 274 365 249 q 356 324 365 301 q 320 370 347 346 q 238 426 293 394 q 159 481 194 453 q 99 542 124 508 q 62 619 75 575 q 49 721 49 663 q 83 872 49 808 q 181 971 117 935 q 339 1006 246 1007 q 460 989 400 1006 q 579 939 519 972 l 521 753 q 428 799 472 783 q 347 814 385 814 q 299 803 318 814 q 271 774 281 792 q 261 732 261 756 q 271 679 261 701 q 310 635 281 657 q 396 579 339 613 q 498 502 457 543 q 560 411 539 461 q 581 296 581 361 m 421 1292 q 458 1228 438 1261 q 502 1159 478 1194 q 553 1088 526 1124 l 553 1069 l 431 1069 q 383 1115 408 1089 q 329 1176 357 1142 q 274 1114 299 1142 q 229 1069 249 1086 l 106 1069 l 106 1088 q 152 1152 126 1114 q 201 1228 178 1190 q 238 1292 225 1267 l 421 1292 z "},"ŝ":{"ha":533,"x_min":38,"x_max":500,"o":"m 499 229 q 468 95 499 150 q 381 13 438 40 q 246 -14 325 -14 q 138 -3 190 -14 q 39 29 86 7 l 39 221 q 126 178 76 196 q 226 160 176 160 q 279 174 261 160 q 297 218 297 188 q 290 248 297 233 q 259 281 283 263 q 183 324 235 299 q 103 382 136 349 q 54 459 71 415 q 38 557 38 503 q 101 719 38 660 q 278 778 164 778 q 387 762 336 778 q 489 715 438 746 l 436 561 q 365 600 403 585 q 290 615 328 615 q 246 603 261 615 q 231 567 231 590 q 238 538 231 550 q 269 510 246 526 q 342 464 293 493 q 424 406 389 438 q 478 331 458 374 q 499 229 499 288 m 368 1064 q 405 1000 385 1033 q 449 931 425 967 q 500 860 474 896 l 500 842 l 378 842 q 330 888 356 861 q 276 949 304 914 q 221 886 246 914 q 176 842 196 858 l 53 842 l 53 860 q 99 924 74 886 q 149 1001 125 963 q 185 1064 172 1039 l 368 1064 z "},"Ş":{"ha":618,"x_min":42,"x_max":581,"o":"m 581 296 q 543 135 581 206 q 439 26 506 65 q 279 -14 372 -14 q 198 -9 238 -14 q 120 9 158 -4 q 42 44 82 22 l 42 260 q 158 202 99 222 q 268 182 217 182 q 323 194 301 182 q 355 228 344 207 q 365 274 365 249 q 356 324 365 301 q 320 370 347 346 q 238 426 293 394 q 159 481 194 453 q 99 542 124 508 q 62 619 75 575 q 49 721 49 663 q 83 872 49 808 q 181 971 117 935 q 339 1006 246 1007 q 460 989 400 1006 q 579 939 519 972 l 521 753 q 428 799 472 783 q 347 814 385 814 q 299 803 318 814 q 271 774 281 792 q 261 732 261 756 q 271 679 261 701 q 310 635 281 657 q 396 579 339 613 q 498 502 457 543 q 560 411 539 461 q 581 296 581 361 m 433 -178 q 388 -292 433 -250 q 258 -333 343 -333 q 198 -331 225 -333 q 147 -322 171 -328 l 147 -207 q 186 -215 168 -212 q 219 -218 204 -218 q 263 -206 249 -218 q 278 -172 278 -194 q 253 -132 278 -147 q 183 -114 228 -117 l 231 0 l 329 0 l 307 -51 q 375 -75 347 -58 q 418 -118 403 -92 q 433 -178 433 -144 z "},"ş":{"ha":533,"x_min":38,"x_max":499,"o":"m 499 229 q 468 95 499 150 q 381 13 438 40 q 246 -14 325 -14 q 138 -3 190 -14 q 39 29 86 7 l 39 221 q 126 178 76 196 q 226 160 176 160 q 279 174 261 160 q 297 218 297 188 q 290 248 297 233 q 259 281 283 263 q 183 324 235 299 q 103 382 136 349 q 54 459 71 415 q 38 557 38 503 q 101 719 38 660 q 278 778 164 778 q 387 762 336 778 q 489 715 438 746 l 436 561 q 365 600 403 585 q 290 615 328 615 q 246 603 261 615 q 231 567 231 590 q 238 538 231 550 q 269 510 246 526 q 342 464 293 493 q 424 406 389 438 q 478 331 458 374 q 499 229 499 288 m 392 -178 q 347 -292 392 -250 q 217 -333 301 -333 q 156 -331 183 -333 q 106 -322 129 -328 l 106 -207 q 144 -215 126 -212 q 178 -218 163 -218 q 222 -206 207 -218 q 236 -172 236 -194 q 211 -132 236 -147 q 142 -114 186 -117 l 189 0 l 288 0 l 265 -51 q 333 -75 306 -58 q 376 -118 361 -92 q 392 -178 392 -144 z "},"Š":{"ha":618,"x_min":42,"x_max":581,"o":"m 581 296 q 543 135 581 206 q 439 26 506 65 q 279 -14 372 -14 q 198 -9 238 -14 q 120 9 158 -4 q 42 44 82 22 l 42 260 q 158 202 99 222 q 268 182 217 182 q 323 194 301 182 q 355 228 344 207 q 365 274 365 249 q 356 324 365 301 q 320 370 347 346 q 238 426 293 394 q 159 481 194 453 q 99 542 124 508 q 62 619 75 575 q 49 721 49 663 q 83 872 49 808 q 181 971 117 935 q 339 1006 246 1007 q 460 989 400 1006 q 579 939 519 972 l 521 753 q 428 799 472 783 q 347 814 385 814 q 299 803 318 814 q 271 774 281 792 q 261 732 261 756 q 271 679 261 701 q 310 635 281 657 q 396 579 339 613 q 498 502 457 543 q 560 411 539 461 q 581 296 581 361 m 238 1069 q 201 1134 225 1096 q 151 1210 178 1172 q 106 1274 125 1249 l 106 1292 l 229 1292 q 276 1245 251 1272 q 329 1185 301 1218 q 383 1246 360 1221 q 431 1292 407 1271 l 553 1292 l 553 1274 q 508 1210 533 1247 q 460 1135 483 1172 q 421 1069 436 1099 l 238 1069 z "},"š":{"ha":533,"x_min":38,"x_max":500,"o":"m 499 229 q 468 95 499 150 q 381 13 438 40 q 246 -14 325 -14 q 138 -3 190 -14 q 39 29 86 7 l 39 221 q 126 178 76 196 q 226 160 176 160 q 279 174 261 160 q 297 218 297 188 q 290 248 297 233 q 259 281 283 263 q 183 324 235 299 q 103 382 136 349 q 54 459 71 415 q 38 557 38 503 q 101 719 38 660 q 278 778 164 778 q 387 762 336 778 q 489 715 438 746 l 436 561 q 365 600 403 585 q 290 615 328 615 q 246 603 261 615 q 231 567 231 590 q 238 538 231 550 q 269 510 246 526 q 342 464 293 493 q 424 406 389 438 q 478 331 458 374 q 499 229 499 288 m 185 842 q 149 906 172 868 q 99 983 125 944 q 53 1046 72 1021 l 53 1064 l 176 1064 q 224 1017 199 1044 q 276 957 249 990 q 331 1018 307 993 q 378 1064 354 1043 l 500 1064 l 500 1046 q 456 982 481 1019 q 407 908 431 944 q 368 842 383 871 l 185 842 z "},"Ț":{"ha":615,"x_min":21,"x_max":593,"o":"m 413 0 l 204 0 l 204 808 l 21 808 l 21 992 l 593 992 l 593 808 l 413 808 l 413 0 m 419 -100 q 396 -172 410 -135 q 365 -242 382 -208 q 329 -307 349 -276 l 197 -307 l 197 -289 q 209 -228 203 -265 q 220 -151 215 -190 q 226 -85 225 -112 l 419 -85 l 419 -100 z "},"ț":{"ha":464,"x_min":13,"x_max":440,"o":"m 349 161 q 392 167 368 161 q 440 185 415 174 l 440 25 q 368 -4 406 6 q 286 -14 331 -14 q 173 14 217 -14 q 109 98 129 42 q 89 239 89 154 l 89 597 l 13 597 l 13 706 l 106 757 l 153 921 l 290 921 l 290 764 l 431 764 l 431 597 l 290 597 l 290 243 q 304 182 290 203 q 349 161 318 161 m 386 -100 q 363 -172 376 -135 q 332 -242 349 -208 q 296 -307 315 -276 l 164 -307 l 164 -289 q 176 -228 169 -265 q 187 -151 182 -190 q 193 -85 192 -112 l 386 -85 l 386 -100 z "},"Ť":{"ha":615,"x_min":21,"x_max":593,"o":"m 413 0 l 204 0 l 204 808 l 21 808 l 21 992 l 593 992 l 593 808 l 413 808 l 413 0 m 217 1069 q 181 1134 204 1096 q 131 1210 157 1172 q 85 1274 104 1249 l 85 1292 l 208 1292 q 256 1245 231 1272 q 308 1185 281 1218 q 363 1246 339 1221 q 410 1292 386 1271 l 532 1292 l 532 1274 q 488 1210 513 1247 q 439 1135 463 1172 q 400 1069 415 1099 l 217 1069 z "},"ť":{"ha":464,"x_min":13,"x_max":664,"o":"m 664 1040 q 642 969 656 1006 q 612 898 628 932 q 576 833 596 864 l 444 833 l 444 851 q 451 894 447 868 q 460 950 456 921 q 467 1008 464 979 q 471 1056 469 1036 l 664 1056 l 664 1040 m 349 161 q 392 167 368 161 q 440 185 415 174 l 440 25 q 368 -4 406 6 q 286 -14 331 -14 q 173 14 217 -14 q 109 98 129 42 q 89 239 89 154 l 89 597 l 13 597 l 13 706 l 106 757 l 153 921 l 290 921 l 290 764 l 431 764 l 431 597 l 290 597 l 290 243 q 304 182 290 203 q 349 161 318 161 z "},"Ŧ":{"ha":615,"x_min":21,"x_max":593,"o":"m 204 0 l 204 407 l 85 407 l 85 564 l 204 564 l 204 808 l 21 808 l 21 992 l 593 992 l 593 808 l 413 808 l 413 564 l 532 564 l 532 407 l 413 407 l 413 0 l 204 0 z "},"ŧ":{"ha":464,"x_min":13,"x_max":440,"o":"m 19 321 l 19 464 l 418 464 l 418 321 l 19 321 m 349 161 q 392 167 368 161 q 440 185 415 174 l 440 25 q 368 -4 406 6 q 286 -14 331 -14 q 173 14 217 -14 q 109 98 129 42 q 89 239 89 154 l 89 597 l 13 597 l 13 706 l 106 757 l 153 921 l 290 921 l 290 764 l 431 764 l 431 597 l 290 597 l 290 243 q 304 182 290 203 q 349 161 318 161 z "},"Ũ":{"ha":797,"x_min":81,"x_max":717,"o":"m 717 331 q 680 140 717 217 q 572 24 643 63 q 397 -14 501 -14 q 163 71 244 -14 q 81 326 81 156 l 81 992 l 292 992 l 292 335 q 319 210 292 247 q 399 172 346 172 q 460 188 436 172 q 495 240 483 204 q 507 336 507 276 l 507 992 l 717 992 l 717 331 m 165 1068 q 171 1138 167 1100 q 188 1209 175 1175 q 224 1265 200 1243 q 288 1286 249 1286 q 341 1276 315 1286 q 391 1251 367 1265 q 438 1228 415 1238 q 483 1218 461 1218 q 511 1236 503 1218 q 525 1288 519 1254 l 632 1288 q 596 1125 632 1181 q 508 1069 560 1069 q 454 1079 482 1069 q 401 1103 426 1089 q 354 1127 376 1117 q 315 1138 332 1138 q 290 1122 303 1138 q 272 1068 276 1106 l 165 1068 z "},"ũ":{"ha":714,"x_min":72,"x_max":640,"o":"m 640 764 l 640 0 l 483 0 l 460 96 l 449 96 q 407 35 432 60 q 351 -1 382 11 q 279 -14 319 -14 q 166 19 213 -14 q 96 115 119 53 q 72 265 72 178 l 72 764 l 274 764 l 274 329 q 289 207 274 249 q 340 165 304 165 q 404 191 383 165 q 432 265 425 217 q 439 381 439 314 l 439 764 l 640 764 m 125 840 q 131 910 126 872 q 147 981 135 947 q 184 1037 160 1015 q 247 1058 208 1058 q 301 1048 275 1058 q 351 1024 326 1038 q 398 1000 375 1010 q 443 990 421 990 q 471 1008 463 990 q 485 1060 479 1026 l 592 1060 q 556 897 592 953 q 468 842 519 842 q 414 851 442 842 q 361 875 386 861 q 314 899 336 889 q 275 910 292 910 q 249 894 263 910 q 232 840 236 878 l 125 840 z "},"Ū":{"ha":797,"x_min":81,"x_max":717,"o":"m 717 331 q 680 140 717 217 q 572 24 643 63 q 397 -14 501 -14 q 163 71 244 -14 q 81 326 81 156 l 81 992 l 292 992 l 292 335 q 319 210 292 247 q 399 172 346 172 q 460 188 436 172 q 495 240 483 204 q 507 336 507 276 l 507 992 l 717 992 l 717 331 m 597 1233 l 597 1088 l 200 1088 l 200 1233 l 597 1233 z "},"ū":{"ha":714,"x_min":72,"x_max":640,"o":"m 640 764 l 640 0 l 483 0 l 460 96 l 449 96 q 407 35 432 60 q 351 -1 382 11 q 279 -14 319 -14 q 166 19 213 -14 q 96 115 119 53 q 72 265 72 178 l 72 764 l 274 764 l 274 329 q 289 207 274 249 q 340 165 304 165 q 404 191 383 165 q 432 265 425 217 q 439 381 439 314 l 439 764 l 640 764 m 557 1006 l 557 860 l 160 860 l 160 1006 l 557 1006 z "},"Ŭ":{"ha":797,"x_min":81,"x_max":717,"o":"m 717 331 q 680 140 717 217 q 572 24 643 63 q 397 -14 501 -14 q 163 71 244 -14 q 81 326 81 156 l 81 992 l 292 992 l 292 335 q 319 210 292 247 q 399 172 346 172 q 460 188 436 172 q 495 240 483 204 q 507 336 507 276 l 507 992 l 717 992 l 717 331 m 608 1307 q 581 1181 608 1235 q 505 1099 553 1128 q 397 1071 457 1071 q 248 1131 306 1071 q 189 1307 190 1190 l 308 1307 q 322 1253 311 1274 q 351 1222 332 1232 q 397 1211 369 1211 q 445 1220 425 1211 q 477 1251 465 1229 q 490 1307 489 1272 l 608 1307 z "},"ŭ":{"ha":714,"x_min":72,"x_max":640,"o":"m 640 764 l 640 0 l 483 0 l 460 96 l 449 96 q 407 35 432 60 q 351 -1 382 11 q 279 -14 319 -14 q 166 19 213 -14 q 96 115 119 53 q 72 265 72 178 l 72 764 l 274 764 l 274 329 q 289 207 274 249 q 340 165 304 165 q 404 191 383 165 q 432 265 425 217 q 439 381 439 314 l 439 764 l 640 764 m 567 1079 q 539 953 567 1007 q 463 872 511 900 q 356 843 415 843 q 206 903 264 843 q 147 1079 149 963 l 267 1079 q 280 1025 269 1046 q 309 994 290 1004 q 356 983 328 983 q 403 992 383 983 q 435 1023 424 1001 q 449 1079 447 1044 l 567 1079 z "},"Ů":{"ha":797,"x_min":81,"x_max":717,"o":"m 717 331 q 680 140 717 217 q 572 24 643 63 q 397 -14 501 -14 q 163 71 244 -14 q 81 326 81 156 l 81 992 l 292 992 l 292 335 q 319 210 292 247 q 399 172 346 172 q 460 188 436 172 q 495 240 483 204 q 507 336 507 276 l 507 992 l 717 992 l 717 331 m 399 1068 q 278 1115 324 1068 q 232 1232 232 1161 q 278 1351 232 1306 q 399 1397 324 1397 q 519 1351 472 1397 q 565 1233 565 1304 q 519 1116 565 1164 q 399 1068 474 1068 m 399 1174 q 442 1190 425 1174 q 460 1233 460 1207 q 442 1276 460 1260 q 399 1293 425 1293 q 356 1276 374 1293 q 339 1233 339 1260 q 354 1190 339 1207 q 399 1174 369 1174 z "},"ů":{"ha":714,"x_min":72,"x_max":640,"o":"m 640 764 l 640 0 l 483 0 l 460 96 l 449 96 q 407 35 432 60 q 351 -1 382 11 q 279 -14 319 -14 q 166 19 213 -14 q 96 115 119 53 q 72 265 72 178 l 72 764 l 274 764 l 274 329 q 289 207 274 249 q 340 165 304 165 q 404 191 383 165 q 432 265 425 217 q 439 381 439 314 l 439 764 l 640 764 m 358 840 q 238 887 283 840 q 192 1004 192 933 q 238 1124 192 1078 q 358 1169 283 1169 q 478 1123 432 1169 q 525 1006 525 1076 q 479 888 525 936 q 358 840 433 840 m 358 946 q 402 963 385 946 q 419 1006 419 979 q 402 1049 419 1032 q 358 1065 385 1065 q 316 1049 333 1065 q 299 1006 299 1032 q 314 963 299 979 q 358 946 329 946 z "},"Ű":{"ha":797,"x_min":81,"x_max":717,"o":"m 717 331 q 680 140 717 217 q 572 24 643 63 q 397 -14 501 -14 q 163 71 244 -14 q 81 326 81 156 l 81 992 l 292 992 l 292 335 q 319 210 292 247 q 399 172 346 172 q 460 188 436 172 q 495 240 483 204 q 507 336 507 276 l 507 992 l 717 992 l 717 331 m 658 1279 q 628 1231 649 1258 q 582 1174 608 1203 q 528 1117 556 1144 q 476 1069 500 1089 l 374 1069 l 374 1088 q 417 1174 397 1135 q 452 1244 438 1214 q 474 1292 467 1275 l 658 1292 l 658 1279 m 421 1279 q 391 1230 411 1257 q 345 1175 371 1203 q 290 1120 319 1147 q 232 1069 261 1093 l 138 1069 l 138 1088 q 181 1175 161 1136 q 216 1244 201 1214 q 238 1292 231 1274 l 421 1292 l 421 1279 z "},"ű":{"ha":714,"x_min":72,"x_max":640,"o":"m 640 764 l 640 0 l 483 0 l 460 96 l 449 96 q 407 35 432 60 q 351 -1 382 11 q 279 -14 319 -14 q 166 19 213 -14 q 96 115 119 53 q 72 265 72 178 l 72 764 l 274 764 l 274 329 q 289 207 274 249 q 340 165 304 165 q 404 191 383 165 q 432 265 425 217 q 439 381 439 314 l 439 764 l 640 764 m 618 1051 q 588 1003 608 1031 q 542 946 568 975 q 488 889 515 917 q 436 842 460 861 l 333 842 l 333 860 q 377 947 357 907 q 412 1017 397 986 q 433 1064 426 1047 l 618 1064 l 618 1051 m 381 1051 q 351 1002 371 1029 q 305 947 331 975 q 250 892 279 919 q 192 842 221 865 l 97 842 l 97 860 q 141 947 121 908 q 176 1016 161 986 q 197 1064 190 1046 l 381 1064 l 381 1051 z "},"Ų":{"ha":797,"x_min":81,"x_max":717,"o":"m 489 -140 q 503 -178 489 -165 q 539 -192 518 -192 q 573 -187 553 -192 q 603 -178 593 -182 l 603 -312 q 550 -325 581 -321 q 494 -329 519 -329 q 373 -288 411 -329 q 335 -178 335 -247 q 346 -115 335 -144 q 381 -57 357 -86 q 440 0 404 -28 l 624 63 q 544 -23 574 14 q 502 -88 515 -60 q 489 -140 489 -117 m 717 331 q 680 140 717 217 q 572 24 643 63 q 397 -14 501 -14 q 163 71 244 -14 q 81 326 81 156 l 81 992 l 292 992 l 292 335 q 319 210 292 247 q 399 172 346 172 q 460 188 436 172 q 495 240 483 204 q 507 336 507 276 l 507 992 l 717 992 l 717 331 z "},"ų":{"ha":714,"x_min":72,"x_max":646,"o":"m 640 764 l 640 0 l 483 0 l 460 96 l 449 96 q 407 35 432 60 q 351 -1 382 11 q 279 -14 319 -14 q 166 19 213 -14 q 96 115 119 53 q 72 265 72 178 l 72 764 l 274 764 l 274 329 q 289 207 274 249 q 340 165 304 165 q 404 191 383 165 q 432 265 425 217 q 439 381 439 314 l 439 764 l 640 764 m 536 -136 q 551 -177 536 -160 q 593 -194 567 -194 q 624 -190 613 -194 q 646 -181 636 -186 l 646 -310 q 606 -323 631 -317 q 550 -329 581 -329 q 424 -290 465 -329 q 382 -181 382 -250 q 394 -113 382 -147 q 433 -44 406 -79 q 503 22 460 -10 l 608 0 q 550 -76 564 -47 q 536 -136 536 -104 z "},"Ŵ":{"ha":1099,"x_min":1,"x_max":1097,"o":"m 1097 992 l 906 0 l 664 0 l 583 425 q 573 484 578 454 q 564 546 568 514 q 556 612 560 578 q 549 681 551 646 q 543 622 547 654 q 535 556 539 590 q 526 489 531 522 q 515 426 521 456 l 435 0 l 194 0 l 1 992 l 207 992 l 289 522 q 298 460 293 494 q 308 390 303 426 q 318 316 314 353 q 325 246 322 279 q 335 320 329 282 q 346 395 340 358 q 358 464 351 432 q 368 519 364 496 l 463 992 l 636 992 l 724 521 q 735 460 729 494 q 747 390 742 426 q 756 317 751 353 q 765 246 761 281 q 775 333 769 288 q 788 428 781 379 q 803 522 796 478 l 886 992 l 1097 992 m 640 1292 q 677 1228 657 1261 q 722 1159 697 1194 q 772 1088 746 1124 l 772 1069 l 650 1069 q 602 1115 628 1089 q 549 1176 576 1142 q 493 1114 518 1142 q 449 1069 468 1086 l 325 1069 l 325 1088 q 372 1152 346 1114 q 421 1228 397 1190 q 457 1292 444 1267 l 640 1292 z "},"ŵ":{"ha":985,"x_min":8,"x_max":975,"o":"m 519 363 q 512 413 515 386 q 505 467 508 440 q 499 521 501 494 q 493 571 496 547 l 489 571 q 481 516 485 544 q 475 460 478 488 q 469 409 472 433 q 461 364 465 385 l 396 0 l 168 0 l 8 764 l 208 764 l 256 496 q 269 414 263 458 q 279 324 275 369 q 286 235 283 279 l 290 235 q 296 290 293 263 q 303 349 299 318 q 313 413 307 381 q 325 482 318 446 l 376 764 l 608 764 l 658 478 q 672 390 667 433 q 683 307 678 346 q 692 235 689 268 l 697 235 q 703 314 700 272 q 713 397 707 356 q 725 479 718 439 l 778 764 l 975 764 l 814 0 l 582 0 l 519 363 m 583 1064 q 620 1000 600 1033 q 665 931 640 967 q 715 860 689 896 l 715 842 l 593 842 q 545 888 571 861 q 492 949 519 914 q 436 886 461 914 q 392 842 411 858 l 268 842 l 268 860 q 315 924 289 886 q 364 1001 340 963 q 400 1064 388 1039 l 583 1064 z "},"Ŷ":{"ha":692,"x_min":0,"x_max":692,"o":"m 347 608 l 474 992 l 692 992 l 451 382 l 451 0 l 240 0 l 240 375 l 0 992 l 219 992 l 347 608 m 438 1292 q 474 1228 454 1261 q 519 1159 494 1194 q 569 1088 543 1124 l 569 1069 l 447 1069 q 399 1115 425 1089 q 346 1176 374 1142 q 290 1114 315 1142 q 246 1069 265 1086 l 122 1069 l 122 1088 q 169 1152 143 1114 q 218 1228 194 1190 q 254 1292 242 1267 l 438 1292 z "},"ŷ":{"ha":647,"x_min":4,"x_max":643,"o":"m 4 764 l 214 764 l 299 411 q 310 363 306 388 q 319 316 315 339 q 324 274 324 293 l 329 274 q 339 333 332 300 q 356 410 346 365 l 435 764 l 643 764 l 414 -62 q 351 -220 388 -160 q 266 -307 315 -281 q 151 -333 217 -333 q 105 -331 128 -333 q 60 -322 82 -328 l 60 -146 q 88 -152 74 -150 q 115 -154 101 -154 q 160 -144 143 -154 q 190 -105 176 -133 q 219 -21 204 -76 l 228 10 l 4 764 m 415 1064 q 452 1000 432 1033 q 497 931 472 967 q 547 860 521 896 l 547 842 l 425 842 q 377 888 403 861 q 324 949 351 914 q 268 886 293 914 q 224 842 243 858 l 100 842 l 100 860 q 147 924 121 886 q 196 1001 172 963 q 232 1064 219 1039 l 415 1064 z "},"Ÿ":{"ha":692,"x_min":0,"x_max":692,"o":"m 347 608 l 474 992 l 692 992 l 451 382 l 451 0 l 240 0 l 240 375 l 0 992 l 219 992 l 347 608 m 124 1179 q 149 1253 124 1228 q 214 1279 174 1279 q 282 1253 257 1279 q 307 1179 307 1226 q 282 1108 307 1135 q 214 1082 257 1082 q 149 1108 174 1082 q 124 1179 124 1133 m 383 1179 q 408 1253 383 1228 q 475 1279 433 1279 q 542 1253 518 1279 q 567 1179 567 1226 q 542 1108 567 1135 q 474 1082 518 1082 q 408 1108 432 1082 q 383 1179 383 1135 z "},"Ź":{"ha":622,"x_min":31,"x_max":593,"o":"m 593 0 l 31 0 l 31 150 l 357 811 l 38 811 l 38 992 l 585 992 l 585 842 l 260 182 l 593 182 l 593 0 m 539 1279 q 502 1233 525 1260 q 453 1178 479 1207 q 399 1121 426 1149 q 346 1069 371 1093 l 200 1069 l 200 1088 q 244 1160 224 1125 q 281 1228 264 1194 q 311 1292 297 1261 l 539 1292 l 539 1279 z "},"ź":{"ha":525,"x_min":25,"x_max":500,"o":"m 500 0 l 25 0 l 25 124 l 264 594 l 39 594 l 39 764 l 489 764 l 489 629 l 260 168 l 500 168 l 500 0 m 496 1051 q 459 1006 482 1032 q 410 950 436 979 q 356 893 383 921 q 303 842 328 865 l 157 842 l 157 860 q 201 932 181 897 q 238 1000 221 967 q 268 1064 254 1033 l 496 1064 l 496 1051 z "},"Ż":{"ha":622,"x_min":31,"x_max":593,"o":"m 593 0 l 31 0 l 31 150 l 357 811 l 38 811 l 38 992 l 585 992 l 585 842 l 260 182 l 593 182 l 593 0 m 321 1294 q 403 1267 378 1294 q 429 1185 429 1239 q 402 1103 429 1131 q 321 1076 375 1076 q 240 1103 268 1076 q 213 1185 213 1131 q 238 1267 213 1240 q 321 1294 264 1294 z "},"ż":{"ha":525,"x_min":25,"x_max":500,"o":"m 500 0 l 25 0 l 25 124 l 264 594 l 39 594 l 39 764 l 489 764 l 489 629 l 260 168 l 500 168 l 500 0 m 278 1067 q 360 1039 335 1067 q 386 957 386 1011 q 359 876 386 903 q 278 849 332 849 q 197 876 225 849 q 169 957 169 903 q 195 1040 169 1013 q 278 1067 221 1067 z "},"Ž":{"ha":622,"x_min":31,"x_max":593,"o":"m 593 0 l 31 0 l 31 150 l 357 811 l 38 811 l 38 992 l 585 992 l 585 842 l 260 182 l 593 182 l 593 0 m 221 1069 q 185 1134 208 1096 q 135 1210 161 1172 q 89 1274 108 1249 l 89 1292 l 213 1292 q 260 1245 235 1272 q 313 1185 285 1218 q 367 1246 343 1221 q 414 1292 390 1271 l 536 1292 l 536 1274 q 492 1210 517 1247 q 443 1135 467 1172 q 404 1069 419 1099 l 221 1069 z "},"ž":{"ha":525,"x_min":25,"x_max":500,"o":"m 500 0 l 25 0 l 25 124 l 264 594 l 39 594 l 39 764 l 489 764 l 489 629 l 260 168 l 500 168 l 500 0 m 178 842 q 142 906 165 868 q 92 983 118 944 q 46 1046 65 1021 l 46 1064 l 169 1064 q 217 1017 192 1044 q 269 957 242 990 q 324 1018 300 993 q 371 1064 347 1043 l 493 1064 l 493 1046 q 449 982 474 1019 q 400 908 424 944 q 361 842 376 871 l 178 842 z "},"ſ":{"ha":413,"x_min":93,"x_max":456,"o":"m 344 893 q 306 871 317 893 q 294 796 296 849 l 294 0 l 93 0 l 93 781 q 115 942 93 879 q 182 1033 136 1004 q 300 1063 228 1063 q 376 1055 340 1063 q 456 1029 411 1047 l 417 879 q 380 890 399 886 q 344 893 361 893 z "},"ƒ":{"ha":597,"x_min":-15,"x_max":625,"o":"m 229 -337 q 47 -277 108 -337 q -15 -118 -15 -217 q -10 -63 -15 -90 q 1 -22 -6 -36 l 157 -67 q 154 -83 156 -75 q 153 -101 153 -90 q 169 -153 153 -137 q 210 -168 186 -168 q 248 -147 235 -168 q 261 -87 261 -126 l 261 597 l 175 597 l 175 706 l 261 763 l 261 781 q 283 942 261 879 q 349 1033 304 1004 q 467 1063 394 1063 q 544 1055 510 1063 q 625 1029 578 1047 l 583 879 q 548 890 565 886 q 513 893 531 893 q 474 871 486 893 q 463 796 463 849 l 463 764 l 586 764 l 586 597 l 463 597 l 463 -72 q 435 -212 463 -153 q 354 -305 407 -272 q 229 -337 301 -337 z "},"Ǻ":{"ha":761,"x_min":0,"x_max":761,"o":"m 236 917 q 219 950 226 932 q 213 990 213 968 q 258 1109 213 1063 q 381 1156 304 1156 q 500 1108 453 1156 q 547 992 547 1061 q 540 951 547 969 q 522 917 533 932 l 761 0 l 535 0 l 492 207 l 271 207 l 229 0 l 0 0 l 236 917 m 303 390 l 458 390 l 410 619 q 398 689 404 651 q 388 760 392 726 q 381 814 383 794 q 376 775 379 797 q 369 728 372 753 q 361 678 365 703 q 354 629 357 653 l 303 390 m 381 931 q 423 948 406 931 q 440 992 440 965 q 423 1035 440 1018 q 381 1051 406 1051 q 337 1035 354 1051 q 319 992 319 1018 q 335 948 319 965 q 381 931 350 931 m 276 1213 q 332 1279 315 1258 q 357 1312 349 1300 q 372 1338 365 1324 l 614 1338 l 614 1328 q 578 1299 601 1317 q 529 1263 556 1281 q 480 1227 503 1244 q 442 1201 457 1210 l 276 1201 l 276 1213 z "},"ǻ":{"ha":664,"x_min":38,"x_max":592,"o":"m 354 778 q 530 709 468 778 q 592 503 592 640 l 592 0 l 444 0 l 413 101 l 408 101 q 358 37 385 63 q 297 -1 331 11 q 217 -14 263 -14 q 113 21 153 -14 q 56 111 74 56 q 38 229 38 167 q 103 410 38 350 q 293 476 169 471 l 390 481 l 390 506 q 372 589 390 561 q 311 617 353 617 q 240 603 279 617 q 151 561 200 590 l 97 711 q 217 760 151 743 q 354 778 282 778 m 343 346 q 265 316 292 343 q 239 238 239 289 q 255 169 239 192 q 301 147 271 147 q 365 183 340 147 q 390 279 390 219 l 390 349 l 343 346 m 339 1043 q 296 1026 314 1043 q 278 983 278 1010 q 294 940 278 957 q 338 922 310 922 q 381 940 364 922 q 399 983 399 957 q 381 1026 399 1010 q 339 1043 364 1043 m 338 1147 q 425 1126 386 1147 q 487 1069 464 1106 q 510 985 510 1032 q 461 867 510 914 q 338 819 413 819 q 217 865 263 819 q 171 983 171 911 q 217 1101 171 1056 q 338 1147 263 1147 m 582 1328 q 531 1280 565 1310 q 462 1222 496 1250 q 410 1182 428 1194 l 243 1182 l 243 1194 q 297 1267 281 1243 q 323 1306 314 1292 q 340 1336 332 1321 l 582 1336 l 582 1328 z "},"Ǽ":{"ha":993,"x_min":-6,"x_max":936,"o":"m 936 0 l 478 0 l 478 218 l 286 218 l 225 0 l -6 0 l 299 992 l 936 992 l 936 811 l 686 811 l 686 604 l 917 604 l 917 424 l 686 424 l 686 182 l 936 182 l 936 0 m 335 400 l 478 400 l 478 811 l 446 811 l 335 400 m 724 1279 q 687 1233 710 1260 q 638 1178 664 1207 q 583 1121 611 1149 q 531 1069 556 1093 l 385 1069 l 385 1088 q 428 1160 408 1125 q 465 1228 449 1194 q 496 1292 482 1261 l 724 1292 l 724 1279 z "},"ǽ":{"ha":985,"x_min":38,"x_max":942,"o":"m 669 776 q 820 735 760 776 q 911 616 881 693 q 942 429 942 539 l 942 321 l 579 321 q 613 190 579 232 q 715 147 646 147 q 811 161 767 147 q 906 206 856 175 l 906 40 q 807 -1 858 13 q 692 -14 756 -14 q 595 0 642 -14 q 512 42 549 14 q 450 113 475 69 q 389 42 422 71 q 317 0 356 14 q 235 -14 279 -14 q 122 21 165 -14 q 58 111 79 56 q 38 229 38 167 q 67 363 38 310 q 154 445 97 417 q 293 476 211 474 l 390 481 l 390 506 q 371 589 390 561 q 311 617 351 617 q 240 603 279 617 q 151 561 200 590 l 97 711 q 209 760 149 743 q 331 778 269 778 q 430 759 389 778 q 497 703 471 740 q 570 758 528 740 q 669 776 613 776 m 343 346 q 265 316 292 343 q 239 238 239 289 q 255 169 239 192 q 301 147 271 147 q 347 163 328 147 q 378 210 367 179 q 390 279 390 240 l 390 349 l 343 346 m 669 619 q 606 583 631 619 q 579 464 581 547 l 756 464 q 745 550 756 515 q 715 602 735 585 q 669 619 696 619 m 728 1051 q 691 1006 714 1032 q 642 950 668 979 q 588 893 615 921 q 535 842 560 865 l 389 842 l 389 860 q 433 932 413 897 q 469 1000 453 967 q 500 1064 486 1033 l 728 1064 l 728 1051 z "},"Ǿ":{"ha":842,"x_min":57,"x_max":785,"o":"m 785 497 q 761 277 785 372 q 692 117 738 182 q 578 19 646 53 q 421 -14 510 -14 q 333 -3 374 -14 q 256 26 292 7 l 208 -72 l 107 -25 l 167 97 q 82 276 107 178 q 57 499 57 375 q 99 778 57 665 q 222 949 140 892 q 421 1007 303 1007 q 514 996 471 1007 q 593 963 557 985 l 636 1049 l 738 1001 l 682 889 q 759 726 733 825 q 785 497 785 628 m 571 497 q 558 651 571 585 l 336 201 q 375 173 354 182 q 421 164 396 164 q 504 201 471 164 q 554 312 538 238 q 571 497 571 386 m 271 497 q 274 405 271 447 q 286 328 278 363 l 513 783 q 472 818 494 807 q 422 829 450 829 q 338 792 372 829 q 288 681 304 756 q 271 497 271 607 m 649 1279 q 612 1233 635 1260 q 563 1178 589 1207 q 508 1121 536 1149 q 456 1069 481 1093 l 310 1069 l 310 1088 q 353 1160 333 1125 q 390 1228 374 1194 q 421 1292 407 1261 l 649 1292 l 649 1279 z "},"ǿ":{"ha":696,"x_min":47,"x_max":647,"o":"m 647 383 q 612 170 647 260 q 510 33 576 81 q 346 -14 443 -14 q 283 -7 313 -14 q 225 14 253 0 l 179 -82 l 81 -36 l 139 81 q 69 217 90 143 q 47 383 47 290 q 126 674 47 571 q 349 778 206 778 q 415 770 385 778 q 471 747 444 763 l 511 826 l 608 781 l 560 681 q 625 553 603 629 q 647 383 647 476 m 242 381 q 243 327 242 353 q 247 281 244 301 l 406 596 q 380 614 394 608 q 347 619 365 619 q 267 560 292 619 q 242 381 242 501 m 454 383 q 453 435 454 411 q 450 478 451 458 l 293 164 q 317 149 304 154 q 347 143 331 143 q 411 170 388 143 q 444 251 435 197 q 454 383 454 306 m 576 1051 q 540 1006 563 1032 q 490 950 517 979 q 436 893 464 921 q 383 842 408 865 l 238 842 l 238 860 q 281 932 261 897 q 318 1000 301 967 q 349 1064 335 1033 l 576 1064 l 576 1051 z "},"Ș":{"ha":618,"x_min":42,"x_max":581,"o":"m 581 296 q 543 135 581 206 q 439 26 506 65 q 279 -14 372 -14 q 198 -9 238 -14 q 120 9 158 -4 q 42 44 82 22 l 42 260 q 158 202 99 222 q 268 182 217 182 q 323 194 301 182 q 355 228 344 207 q 365 274 365 249 q 356 324 365 301 q 320 370 347 346 q 238 426 293 394 q 159 481 194 453 q 99 542 124 508 q 62 619 75 575 q 49 721 49 663 q 83 872 49 808 q 181 971 117 935 q 339 1006 246 1007 q 460 989 400 1006 q 579 939 519 972 l 521 753 q 428 799 472 783 q 347 814 385 814 q 299 803 318 814 q 271 774 281 792 q 261 732 261 756 q 271 679 261 701 q 310 635 281 657 q 396 579 339 613 q 498 502 457 543 q 560 411 539 461 q 581 296 581 361 m 401 -100 q 378 -172 392 -135 q 347 -242 364 -208 q 311 -307 331 -276 l 179 -307 l 179 -289 q 191 -228 185 -265 q 202 -151 197 -190 q 208 -85 207 -112 l 401 -85 l 401 -100 z "},"ș":{"ha":533,"x_min":38,"x_max":499,"o":"m 499 229 q 468 95 499 150 q 381 13 438 40 q 246 -14 325 -14 q 138 -3 190 -14 q 39 29 86 7 l 39 221 q 126 178 76 196 q 226 160 176 160 q 279 174 261 160 q 297 218 297 188 q 290 248 297 233 q 259 281 283 263 q 183 324 235 299 q 103 382 136 349 q 54 459 71 415 q 38 557 38 503 q 101 719 38 660 q 278 778 164 778 q 387 762 336 778 q 489 715 438 746 l 436 561 q 365 600 403 585 q 290 615 328 615 q 246 603 261 615 q 231 567 231 590 q 238 538 231 550 q 269 510 246 526 q 342 464 293 493 q 424 406 389 438 q 478 331 458 374 q 499 229 499 288 m 360 -100 q 336 -172 350 -135 q 306 -242 322 -208 q 269 -307 289 -276 l 138 -307 l 138 -289 q 149 -228 143 -265 q 160 -151 156 -190 q 167 -85 165 -112 l 360 -85 l 360 -100 z "},"ˆ":{"ha":558,"x_min":56,"x_max":503,"o":"m 371 1064 q 408 1000 388 1033 q 452 931 428 967 q 503 860 476 896 l 503 842 l 381 842 q 333 888 358 861 q 279 949 307 914 q 224 886 249 914 q 179 842 199 858 l 56 842 l 56 860 q 102 924 76 886 q 151 1001 128 963 q 188 1064 175 1039 l 371 1064 z "},"ˇ":{"ha":558,"x_min":56,"x_max":503,"o":"m 188 842 q 151 906 175 868 q 101 983 128 944 q 56 1046 75 1021 l 56 1064 l 179 1064 q 226 1017 201 1044 q 279 957 251 990 q 333 1018 310 993 q 381 1064 357 1043 l 503 1064 l 503 1046 q 458 982 483 1019 q 410 908 433 944 q 371 842 386 871 l 188 842 z "},"ˉ":{"ha":508,"x_min":56,"x_max":453,"o":"m 453 1006 l 453 860 l 56 860 l 56 1006 l 453 1006 z "},"˘":{"ha":531,"x_min":56,"x_max":475,"o":"m 475 1079 q 447 953 475 1007 q 372 872 419 900 q 264 843 324 843 q 115 903 172 843 q 56 1079 57 963 l 175 1079 q 188 1025 178 1046 q 217 994 199 1004 q 264 983 236 983 q 312 992 292 983 q 344 1023 332 1001 q 357 1079 356 1044 l 475 1079 z "},"˙":{"ha":328,"x_min":56,"x_max":272,"o":"m 164 1067 q 247 1039 221 1067 q 272 957 272 1011 q 245 876 272 903 q 164 849 218 849 q 83 876 111 849 q 56 957 56 903 q 81 1040 56 1013 q 164 1067 107 1067 z "},"˚":{"ha":444,"x_min":56,"x_max":389,"o":"m 222 840 q 101 887 147 840 q 56 1004 56 933 q 101 1124 56 1078 q 222 1169 147 1169 q 342 1123 296 1169 q 389 1006 389 1076 q 343 888 389 936 q 222 840 297 840 m 222 946 q 266 963 249 946 q 283 1006 283 979 q 266 1049 283 1032 q 222 1065 249 1065 q 180 1049 197 1065 q 163 1006 163 1032 q 178 963 163 979 q 222 946 193 946 z "},"˛":{"ha":375,"x_min":56,"x_max":319,"o":"m 210 -136 q 225 -177 210 -160 q 267 -194 240 -194 q 298 -190 286 -194 q 319 -181 310 -186 l 319 -310 q 279 -323 304 -317 q 224 -329 254 -329 q 97 -290 139 -329 q 56 -181 56 -250 q 67 -113 56 -147 q 106 -44 79 -79 q 176 22 133 -10 l 282 0 q 224 -76 238 -47 q 210 -136 210 -104 z "},"˜":{"ha":578,"x_min":56,"x_max":522,"o":"m 56 840 q 61 910 57 872 q 78 981 65 947 q 115 1037 90 1015 q 178 1058 139 1058 q 231 1048 206 1058 q 281 1024 257 1038 q 328 1000 306 1010 q 374 990 351 990 q 401 1008 393 990 q 415 1060 410 1026 l 522 1060 q 486 897 522 953 q 399 842 450 842 q 344 851 372 842 q 292 875 317 861 q 244 899 267 889 q 206 910 222 910 q 180 894 193 910 q 163 840 167 878 l 56 840 z "},"˝":{"ha":632,"x_min":56,"x_max":576,"o":"m 576 1051 q 547 1003 567 1031 q 500 946 526 975 q 446 889 474 917 q 394 842 418 861 l 292 842 l 292 860 q 335 947 315 907 q 370 1017 356 986 q 392 1064 385 1047 l 576 1064 l 576 1051 m 339 1051 q 309 1002 329 1029 q 263 947 289 975 q 208 892 238 919 q 150 842 179 865 l 56 842 l 56 860 q 99 947 79 908 q 134 1016 119 986 q 156 1064 149 1046 l 339 1064 l 339 1051 z "},"΄":{"ha":399,"x_min":56,"x_max":343,"o":"m 56 842 l 56 860 l 121 1078 l 343 1078 l 343 1065 l 194 842 l 56 842 z "},"΅":{"ha":879,"x_min":107,"x_max":772,"o":"m 317 842 l 317 860 l 368 1078 l 590 1078 l 590 1065 l 457 842 l 317 842 m 197 854 q 132 880 157 854 q 107 951 107 906 q 132 1026 107 1000 q 197 1051 157 1051 q 265 1025 240 1051 q 290 951 290 999 q 265 881 290 907 q 197 854 240 854 m 679 854 q 613 881 638 854 q 588 951 588 907 q 613 1026 588 1000 q 679 1051 638 1051 q 747 1025 722 1051 q 772 951 772 999 q 747 881 772 907 q 679 854 722 854 z "},"Ά":{"ha":915,"x_min":14,"x_max":915,"o":"m 689 0 l 643 218 l 425 218 l 381 0 l 153 0 l 393 992 l 669 992 l 914 0 l 689 0 m 563 644 q 552 713 557 679 q 543 776 547 746 q 535 832 539 806 q 528 777 532 807 q 518 715 524 747 q 506 647 513 682 l 457 400 l 611 400 l 563 644 m 14 756 l 14 774 l 79 992 l 301 992 l 301 979 l 153 756 l 14 756 z "},"·":{"ha":365,"x_min":67,"x_max":300,"o":"m 67 653 q 97 742 67 711 q 185 774 128 774 q 270 742 240 774 q 300 653 300 711 q 269 563 300 594 q 185 532 239 532 q 99 563 131 532 q 67 653 67 594 z "},"Έ":{"ha":904,"x_min":14,"x_max":846,"o":"m 846 0 l 386 0 l 386 992 l 846 992 l 846 813 l 597 813 l 597 604 l 828 604 l 828 424 l 597 424 l 597 182 l 846 182 l 846 0 m 14 756 l 14 774 l 79 992 l 301 992 l 301 979 l 153 756 l 14 756 z "},"Ή":{"ha":1124,"x_min":14,"x_max":1038,"o":"m 1038 0 l 826 0 l 826 425 l 597 425 l 597 0 l 386 0 l 386 992 l 597 992 l 597 607 l 826 607 l 826 992 l 1038 992 l 1038 0 m 14 756 l 14 774 l 79 992 l 301 992 l 301 979 l 153 756 l 14 756 z "},"Ί":{"ha":799,"x_min":14,"x_max":761,"o":"m 761 0 l 365 0 l 365 114 l 458 157 l 458 835 l 365 878 l 365 992 l 761 992 l 761 878 l 669 835 l 669 157 l 761 114 l 761 0 m 14 756 l 14 774 l 79 992 l 301 992 l 301 979 l 153 756 l 14 756 z "},"Ό":{"ha":1072,"x_min":14,"x_max":1015,"o":"m 1015 497 q 992 281 1015 376 q 924 120 969 186 q 810 20 879 54 q 651 -14 742 -14 q 494 21 563 -14 q 379 122 425 56 q 310 283 333 188 q 288 499 288 378 q 329 778 288 665 q 452 949 371 892 q 651 1007 533 1007 q 854 947 774 1007 q 975 774 935 888 q 1015 497 1015 660 m 507 497 q 523 317 507 389 q 572 208 539 244 q 651 172 604 172 q 732 208 700 172 q 780 315 764 243 q 796 497 796 386 q 760 744 796 663 q 651 825 724 825 q 572 788 604 825 q 523 678 539 751 q 507 497 507 606 m 14 756 l 14 774 l 79 992 l 301 992 l 301 979 l 153 756 l 14 756 z "},"Ύ":{"ha":1061,"x_min":14,"x_max":1061,"o":"m 717 608 l 843 992 l 1061 992 l 821 382 l 821 0 l 610 0 l 610 375 l 369 992 l 589 992 l 717 608 m 14 756 l 14 774 l 79 992 l 301 992 l 301 979 l 153 756 l 14 756 z "},"Ώ":{"ha":1017,"x_min":14,"x_max":996,"o":"m 264 0 l 264 182 l 426 182 q 334 273 369 218 q 282 401 299 328 q 265 560 265 474 q 308 799 265 699 q 433 953 351 899 q 631 1007 515 1007 q 822 953 740 1007 q 948 800 903 900 q 993 560 993 700 q 977 402 993 474 q 925 276 961 331 q 829 182 889 221 l 996 182 l 996 0 l 674 0 l 674 203 q 736 287 713 238 q 771 402 760 336 q 782 551 782 468 q 765 703 782 643 q 715 794 749 764 q 631 825 682 825 q 546 794 579 825 q 496 703 513 764 q 479 550 479 642 q 488 399 479 465 q 521 285 497 333 q 585 203 544 236 l 585 0 l 264 0 m 14 756 l 14 774 l 79 992 l 301 992 l 301 979 l 153 756 l 14 756 z "},"ΐ":{"ha":419,"x_min":-100,"x_max":565,"o":"m 289 -14 q 174 15 222 -12 q 99 99 125 42 q 74 246 74 157 l 74 764 l 275 764 l 275 260 q 290 186 275 211 q 336 161 306 161 q 365 165 350 161 q 396 174 381 168 l 396 1 q 343 -10 371 -7 q 289 -14 315 -14 m 110 842 l 110 860 l 161 1078 l 383 1078 l 383 1065 l 250 842 l 110 842 m -10 854 q -75 880 -50 854 q -100 951 -100 906 q -75 1026 -100 1000 q -10 1051 -50 1051 q 58 1025 33 1051 q 83 951 83 999 q 58 881 83 907 q -10 854 33 854 m 472 854 q 406 881 431 854 q 381 951 381 907 q 406 1026 381 1000 q 472 1051 431 1051 q 540 1025 515 1051 q 565 951 565 999 q 540 881 565 907 q 472 854 515 854 z "},"Α":{"ha":761,"x_min":0,"x_max":761,"o":"m 536 0 l 490 218 l 272 218 l 228 0 l 0 0 l 240 992 l 517 992 l 761 0 l 536 0 m 410 644 q 399 713 404 679 q 390 776 394 746 q 382 832 386 806 q 375 777 379 807 q 365 715 371 747 q 353 647 360 682 l 304 400 l 458 400 l 410 644 z "},"Β":{"ha":751,"x_min":86,"x_max":693,"o":"m 358 992 q 598 931 519 992 q 676 746 676 871 q 660 644 676 689 q 615 568 644 599 q 544 526 585 538 l 544 519 q 630 474 597 506 q 678 397 663 443 q 693 289 693 351 q 656 135 693 200 q 551 35 619 71 q 389 0 483 0 l 86 0 l 86 992 l 358 992 m 358 597 q 436 627 410 597 q 463 715 463 657 q 436 793 463 767 q 356 819 410 819 l 297 819 l 297 597 l 358 597 m 297 431 l 297 176 l 372 176 q 451 208 425 176 q 478 306 478 240 q 465 374 478 347 q 427 416 451 401 q 367 431 403 431 l 297 431 z "},"Γ":{"ha":575,"x_min":86,"x_max":529,"o":"m 86 0 l 86 992 l 529 992 l 529 813 l 297 813 l 297 0 l 86 0 z "},"Δ":{"ha":761,"x_min":14,"x_max":747,"o":"m 14 0 l 14 108 l 240 992 l 517 992 l 747 107 l 747 0 l 14 0 m 251 182 l 511 182 l 415 644 q 402 713 408 679 q 391 776 396 746 q 382 832 386 806 q 374 777 379 807 q 362 715 368 747 q 347 647 356 682 l 251 182 z "},"Ε":{"ha":603,"x_min":86,"x_max":546,"o":"m 546 0 l 86 0 l 86 992 l 546 992 l 546 813 l 297 813 l 297 604 l 528 604 l 528 424 l 297 424 l 297 182 l 546 182 l 546 0 z "},"Ζ":{"ha":622,"x_min":31,"x_max":593,"o":"m 593 0 l 31 0 l 31 150 l 357 811 l 38 811 l 38 992 l 585 992 l 585 842 l 260 182 l 593 182 l 593 0 z "},"Η":{"ha":824,"x_min":86,"x_max":738,"o":"m 738 0 l 526 0 l 526 425 l 297 425 l 297 0 l 86 0 l 86 992 l 297 992 l 297 607 l 526 607 l 526 992 l 738 992 l 738 0 z "},"Θ":{"ha":842,"x_min":57,"x_max":785,"o":"m 324 419 l 324 589 l 518 589 l 518 419 l 324 419 m 785 497 q 762 281 785 376 q 694 120 739 186 q 580 20 649 54 q 421 -14 511 -14 q 263 21 331 -14 q 149 122 194 56 q 80 283 103 188 q 57 499 57 378 q 99 778 57 664 q 222 949 140 892 q 421 1007 303 1007 q 624 947 543 1007 q 744 774 704 888 q 785 497 785 660 m 276 497 q 292 317 276 389 q 341 208 308 244 q 421 172 374 172 q 501 208 469 172 q 549 315 533 243 q 565 497 565 386 q 529 744 565 663 q 422 825 493 825 q 341 788 374 825 q 292 679 308 751 q 276 497 276 607 z "},"Ι":{"ha":471,"x_min":38,"x_max":433,"o":"m 433 0 l 38 0 l 38 114 l 131 157 l 131 835 l 38 878 l 38 992 l 433 992 l 433 878 l 342 835 l 342 157 l 433 114 l 433 0 z "},"Κ":{"ha":736,"x_min":86,"x_max":747,"o":"m 747 0 l 513 0 l 356 388 l 297 340 l 297 0 l 86 0 l 86 992 l 297 992 l 297 547 q 319 607 304 575 q 353 676 333 639 l 521 992 l 747 992 l 507 549 l 747 0 z "},"Λ":{"ha":761,"x_min":0,"x_max":761,"o":"m 0 0 l 240 992 l 517 992 l 761 0 l 536 0 l 410 644 q 399 713 404 679 q 390 776 394 746 q 382 832 386 806 q 375 777 379 807 q 365 715 371 747 q 353 647 360 682 l 228 0 l 0 0 z "},"Μ":{"ha":1094,"x_min":86,"x_max":1008,"o":"m 463 0 l 279 701 l 274 701 q 280 616 278 657 q 283 540 282 575 q 283 474 283 504 l 283 0 l 86 0 l 86 992 l 376 992 l 546 351 l 550 351 l 721 992 l 1008 992 l 1008 0 l 807 0 l 807 476 q 808 545 807 510 q 810 619 808 581 q 815 701 813 658 l 810 701 l 624 0 l 463 0 z "},"Ν":{"ha":886,"x_min":86,"x_max":800,"o":"m 800 0 l 553 0 l 278 657 l 272 657 q 279 561 276 606 q 283 481 282 517 q 283 417 283 446 l 283 0 l 86 0 l 86 992 l 332 992 l 607 350 l 611 350 q 606 441 608 399 q 603 519 604 483 q 601 582 601 554 l 601 992 l 800 992 l 800 0 z "},"Ξ":{"ha":685,"x_min":57,"x_max":628,"o":"m 57 0 l 57 182 l 628 182 l 628 0 l 57 0 m 117 429 l 117 611 l 568 611 l 568 429 l 117 429 m 78 810 l 78 992 l 608 992 l 608 810 l 78 810 z "},"Ο":{"ha":842,"x_min":57,"x_max":785,"o":"m 785 497 q 762 281 785 376 q 694 120 739 186 q 580 20 649 54 q 421 -14 511 -14 q 263 21 332 -14 q 149 122 194 56 q 80 283 103 188 q 57 499 57 378 q 99 778 57 665 q 222 949 140 892 q 421 1007 303 1007 q 624 947 543 1007 q 744 774 704 888 q 785 497 785 660 m 276 497 q 292 317 276 389 q 341 208 308 244 q 421 172 374 172 q 501 208 469 172 q 549 315 533 243 q 565 497 565 386 q 529 744 565 663 q 421 825 493 825 q 341 788 374 825 q 292 678 308 751 q 276 497 276 606 z "},"Π":{"ha":824,"x_min":86,"x_max":738,"o":"m 86 0 l 86 992 l 738 992 l 738 0 l 526 0 l 526 808 l 297 808 l 297 0 l 86 0 z "},"Ρ":{"ha":700,"x_min":86,"x_max":660,"o":"m 357 992 q 584 912 508 992 q 660 681 660 832 q 640 544 660 606 q 583 436 621 482 q 485 366 544 390 q 347 342 426 342 l 297 342 l 297 0 l 86 0 l 86 992 l 357 992 m 339 813 l 297 813 l 297 521 l 325 521 q 392 537 365 521 q 434 588 419 553 q 449 679 449 622 q 422 780 449 747 q 339 813 394 813 z "},"Σ":{"ha":621,"x_min":31,"x_max":592,"o":"m 31 0 l 31 172 l 240 519 l 39 825 l 39 992 l 585 992 l 585 813 l 397 813 q 324 814 358 813 q 271 818 290 815 l 451 551 l 451 510 l 247 175 q 316 181 282 179 q 378 182 350 182 l 592 182 l 592 0 l 31 0 z "},"Τ":{"ha":615,"x_min":21,"x_max":593,"o":"m 413 0 l 204 0 l 204 808 l 21 808 l 21 992 l 593 992 l 593 808 l 413 808 l 413 0 z "},"Υ":{"ha":692,"x_min":0,"x_max":692,"o":"m 347 608 l 474 992 l 692 992 l 451 382 l 451 0 l 240 0 l 240 375 l 0 992 l 219 992 l 347 608 z "},"Φ":{"ha":1049,"x_min":43,"x_max":1006,"o":"m 422 -14 l 422 125 q 252 153 324 125 q 134 234 181 182 q 65 358 88 286 q 43 515 43 429 q 63 663 43 593 q 128 785 83 732 q 245 867 172 838 q 422 897 318 897 l 422 1006 l 626 1006 l 626 897 q 794 867 722 897 q 913 785 865 838 q 983 663 960 732 q 1006 514 1006 593 q 982 358 1006 429 q 912 235 958 288 q 794 154 865 183 q 626 125 722 125 l 626 -14 l 422 -14 m 422 300 l 422 722 q 321 697 358 722 q 267 626 283 672 q 250 517 250 581 q 267 395 250 443 q 322 324 285 347 q 422 300 360 300 m 625 300 q 726 326 689 300 q 781 399 764 351 q 797 517 797 447 q 780 624 797 578 q 725 696 763 669 q 625 722 688 722 l 625 300 z "},"Χ":{"ha":688,"x_min":0,"x_max":688,"o":"m 688 0 l 460 0 l 343 311 l 221 0 l 0 0 l 222 500 l 15 992 l 235 992 l 338 696 l 438 992 l 660 992 l 458 506 l 688 0 z "},"Ψ":{"ha":997,"x_min":81,"x_max":918,"o":"m 397 0 l 397 233 q 265 256 324 236 q 165 315 207 275 q 102 416 124 354 q 81 565 81 478 l 81 992 l 292 992 l 292 560 q 303 475 292 507 q 337 429 314 443 q 397 415 360 415 l 397 992 l 601 992 l 601 415 q 665 430 642 415 q 697 476 688 444 q 706 557 706 507 l 706 992 l 918 992 l 918 581 q 878 386 918 463 q 768 273 839 310 q 601 233 697 236 l 601 0 l 397 0 z "},"Ω":{"ha":771,"x_min":19,"x_max":751,"o":"m 19 0 l 19 182 l 182 182 q 90 273 125 218 q 38 401 54 328 q 21 560 21 474 q 64 799 21 699 q 189 953 107 899 q 386 1007 271 1007 q 577 953 496 1007 q 703 800 658 900 q 749 560 749 700 q 733 402 749 474 q 681 276 717 331 q 585 182 644 221 l 751 182 l 751 0 l 429 0 l 429 203 q 492 287 468 238 q 526 402 515 336 q 538 551 538 468 q 521 703 538 643 q 471 794 504 764 q 386 825 438 825 q 301 794 335 825 q 251 703 268 764 q 235 550 235 642 q 244 399 235 465 q 276 285 253 333 q 340 203 300 236 l 340 0 l 19 0 z "},"Ϊ":{"ha":471,"x_min":14,"x_max":457,"o":"m 433 0 l 38 0 l 38 114 l 131 157 l 131 835 l 38 878 l 38 992 l 433 992 l 433 878 l 342 835 l 342 157 l 433 114 l 433 0 m 13 1179 q 38 1253 13 1228 q 103 1279 63 1279 q 171 1253 146 1279 q 196 1179 196 1226 q 171 1108 196 1135 q 103 1082 146 1082 q 38 1108 63 1082 q 13 1179 13 1133 m 272 1179 q 297 1253 272 1228 q 364 1279 322 1279 q 431 1253 407 1279 q 456 1179 456 1226 q 431 1108 456 1135 q 363 1082 407 1082 q 297 1108 321 1082 q 272 1179 272 1135 z "},"Ϋ":{"ha":692,"x_min":0,"x_max":692,"o":"m 347 608 l 474 992 l 692 992 l 451 382 l 451 0 l 240 0 l 240 375 l 0 992 l 219 992 l 347 608 m 124 1179 q 149 1253 124 1228 q 214 1279 174 1279 q 282 1253 257 1279 q 307 1179 307 1226 q 282 1108 307 1135 q 214 1082 257 1082 q 149 1108 174 1082 q 124 1179 124 1133 m 383 1179 q 408 1253 383 1228 q 475 1279 433 1279 q 542 1253 518 1279 q 567 1179 567 1226 q 542 1108 567 1135 q 474 1082 518 1082 q 408 1108 432 1082 q 383 1179 383 1135 z "},"ά":{"ha":744,"x_min":47,"x_max":719,"o":"m 268 -14 q 149 33 199 -14 q 74 169 100 81 q 47 378 47 257 q 107 672 47 565 q 279 778 167 778 q 350 763 322 778 q 398 724 378 749 q 435 667 418 699 l 446 667 l 463 764 l 636 764 l 636 246 q 649 182 636 204 q 683 160 661 160 q 703 162 694 160 q 719 167 713 164 l 719 3 q 699 -5 715 -1 q 665 -11 683 -8 q 636 -14 647 -14 q 515 13 560 -14 q 447 100 471 40 l 435 100 q 390 38 415 63 q 335 -1 365 13 q 268 -14 306 -14 m 340 160 q 393 179 372 160 q 424 243 414 199 q 435 363 435 288 l 435 386 q 412 553 435 501 q 336 604 389 604 q 273 545 294 604 q 251 376 251 486 q 273 213 251 265 q 340 160 294 160 m 256 842 l 256 860 l 321 1078 l 543 1078 l 543 1065 l 394 842 l 256 842 z "},"έ":{"ha":544,"x_min":33,"x_max":515,"o":"m 303 -14 q 101 48 169 -14 q 33 214 33 110 q 53 304 33 267 q 106 365 72 342 q 178 396 139 388 l 178 403 q 92 465 121 419 q 64 571 64 510 q 94 681 64 635 q 179 752 124 726 q 311 778 235 778 q 408 767 360 778 q 511 724 456 757 l 460 574 q 398 606 428 596 q 340 615 368 615 q 274 594 294 615 q 253 543 253 574 q 275 490 253 511 q 343 469 297 469 l 411 469 l 411 314 l 342 314 q 277 304 301 314 q 242 277 253 294 q 232 236 232 260 q 260 175 232 194 q 338 156 289 156 q 432 170 393 156 q 513 215 471 185 l 513 43 q 411 -1 463 11 q 303 -14 360 -14 m 228 842 l 228 860 l 293 1078 l 515 1078 l 515 1065 l 367 842 l 228 842 z "},"ή":{"ha":703,"x_min":74,"x_max":631,"o":"m 429 -333 l 429 440 q 417 558 429 518 q 361 599 406 599 q 310 576 329 599 q 283 501 292 553 q 275 358 275 449 l 275 0 l 74 0 l 74 764 l 232 764 l 254 668 l 267 668 q 308 728 283 704 q 363 765 332 753 q 428 778 394 778 q 541 745 496 778 q 608 652 586 713 q 631 501 631 592 l 631 -333 l 429 -333 m 258 842 l 258 860 l 324 1078 l 546 1078 l 546 1065 l 397 842 l 258 842 z "},"ί":{"ha":419,"x_min":74,"x_max":396,"o":"m 289 -14 q 174 15 222 -12 q 99 99 125 42 q 74 246 74 157 l 74 764 l 275 764 l 275 260 q 290 186 275 211 q 336 161 306 161 q 365 165 350 161 q 396 174 381 168 l 396 1 q 343 -10 371 -7 q 289 -14 315 -14 m 110 842 l 110 860 l 175 1078 l 397 1078 l 397 1065 l 249 842 l 110 842 z "},"ΰ":{"ha":703,"x_min":61,"x_max":726,"o":"m 336 -12 q 212 8 263 -12 q 131 67 161 28 q 86 161 100 106 q 72 288 72 217 l 72 764 l 274 764 l 274 300 q 278 227 274 257 q 296 181 282 197 q 342 165 310 165 q 395 190 375 165 q 424 266 415 214 q 433 404 433 318 q 423 576 433 488 q 393 764 413 665 l 593 764 q 619 633 610 690 q 631 522 628 575 q 635 406 635 468 q 558 92 635 196 q 336 -12 482 -12 m 271 842 l 271 860 l 322 1078 l 544 1078 l 544 1065 l 411 842 l 271 842 m 151 854 q 86 880 111 854 q 61 951 61 906 q 86 1026 61 1000 q 151 1051 111 1051 q 219 1025 194 1051 q 244 951 244 999 q 219 881 244 907 q 151 854 194 854 m 633 854 q 567 881 592 854 q 542 951 542 907 q 567 1026 542 1000 q 633 1051 592 1051 q 701 1025 676 1051 q 726 951 726 999 q 701 881 726 907 q 633 854 676 854 z "},"α":{"ha":744,"x_min":47,"x_max":719,"o":"m 268 -14 q 149 33 199 -14 q 74 169 100 81 q 47 378 47 257 q 107 672 47 565 q 279 778 167 778 q 350 763 322 778 q 398 724 378 749 q 435 667 418 699 l 446 667 l 463 764 l 636 764 l 636 246 q 649 182 636 204 q 683 160 661 160 q 703 162 694 160 q 719 167 713 164 l 719 3 q 699 -5 715 -1 q 665 -11 683 -8 q 636 -14 647 -14 q 515 13 560 -14 q 447 100 471 40 l 435 100 q 390 38 415 63 q 335 -1 365 13 q 268 -14 306 -14 m 340 160 q 393 179 372 160 q 424 243 414 199 q 435 363 435 288 l 435 386 q 412 553 435 501 q 336 604 389 604 q 273 545 294 604 q 251 376 251 486 q 273 213 251 265 q 340 160 294 160 z "},"β":{"ha":710,"x_min":74,"x_max":663,"o":"m 74 -333 l 74 750 q 104 919 74 850 q 197 1026 135 989 q 353 1063 258 1063 q 496 1030 436 1063 q 587 938 556 997 q 618 797 618 879 q 599 681 618 729 q 548 603 581 632 q 474 563 515 574 l 474 557 q 581 513 539 546 q 642 427 622 481 q 663 297 663 374 q 632 133 663 203 q 546 24 601 63 q 411 -14 490 -14 q 354 -8 378 -14 q 313 7 331 -3 q 275 28 296 17 l 275 -333 l 74 -333 m 356 161 q 433 199 407 161 q 458 315 458 238 q 446 394 458 361 q 410 445 433 426 q 350 464 386 464 l 313 464 l 313 629 l 340 629 q 384 645 368 629 q 408 692 400 661 q 417 765 417 722 q 400 860 417 828 q 346 893 383 893 q 304 878 319 893 q 282 833 289 864 q 275 753 275 801 l 275 201 q 313 172 292 182 q 356 161 333 161 z "},"γ":{"ha":660,"x_min":4,"x_max":614,"o":"m 196 -292 l 196 -19 l 4 764 l 214 764 l 301 306 q 309 267 306 286 q 315 231 313 249 q 318 194 317 213 l 324 194 q 375 378 356 288 q 403 565 394 469 q 413 764 413 660 l 614 764 q 591 492 614 619 q 520 246 568 365 q 396 6 472 126 l 396 -292 l 196 -292 z "},"δ":{"ha":676,"x_min":33,"x_max":628,"o":"m 328 -14 q 164 24 229 -14 q 66 131 99 61 q 33 299 33 201 q 56 438 33 376 q 124 543 79 499 q 233 614 168 588 q 165 681 192 646 q 125 755 138 715 q 113 838 113 794 q 144 960 113 910 q 233 1035 175 1010 q 368 1061 290 1061 q 454 1053 414 1061 q 530 1028 494 1044 q 596 989 565 1013 l 528 831 q 449 881 485 865 q 381 897 414 897 q 342 890 357 897 q 318 869 326 882 q 310 836 310 856 q 319 803 310 821 q 352 762 328 786 q 422 701 376 738 q 538 594 493 650 q 606 469 583 538 q 628 308 628 400 q 593 140 628 213 q 491 27 558 68 q 328 -14 424 -14 m 329 156 q 380 174 358 156 q 413 227 401 192 q 424 314 424 263 q 415 397 424 360 q 386 466 406 435 q 336 522 367 497 q 296 492 314 513 q 265 443 278 471 q 244 381 251 415 q 238 310 238 347 q 249 226 238 261 q 280 174 260 192 q 329 156 300 156 z "},"ε":{"ha":544,"x_min":33,"x_max":513,"o":"m 303 -14 q 101 48 169 -14 q 33 214 33 110 q 53 304 33 267 q 106 365 72 342 q 178 396 139 388 l 178 403 q 92 465 121 419 q 64 571 64 510 q 94 681 64 635 q 179 752 124 726 q 311 778 235 778 q 408 767 360 778 q 511 724 456 757 l 460 574 q 398 606 428 596 q 340 615 368 615 q 274 594 294 615 q 253 543 253 574 q 275 490 253 511 q 343 469 297 469 l 411 469 l 411 314 l 342 314 q 277 304 301 314 q 242 277 253 294 q 232 236 232 260 q 260 175 232 194 q 338 156 289 156 q 432 170 393 156 q 513 215 471 185 l 513 43 q 411 -1 463 11 q 303 -14 360 -14 z "},"ζ":{"ha":539,"x_min":47,"x_max":546,"o":"m 286 -281 q 334 -187 317 -232 q 351 -111 351 -143 q 344 -67 351 -85 q 315 -37 336 -50 q 254 -12 294 -25 q 146 42 193 8 q 73 133 99 76 q 47 271 47 189 q 68 421 47 349 q 130 570 89 493 q 232 743 171 647 l 336 904 q 305 897 322 900 q 268 892 288 893 q 225 890 249 890 l 72 890 l 72 1056 l 543 1056 l 543 925 l 389 668 q 312 531 343 592 q 265 418 281 469 q 250 317 250 367 q 260 251 250 281 q 299 197 269 221 q 388 154 329 174 q 479 109 444 136 q 530 44 514 82 q 546 -47 546 7 q 535 -129 546 -87 q 508 -209 525 -171 q 471 -281 492 -247 l 286 -281 z "},"η":{"ha":703,"x_min":74,"x_max":631,"o":"m 429 -333 l 429 440 q 417 558 429 518 q 361 599 406 599 q 310 576 329 599 q 283 501 292 553 q 275 358 275 449 l 275 0 l 74 0 l 74 764 l 232 764 l 254 668 l 267 668 q 308 728 283 704 q 363 765 332 753 q 428 778 394 778 q 541 745 496 778 q 608 652 586 713 q 631 501 631 592 l 631 -333 l 429 -333 z "},"θ":{"ha":696,"x_min":47,"x_max":647,"o":"m 346 -14 q 179 42 246 -14 q 80 217 113 99 q 47 529 47 336 q 81 833 47 715 q 180 1006 114 950 q 346 1063 246 1063 q 514 1007 447 1063 q 614 833 581 951 q 647 529 647 715 q 614 219 647 339 q 514 43 581 100 q 346 -14 447 -14 m 344 149 q 401 176 379 149 q 435 267 424 203 q 447 443 446 332 l 247 443 q 260 268 249 333 q 292 176 271 203 q 344 149 313 149 m 249 610 l 450 610 q 435 785 447 721 q 401 874 422 849 q 347 900 381 900 q 294 874 315 900 q 263 785 274 849 q 249 610 251 721 z "},"ι":{"ha":419,"x_min":74,"x_max":396,"o":"m 289 -14 q 174 15 222 -12 q 99 99 125 42 q 74 246 74 157 l 74 764 l 275 764 l 275 260 q 290 186 275 211 q 336 161 306 161 q 365 165 350 161 q 396 174 381 168 l 396 1 q 343 -10 371 -7 q 289 -14 315 -14 z "},"κ":{"ha":688,"x_min":74,"x_max":693,"o":"m 683 764 l 482 446 l 693 0 l 472 0 l 343 297 l 275 235 l 275 0 l 74 0 l 74 764 l 275 764 l 275 614 q 274 515 275 564 q 267 419 272 467 l 271 419 q 299 476 285 449 q 325 524 313 503 l 467 764 l 683 764 z "},"λ":{"ha":679,"x_min":4,"x_max":675,"o":"m 590 -14 q 488 8 529 -14 q 418 79 446 29 q 368 214 390 129 l 332 353 q 326 376 329 364 q 322 399 324 388 q 319 424 321 411 q 317 449 318 436 l 311 449 q 306 404 310 425 q 299 365 303 383 l 214 0 l 4 0 l 219 719 l 197 794 q 162 866 182 849 q 106 883 142 883 q 78 881 92 883 q 53 875 65 879 l 53 1051 q 79 1058 65 1056 q 110 1061 93 1060 q 146 1063 126 1063 q 260 1042 214 1064 q 338 974 307 1021 q 390 847 369 926 l 554 240 q 572 195 563 211 q 596 172 582 179 q 628 165 610 165 q 653 167 642 165 q 675 174 665 169 l 675 -3 q 650 -8 664 -6 q 622 -12 636 -11 q 590 -14 607 -14 z "},"μ":{"ha":750,"x_min":74,"x_max":725,"o":"m 74 -333 l 74 764 l 275 764 l 275 326 q 290 206 275 247 q 343 165 304 165 q 422 223 404 165 q 440 404 440 281 l 440 764 l 642 764 l 642 246 q 654 182 642 204 q 689 160 667 160 q 709 162 700 160 q 725 167 718 164 l 725 3 q 704 -5 721 -1 q 670 -11 688 -8 q 642 -14 653 -14 q 524 12 565 -14 q 460 99 483 38 l 451 99 q 425 39 440 64 q 390 0 410 14 q 347 -14 371 -14 q 303 1 319 -14 q 274 46 286 15 l 269 46 q 273 0 272 25 q 274 -53 274 -25 q 275 -110 275 -81 l 275 -333 l 74 -333 z "},"ν":{"ha":660,"x_min":4,"x_max":614,"o":"m 190 0 l 4 764 l 214 764 l 301 306 q 308 267 306 286 q 314 231 311 249 q 318 194 317 213 l 324 194 q 375 377 356 286 q 403 564 394 468 q 413 764 413 660 l 614 764 q 590 486 614 614 q 517 240 567 358 q 392 0 468 121 l 190 0 z "},"ξ":{"ha":588,"x_min":47,"x_max":556,"o":"m 293 -281 q 341 -187 324 -232 q 358 -111 358 -143 q 351 -67 358 -83 q 321 -37 343 -50 q 254 -11 299 -25 q 151 38 199 6 q 76 129 104 71 q 47 281 47 188 q 65 401 47 347 q 121 492 83 454 q 217 550 158 531 l 217 556 q 142 594 174 571 q 96 653 111 618 q 81 731 81 688 q 97 808 81 774 q 143 865 114 842 q 207 897 172 888 q 172 893 188 894 q 140 891 156 892 q 110 890 125 890 l 72 890 l 72 1056 l 556 1056 l 556 890 l 461 890 q 385 883 419 890 q 328 859 351 875 q 292 817 304 843 q 279 757 279 792 q 297 690 279 718 q 349 645 314 661 q 436 629 383 629 l 519 629 l 519 464 l 429 464 q 331 448 371 464 q 271 400 292 432 q 250 318 250 368 q 261 245 250 275 q 302 194 272 215 q 388 154 332 172 q 485 109 449 136 q 537 44 521 82 q 553 -47 553 7 q 542 -129 553 -87 q 515 -209 532 -171 q 479 -281 499 -247 l 293 -281 z "},"ο":{"ha":696,"x_min":47,"x_max":647,"o":"m 647 383 q 631 235 647 307 q 581 108 615 164 q 488 19 546 51 q 347 -14 431 -14 q 213 18 269 -14 q 119 106 156 50 q 65 234 83 163 q 47 383 47 306 q 78 586 47 497 q 176 726 110 675 q 349 778 243 778 q 507 732 440 778 q 610 598 574 686 q 647 383 647 510 m 251 381 q 262 256 251 307 q 294 181 272 206 q 347 156 315 156 q 403 181 383 156 q 433 257 424 206 q 443 383 443 308 q 433 510 443 460 q 403 584 424 560 q 349 608 383 608 q 274 553 297 608 q 251 381 251 497 z "},"π":{"ha":815,"x_min":13,"x_max":790,"o":"m 647 -12 q 515 47 558 -12 q 472 226 472 106 l 472 597 l 329 597 l 329 0 l 129 0 l 129 597 l 13 597 l 13 764 l 790 764 l 790 597 l 674 597 l 674 232 q 685 179 674 196 q 715 163 696 163 q 753 168 732 163 q 790 183 774 174 l 790 28 q 724 -3 763 7 q 647 -12 686 -12 z "},"ρ":{"ha":689,"x_min":53,"x_max":642,"o":"m 53 -333 l 53 381 q 81 587 53 497 q 175 727 110 676 q 350 778 240 778 q 499 738 433 778 q 603 610 565 699 q 642 374 642 522 q 615 180 642 268 q 530 39 588 92 q 379 -14 472 -14 q 309 1 338 -14 q 256 39 281 17 l 247 39 q 253 -60 251 -12 q 254 -146 254 -108 l 254 -333 l 53 -333 m 338 154 q 394 176 371 154 q 427 246 417 197 q 438 374 438 294 q 413 558 438 507 q 343 608 389 608 q 276 568 297 608 q 254 432 254 528 l 254 192 q 292 165 271 175 q 338 154 313 154 z "},"σ":{"ha":733,"x_min":47,"x_max":696,"o":"m 346 -14 q 182 35 249 -14 q 81 173 115 85 q 47 376 47 261 q 87 595 47 510 q 201 722 126 681 q 381 764 275 764 l 696 764 l 696 597 l 568 597 q 614 531 597 568 q 639 449 631 493 q 647 356 647 406 q 626 206 647 274 q 566 88 606 138 q 471 13 526 39 q 346 -14 415 -14 m 344 156 q 399 178 378 156 q 432 249 421 201 q 443 367 443 296 q 438 458 443 415 q 423 538 433 501 q 394 597 413 574 l 376 597 q 305 574 333 597 q 264 499 276 550 q 251 367 251 449 q 262 247 251 293 q 293 178 272 200 q 344 156 314 156 z "},"τ":{"ha":563,"x_min":13,"x_max":525,"o":"m 347 -15 q 235 12 279 -15 q 171 95 192 39 q 150 239 150 151 l 150 597 l 13 597 l 13 764 l 525 764 l 525 597 l 351 597 l 351 249 q 358 200 351 219 q 378 170 365 181 q 413 160 392 160 q 454 165 432 160 q 500 182 476 171 l 500 22 q 432 -6 471 4 q 347 -15 393 -15 z "},"υ":{"ha":703,"x_min":72,"x_max":635,"o":"m 336 -12 q 212 8 263 -12 q 131 67 161 28 q 86 161 100 106 q 72 288 72 217 l 72 764 l 274 764 l 274 300 q 278 227 274 257 q 296 181 282 197 q 342 165 310 165 q 395 190 375 165 q 424 266 415 214 q 433 404 433 318 q 423 576 433 488 q 393 764 413 665 l 593 764 q 619 633 610 690 q 631 522 628 575 q 635 406 635 468 q 558 92 635 196 q 336 -12 482 -12 z "},"φ":{"ha":931,"x_min":47,"x_max":882,"o":"m 376 -333 l 376 -3 q 199 57 274 7 q 86 190 125 107 q 47 381 47 274 q 84 578 47 496 q 194 709 121 661 q 375 765 267 757 l 375 1056 l 558 1056 l 558 765 q 736 706 664 757 q 845 572 808 656 q 882 381 882 488 q 844 187 882 269 q 735 56 807 104 q 558 -3 663 7 l 558 -333 l 376 -333 m 375 157 l 375 607 q 310 575 338 606 q 267 494 282 544 q 251 381 251 444 q 265 269 251 319 q 306 188 279 218 q 375 157 333 158 m 558 157 q 626 189 599 158 q 667 269 653 219 q 681 381 681 319 q 649 540 681 478 q 558 607 617 603 l 558 157 z "},"χ":{"ha":761,"x_min":13,"x_max":767,"o":"m 640 -333 q 542 -314 579 -333 q 480 -255 504 -294 q 432 -160 456 -215 l 157 511 q 118 588 133 568 q 76 608 103 608 q 49 606 63 608 q 24 599 35 603 l 24 764 q 67 773 42 769 q 121 776 92 776 q 215 759 178 776 q 278 703 251 742 q 331 600 306 664 l 607 -76 q 632 -129 622 -110 q 656 -156 642 -149 q 692 -164 669 -164 q 720 -162 707 -164 q 746 -157 733 -160 l 746 -324 q 717 -328 733 -326 q 683 -332 701 -331 q 640 -333 664 -333 m 13 -333 l 325 278 l 403 69 l 211 -333 l 13 -333 m 472 129 l 396 361 l 568 764 l 767 764 l 472 129 z "},"ψ":{"ha":954,"x_min":72,"x_max":886,"o":"m 376 -333 l 376 -12 q 205 26 272 -8 q 105 132 138 60 q 72 321 72 204 l 72 764 l 267 764 l 267 331 q 275 240 267 275 q 307 188 283 206 q 376 165 331 169 l 376 1056 l 571 1056 l 571 165 q 642 196 618 172 q 675 268 667 219 q 683 394 683 317 q 672 574 683 482 q 638 764 661 667 l 833 764 q 874 564 863 650 q 886 390 886 478 q 852 178 886 267 q 749 42 818 90 q 571 -12 679 -6 l 571 -333 l 376 -333 z "},"ω":{"ha":994,"x_min":61,"x_max":932,"o":"m 299 -14 q 165 33 218 -14 q 87 166 113 79 q 61 371 61 253 q 90 608 61 508 q 161 764 119 707 l 354 764 q 299 648 319 710 q 271 519 279 586 q 263 381 263 451 q 276 221 263 271 q 329 171 290 171 q 369 187 354 171 q 392 241 385 203 q 399 344 399 279 l 399 529 l 594 529 l 594 344 q 601 239 594 276 q 622 186 607 201 q 661 171 636 171 q 701 193 686 171 q 724 261 717 215 q 731 376 731 307 q 722 510 731 442 q 694 644 714 579 q 639 764 675 708 l 831 764 q 888 651 865 711 q 921 521 910 590 q 932 371 932 451 q 906 164 932 250 q 826 32 879 78 q 693 -14 774 -14 q 571 24 624 -14 q 500 156 518 61 l 494 156 q 453 56 481 93 q 386 2 425 18 q 299 -14 347 -14 z "},"ϊ":{"ha":419,"x_min":-43,"x_max":400,"o":"m 289 -14 q 174 15 222 -12 q 99 99 125 42 q 74 246 74 157 l 74 764 l 275 764 l 275 260 q 290 186 275 211 q 336 161 306 161 q 365 165 350 161 q 396 174 381 168 l 396 1 q 343 -10 371 -7 q 289 -14 315 -14 m -43 951 q -18 1026 -43 1000 q 47 1051 7 1051 q 115 1025 90 1051 q 140 951 140 999 q 115 881 140 907 q 47 854 90 854 q -18 880 7 854 q -43 951 -43 906 m 217 951 q 242 1026 217 1000 q 308 1051 267 1051 q 376 1025 351 1051 q 400 951 400 999 q 376 881 400 907 q 307 854 351 854 q 241 881 265 854 q 217 951 217 907 z "},"ϋ":{"ha":703,"x_min":72,"x_max":635,"o":"m 336 -12 q 212 8 263 -12 q 131 67 161 28 q 86 161 100 106 q 72 288 72 217 l 72 764 l 274 764 l 274 300 q 278 227 274 257 q 296 181 282 197 q 342 165 310 165 q 395 190 375 165 q 424 266 415 214 q 433 404 433 318 q 423 576 433 488 q 393 764 413 665 l 593 764 q 619 633 610 690 q 631 522 628 575 q 635 406 635 468 q 558 92 635 196 q 336 -12 482 -12 m 118 951 q 143 1026 118 1000 q 208 1051 168 1051 q 276 1025 251 1051 q 301 951 301 999 q 276 881 301 907 q 208 854 251 854 q 143 880 168 854 q 118 951 118 906 m 378 951 q 403 1026 378 1000 q 469 1051 428 1051 q 537 1025 513 1051 q 561 951 561 999 q 537 881 561 907 q 468 854 513 854 q 402 881 426 854 q 378 951 378 907 z "},"ό":{"ha":696,"x_min":47,"x_max":647,"o":"m 647 383 q 631 235 647 307 q 581 108 615 164 q 488 19 546 51 q 347 -14 431 -14 q 213 18 269 -14 q 119 106 156 50 q 65 234 83 163 q 47 383 47 306 q 78 586 47 497 q 176 726 110 675 q 349 778 243 778 q 507 732 440 778 q 610 598 574 686 q 647 383 647 510 m 251 381 q 262 256 251 307 q 294 181 272 206 q 347 156 315 156 q 403 181 383 156 q 433 257 424 206 q 443 383 443 308 q 433 510 443 460 q 403 584 424 560 q 349 608 383 608 q 274 553 297 608 q 251 381 251 497 m 279 842 l 279 860 l 344 1078 l 567 1078 l 567 1065 l 418 842 l 279 842 z "},"ύ":{"ha":703,"x_min":72,"x_max":635,"o":"m 336 -12 q 212 8 263 -12 q 131 67 161 28 q 86 161 100 106 q 72 288 72 217 l 72 764 l 274 764 l 274 300 q 278 227 274 257 q 296 181 282 197 q 342 165 310 165 q 395 190 375 165 q 424 266 415 214 q 433 404 433 318 q 423 576 433 488 q 393 764 413 665 l 593 764 q 619 633 610 690 q 631 522 628 575 q 635 406 635 468 q 558 92 635 196 q 336 -12 482 -12 m 271 842 l 271 860 l 336 1078 l 558 1078 l 558 1065 l 410 842 l 271 842 z "},"ώ":{"ha":994,"x_min":61,"x_max":932,"o":"m 299 -14 q 165 33 218 -14 q 87 166 113 79 q 61 371 61 253 q 90 608 61 508 q 161 764 119 707 l 354 764 q 299 648 319 710 q 271 519 279 586 q 263 381 263 451 q 276 221 263 271 q 329 171 290 171 q 369 187 354 171 q 392 241 385 203 q 399 344 399 279 l 399 529 l 594 529 l 594 344 q 601 239 594 276 q 622 186 607 201 q 661 171 636 171 q 701 193 686 171 q 724 261 717 215 q 731 376 731 307 q 722 510 731 442 q 694 644 714 579 q 639 764 675 708 l 831 764 q 888 651 865 711 q 921 521 910 590 q 932 371 932 451 q 906 164 932 250 q 826 32 879 78 q 693 -14 774 -14 q 571 24 624 -14 q 500 156 518 61 l 494 156 q 453 56 481 93 q 386 2 425 18 q 299 -14 347 -14 m 428 842 l 428 860 l 493 1078 l 715 1078 l 715 1065 l 567 842 l 428 842 z "},"Ё":{"ha":603,"x_min":86,"x_max":546,"o":"m 86 0 l 86 992 l 546 992 l 546 813 l 297 813 l 297 604 l 528 604 l 528 424 l 297 424 l 297 182 l 546 182 l 546 0 l 86 0 m 193 1079 q 130 1106 153 1079 q 107 1179 107 1132 q 131 1256 107 1229 q 194 1282 154 1282 q 258 1256 235 1282 q 282 1179 282 1229 q 258 1106 282 1132 q 193 1079 235 1079 m 435 1079 q 370 1106 393 1079 q 347 1179 347 1132 q 370 1256 347 1229 q 435 1282 393 1282 q 499 1256 475 1282 q 524 1179 524 1229 q 499 1106 524 1132 q 435 1079 475 1079 z "},"Ђ":{"ha":843,"x_min":21,"x_max":803,"o":"m 554 -17 q 500 -12 525 -17 q 457 -3 475 -8 l 457 169 q 481 165 471 167 q 501 164 492 164 q 569 195 547 164 q 592 294 592 226 l 592 294 q 565 390 592 358 q 486 422 539 422 q 425 412 456 422 q 365 382 394 401 l 406 457 l 406 0 l 196 0 l 196 808 l 21 808 l 21 992 l 631 992 l 631 808 l 406 808 l 406 517 l 342 557 q 433 592 388 581 q 526 603 479 603 q 732 523 661 603 q 803 293 803 443 l 803 293 q 774 126 803 196 q 689 20 744 57 q 554 -17 633 -17 z "},"Ѓ":{"ha":583,"x_min":86,"x_max":568,"o":"m 86 0 l 86 992 l 535 992 l 535 808 l 297 808 l 297 0 l 86 0 m 229 1067 l 229 1086 l 342 1289 l 569 1289 l 569 1276 l 375 1067 l 229 1067 z "},"Є":{"ha":693,"x_min":53,"x_max":656,"o":"m 419 -14 q 220 44 303 -14 q 95 215 138 103 q 53 490 53 328 q 99 760 53 644 q 232 941 144 876 q 442 1006 319 1006 q 552 992 499 1006 q 656 951 606 978 l 594 781 q 522 814 554 804 q 456 824 489 824 q 352 787 394 824 q 289 679 310 750 q 268 504 268 608 l 178 599 l 546 599 l 546 418 l 175 417 l 267 514 q 284 323 265 400 q 346 206 303 246 q 458 167 389 167 q 544 179 504 167 q 622 211 583 192 l 622 33 q 531 -1 586 11 q 419 -14 476 -14 z "},"Ѕ":{"ha":618,"x_min":42,"x_max":581,"o":"m 274 -14 q 197 -9 235 -14 q 120 8 158 -4 q 42 39 82 19 l 42 247 q 149 197 93 215 q 254 178 206 178 q 317 190 293 178 q 353 225 342 203 q 365 275 365 247 q 356 324 365 303 q 320 370 347 346 q 238 426 293 394 q 159 481 194 453 q 99 542 124 508 q 62 618 75 575 q 49 721 49 661 q 83 871 49 807 q 181 971 117 935 q 339 1006 246 1007 q 461 989 400 1006 q 581 939 522 972 l 521 758 q 430 803 471 789 q 354 817 389 817 q 304 807 325 817 q 272 778 283 797 q 261 729 261 758 q 272 681 261 703 q 312 635 283 658 q 396 579 340 611 q 498 502 457 543 q 560 411 539 461 q 581 296 581 361 q 543 135 581 206 q 438 26 506 65 q 274 -14 369 -14 z "},"І":{"ha":389,"x_min":89,"x_max":300,"o":"m 89 0 l 89 992 l 300 992 l 300 0 l 89 0 z "},"Ї":{"ha":411,"x_min":13,"x_max":399,"o":"m 100 0 l 100 992 l 311 992 l 311 0 l 100 0 m 99 1079 q 35 1106 58 1079 q 13 1179 13 1132 q 36 1256 13 1229 q 99 1282 60 1282 q 163 1256 139 1282 q 186 1179 186 1229 q 163 1106 186 1132 q 99 1079 139 1079 m 311 1079 q 248 1106 271 1079 q 225 1179 225 1132 q 249 1256 225 1231 q 311 1282 272 1282 q 376 1256 353 1282 q 399 1181 399 1231 q 376 1106 399 1132 q 311 1079 353 1079 z "},"Ј":{"ha":383,"x_min":-81,"x_max":299,"o":"m 29 -303 q -28 -299 0 -303 q -81 -287 -56 -296 l -81 -108 q -45 -118 -64 -114 q -4 -122 -26 -122 q 51 -106 31 -122 q 80 -52 71 -90 q 89 53 89 -14 l 89 992 l 299 992 l 299 60 q 267 -158 299 -79 q 176 -269 236 -236 q 29 -303 115 -303 z "},"Љ":{"ha":1122,"x_min":-1,"x_max":1085,"o":"m 97 -14 q 40 -10 64 -14 q -1 0 15 -6 l -1 178 q 21 172 10 174 q 46 169 32 169 q 89 180 71 169 q 118 216 107 190 q 132 288 129 242 q 142 436 138 360 q 152 597 147 513 q 162 778 157 681 q 172 992 167 875 l 718 992 l 718 649 l 763 649 q 1003 569 922 649 q 1085 333 1085 489 q 1001 87 1085 174 q 763 0 917 0 l 510 0 l 510 807 l 361 807 q 353 649 357 721 q 344 514 349 578 q 336 389 340 450 q 328 265 332 328 q 294 110 319 172 q 220 17 268 47 q 97 -14 172 -14 m 718 182 l 756 182 q 843 220 814 182 q 872 331 872 258 q 844 435 872 401 q 756 469 815 469 l 718 469 l 718 182 z "},"Њ":{"ha":1106,"x_min":86,"x_max":1067,"o":"m 86 0 l 86 992 l 297 992 l 297 617 l 496 617 l 496 992 l 701 992 l 701 618 l 744 618 q 985 540 904 618 q 1067 314 1067 463 q 983 83 1067 167 q 744 0 899 0 l 496 0 l 496 438 l 297 438 l 297 0 l 86 0 m 701 182 l 738 182 q 826 217 796 182 q 856 313 856 251 q 827 406 856 374 q 739 439 799 439 l 701 439 l 701 182 z "},"Ћ":{"ha":850,"x_min":21,"x_max":793,"o":"m 196 0 l 196 808 l 21 808 l 21 992 l 629 992 l 629 808 l 406 808 l 406 515 l 342 557 q 435 590 389 579 q 532 601 482 601 q 726 533 660 601 q 793 332 793 465 l 793 0 l 582 0 l 582 308 q 560 393 582 367 q 488 419 538 419 q 427 409 457 419 q 367 382 397 399 l 407 438 l 407 0 l 196 0 z "},"Ќ":{"ha":757,"x_min":86,"x_max":767,"o":"m 533 0 l 311 500 l 310 524 l 528 992 l 751 992 l 506 501 l 513 538 l 767 0 l 533 0 m 86 0 l 86 992 l 297 992 l 297 0 l 86 0 m 238 425 l 238 606 l 403 606 l 403 425 l 238 425 m 300 1064 l 300 1083 l 413 1286 l 640 1286 l 640 1274 l 446 1064 l 300 1064 z "},"Ў":{"ha":711,"x_min":8,"x_max":711,"o":"m 163 -14 q 102 -9 131 -14 q 49 3 74 -4 l 49 185 q 85 175 65 179 q 125 171 104 171 q 194 190 165 171 q 245 256 222 208 q 289 390 268 304 l 283 194 l 8 992 l 233 992 l 321 697 q 338 635 331 667 q 353 573 346 604 q 365 507 360 542 l 374 507 q 385 569 379 542 q 397 624 390 597 q 411 682 404 650 l 492 992 l 711 992 l 492 310 q 410 121 456 192 q 303 18 364 50 q 163 -14 243 -14 m 367 1061 q 201 1117 258 1061 q 136 1279 143 1172 l 292 1279 q 313 1203 294 1229 q 367 1178 331 1178 q 425 1204 406 1178 q 446 1279 444 1231 l 601 1279 q 536 1118 596 1175 q 367 1061 476 1061 z "},"Џ":{"ha":810,"x_min":86,"x_max":724,"o":"m 301 -203 l 301 0 l 86 0 l 86 992 l 297 992 l 297 182 l 513 182 l 513 992 l 724 992 l 724 0 l 508 0 l 508 -203 l 301 -203 z "},"А":{"ha":761,"x_min":0,"x_max":761,"o":"m 536 0 l 490 218 l 272 218 l 228 0 l 0 0 l 240 992 l 517 992 l 761 0 l 536 0 m 410 644 q 399 713 404 679 q 390 776 394 746 q 382 832 386 806 q 375 777 379 807 q 365 715 371 747 q 353 647 360 682 l 304 400 l 458 400 l 410 644 z "},"Б":{"ha":711,"x_min":86,"x_max":671,"o":"m 86 0 l 86 992 l 604 992 l 604 808 l 296 808 l 296 621 l 349 621 q 590 544 508 621 q 671 319 671 467 q 587 85 671 169 q 349 0 503 0 l 86 0 m 296 182 l 342 182 q 428 217 399 182 q 458 317 458 251 q 429 410 458 378 q 342 443 400 443 l 296 443 l 296 182 z "}}}
